<svg width="64" height="64" viewBox="0 0 64 64" fill="none" xmlns="http://www.w3.org/2000/svg">
  <g clip-path="url(#clip0_2408_2006)">
    <path fill-rule="evenodd" clip-rule="evenodd"
      d="M30.088 10.9586L30.7356 13.9992C34.3786 14.3381 37.5258 16.8999 38.312 20.5931L40.3977 30.3832C41.3715 34.9555 38.371 39.4693 33.6978 40.4651L16.9135 44.0403C12.2389 45.0361 7.65855 42.1366 6.68475 37.5644L4.5991 27.7737C3.8129 24.0817 5.64443 20.4588 8.83125 18.665L8.18373 15.6243C6.94451 9.70746 10.8209 3.87593 16.8262 2.59719C22.9119 1.30087 28.8287 5.04676 30.088 10.9586ZM17.6011 6.03687C21.6921 5.16534 25.7091 7.70903 26.5611 11.709L27.1177 14.3224L12.2659 17.486L11.7012 14.8337C10.8736 10.8482 13.5102 6.9084 17.6011 6.03687ZM24.7258 30.8808C24.9316 31.8464 24.3092 32.782 23.3216 32.9922C22.3547 33.1986 21.4047 32.5969 21.1989 31.6319L20.2672 27.2566C20.0664 26.3111 20.6876 25.3743 21.6551 25.1691C22.6427 24.9583 23.592 25.56 23.7941 26.5056L24.7258 30.8808Z"
      fill="url(#paint0_linear_2408_2006)" />
    <g opacity="0.5" filter="url(#filter0_f_2408_2006)">
      <path
        d="M27.7568 20.1779L14.1426 23.1364C12.4495 23.5043 11.3752 25.1751 11.7431 26.8683L13.3593 34.3057C13.7272 35.9988 15.398 37.0731 17.0912 36.7052L30.7054 33.7468C32.3985 33.3788 33.4728 31.708 33.1049 30.0149L31.4887 22.5775C31.1208 20.8843 29.4499 19.81 27.7568 20.1779Z"
        fill="#71BA6C" />
    </g>
    <g filter="url(#filter1_d_2408_2006)">
      <path
        d="M52.0382 27.6243L49.8083 35.5867C48.9793 35.0879 48.0861 34.7046 47.1535 34.4472L45.524 33.9905L47.6511 26.3952C49.0447 21.4182 46.041 16.2148 40.9518 14.7892C35.8632 13.3643 30.6001 16.2261 29.1883 21.1716L27.0475 28.8165L25.4431 28.3666C24.4655 28.093 23.5036 27.9556 22.5505 27.9801L24.7874 19.9927C26.8724 12.6439 34.6327 8.39234 42.1038 10.4849C49.6746 12.6057 54.0981 20.2687 52.0382 27.6243Z"
        fill="url(#paint1_linear_2408_2006)" />
      <path
        d="M51.917 27.5904L49.7316 35.3959C48.9327 34.9321 48.0776 34.5726 47.1873 34.3261L45.6783 33.9038L47.7721 26.429C49.1851 21.3831 46.1394 16.1118 40.9856 14.6687C35.8329 13.2256 30.4996 16.1225 29.0678 21.1377L26.9601 28.6615L25.4768 28.2461C24.5463 27.9857 23.6278 27.8464 22.7161 27.8514L24.9078 20.0259C26.9739 12.7474 34.6634 8.53098 42.0704 10.606C49.5772 12.7079 53.9581 20.3045 51.9176 27.5904H51.917Z"
        stroke="url(#paint2_linear_2408_2006)" stroke-width="0.4" />
    </g>
    <mask id="mask0_2408_2006" style="mask-type:alpha" maskUnits="userSpaceOnUse" x="-5" y="6" width="77" height="73">
      <path d="M-4.30249 6.13666H71.0814V78.4755H-4.30249V6.13666Z" fill="white" />
      <path
        d="M48.5225 28.952L27.6447 23.1042C21.8282 21.4759 15.821 24.7669 14.2285 30.4548L10.8171 42.6348C9.22399 48.3227 12.6486 54.2552 18.4645 55.8835L39.3429 61.7313C45.1594 63.3595 51.1659 60.0686 52.759 54.3807L56.1699 42.2006C57.7636 36.5128 54.339 30.5803 48.5225 28.952Z"
        fill="black" />
    </mask>
    <g mask="url(#mask0_2408_2006)">
      <path
        d="M48.5225 28.952L27.6447 23.1042C21.8282 21.4759 15.821 24.7669 14.2285 30.4548L10.8171 42.6348C9.22399 48.3227 12.6486 54.2552 18.4645 55.8835L39.3429 61.7313C45.1594 63.3595 51.1659 60.0686 52.759 54.3807L56.1699 42.2006C57.7636 36.5128 54.339 30.5803 48.5225 28.952Z"
        fill="#71BA6C" fill-opacity="0.35" />
      <path
        d="M27.6449 23.1048L27.4755 23.7084L27.6449 23.1048ZM18.4647 55.8835L18.2952 56.4877L18.4647 55.8835ZM39.3431 61.7313L39.5125 61.1265L39.3431 61.7307V61.7313ZM48.6921 28.3478C48.5335 28.3078 48.3656 28.3313 48.2241 28.4133C48.0826 28.4953 47.9787 28.6293 47.9345 28.7867C47.8903 28.9442 47.9094 29.1127 47.9876 29.2563C48.0658 29.3999 48.197 29.5074 48.3533 29.5557L48.6921 28.3478ZM48.6921 28.3478L27.8143 22.5L27.4755 23.7084L48.3539 29.5563L48.6927 28.3478H48.6921ZM27.8143 22.5C21.6772 20.7814 15.3142 24.2506 13.6245 30.2854L14.833 30.6242C16.3288 25.2821 21.9803 22.1699 27.4761 23.7084L27.8143 22.5006V22.5ZM13.6245 30.286L10.2131 42.4661L11.4215 42.8049L14.833 30.6236L13.6245 30.2854V30.286ZM10.2131 42.4661C8.52333 48.5003 12.1581 54.7698 18.2952 56.4884L18.6341 55.2799C13.1389 53.7414 9.92505 48.1458 11.4215 42.8043L10.2131 42.4655V42.4661ZM18.2952 56.4871L39.1737 62.3343L39.5125 61.1259L18.6341 55.2786L18.2952 56.4871ZM39.1737 62.3343C45.3102 64.0529 51.6731 60.5837 53.3635 54.5495L52.155 54.2107C50.6592 59.5528 45.0071 62.665 39.5119 61.1259L39.1731 62.3343H39.1737ZM53.3635 54.5495L56.7743 42.3695L55.5658 42.0306L52.155 54.2107L53.3635 54.5495ZM56.7743 42.3695C58.4647 36.3353 54.8292 30.0651 48.6927 28.3472L48.3539 29.555C53.8491 31.0942 57.0623 36.6892 55.5658 42.0313L56.7743 42.3695Z"
        fill="url(#paint3_linear_2408_2006)" />
    </g>
    <g filter="url(#filter2_d_2408_2006)">
      <path
        d="M34.9289 45.7414C34.5926 46.9423 33.3471 47.625 32.118 47.2811C30.9151 46.9436 30.2055 45.7137 30.5418 44.5128L32.0665 39.0697C32.3953 37.8932 33.6414 37.2105 34.8442 37.5475C36.0728 37.8913 36.7831 39.1217 36.453 40.2982L34.9289 45.7414Z"
        fill="url(#paint4_linear_2408_2006)" />
      <path
        d="M34.8077 45.7075C34.4909 46.8394 33.3163 47.4863 32.1524 47.16C31.0142 46.8413 30.3453 45.6793 30.6622 44.5467L32.1869 39.1036C32.4968 37.9961 33.6714 37.3492 34.8103 37.6686C35.9754 37.9949 36.6424 39.1582 36.3325 40.2644L34.8077 45.7075V45.7075Z"
        stroke="url(#paint5_linear_2408_2006)" stroke-width="0.4" />
    </g>
  </g>
  <defs>
    <filter id="filter0_f_2408_2006" x="-3.3291" y="5.10571" width="51.5061" height="46.6717"
      filterUnits="userSpaceOnUse" color-interpolation-filters="sRGB">
      <feFlood flood-opacity="0" result="BackgroundImageFix" />
      <feBlend mode="normal" in="SourceGraphic" in2="BackgroundImageFix" result="shape" />
      <feGaussianBlur stdDeviation="7.5" result="effect1_foregroundBlur_2408_2006" />
    </filter>
    <filter id="filter1_d_2408_2006" x="17.4519" y="4.87726" width="50.1663" height="45.8213"
      filterUnits="userSpaceOnUse" color-interpolation-filters="sRGB">
      <feFlood flood-opacity="0" result="BackgroundImageFix" />
      <feColorMatrix in="SourceAlpha" type="matrix" values="0 0 0 0 0 0 0 0 0 0 0 0 0 0 0 0 0 0 127 0"
        result="hardAlpha" />
      <feOffset dx="5" dy="5" />
      <feGaussianBlur stdDeviation="5" />
      <feColorMatrix type="matrix" values="0 0 0 0 0.443137 0 0 0 0 0.729412 0 0 0 0 0.423529 0 0 0 0.5 0" />
      <feBlend mode="normal" in2="BackgroundImageFix" result="effect1_dropShadow_2408_2006" />
      <feBlend mode="normal" in="SourceGraphic" in2="effect1_dropShadow_2408_2006" result="shape" />
    </filter>
    <filter id="filter2_d_2408_2006" x="25.3833" y="32.387" width="26.2251" height="30.0574"
      filterUnits="userSpaceOnUse" color-interpolation-filters="sRGB">
      <feFlood flood-opacity="0" result="BackgroundImageFix" />
      <feColorMatrix in="SourceAlpha" type="matrix" values="0 0 0 0 0 0 0 0 0 0 0 0 0 0 0 0 0 0 127 0"
        result="hardAlpha" />
      <feOffset dx="5" dy="5" />
      <feGaussianBlur stdDeviation="5" />
      <feColorMatrix type="matrix" values="0 0 0 0 0.443137 0 0 0 0 0.729412 0 0 0 0 0.423529 0 0 0 0.5 0" />
      <feBlend mode="normal" in2="BackgroundImageFix" result="effect1_dropShadow_2408_2006" />
      <feBlend mode="normal" in="SourceGraphic" in2="effect1_dropShadow_2408_2006" result="shape" />
    </filter>
    <linearGradient id="paint0_linear_2408_2006" x1="16.8564" y1="2.59028" x2="25.3044" y2="42.2527"
      gradientUnits="userSpaceOnUse">
      <stop stop-color="#80C47C" />
      <stop offset="1" stop-color="#3ABD31" />
    </linearGradient>
    <linearGradient id="paint1_linear_2408_2006" x1="52.7573" y1="17.6165" x2="22.0687" y2="10.3864"
      gradientUnits="userSpaceOnUse">
      <stop stop-color="white" />
      <stop offset="1" stop-color="white" stop-opacity="0.2" />
    </linearGradient>
    <linearGradient id="paint2_linear_2408_2006" x1="32.1586" y1="10.3757" x2="39.1377" y2="33.7702"
      gradientUnits="userSpaceOnUse">
      <stop stop-color="white" stop-opacity="0.25" />
      <stop offset="1" stop-color="white" stop-opacity="0" />
    </linearGradient>
    <linearGradient id="paint3_linear_2408_2006" x1="22.72" y1="25.8437" x2="33.4582" y2="61.8474"
      gradientUnits="userSpaceOnUse">
      <stop stop-color="white" stop-opacity="0.25" />
      <stop offset="1" stop-color="white" stop-opacity="0" />
    </linearGradient>
    <linearGradient id="paint4_linear_2408_2006" x1="36.2472" y1="39.8358" x2="31.3362" y2="38.5382"
      gradientUnits="userSpaceOnUse">
      <stop stop-color="white" />
      <stop offset="1" stop-color="white" stop-opacity="0.2" />
    </linearGradient>
    <linearGradient id="paint5_linear_2408_2006" x1="33.044" y1="38.2665" x2="37.6056" y2="42.7986"
      gradientUnits="userSpaceOnUse">
      <stop stop-color="white" stop-opacity="0.25" />
      <stop offset="1" stop-color="white" stop-opacity="0" />
    </linearGradient>
    <clipPath id="clip0_2408_2006">
      <rect width="64" height="65.8824" fill="white" transform="translate(0 -1)" />
    </clipPath>
  </defs>
</svg>