<svg width="65" height="46" viewBox="0 0 65 46" fill="none" xmlns="http://www.w3.org/2000/svg">
  <g clip-path="url(#clip0_2657_3725)">
    <path
      d="M41.4091 24.576L22.8811 6.016C20.9309 4.02572 17.6903 3.97029 15.676 5.916C14.986 6.5613 14.4966 7.39176 14.2663 8.308L7.45942 33.8394C7.09771 36.5954 9.08228 39.1309 11.8771 39.472C12.4364 39.529 13.0011 39.5024 13.5526 39.3932L39.02 32.5686C40.2995 32.1543 41.3641 31.2524 41.9829 30.0583C42.2927 29.47 42.4814 28.8255 42.5377 28.163C42.594 27.5004 42.5169 26.8333 42.3108 26.2011C42.128 25.6571 41.8629 25.1566 41.4091 24.576Z"
      fill="url(#paint0_linear_2657_3725)" />
    <g filter="url(#filter0_f_2657_3725)">
      <path
        d="M34.1994 26.1829L23.5766 15.5417C22.4589 14.4006 20.6011 14.3686 19.4463 15.4846C19.0507 15.8543 18.7699 16.3303 18.6377 16.8554L14.7349 31.4931C14.528 33.0731 15.6657 34.5274 17.268 34.7229C17.5887 34.7553 17.9124 34.7399 18.2286 34.6771L32.8297 30.7646C33.5634 30.527 34.1738 30.0098 34.5286 29.3251C34.7062 28.9878 34.8144 28.6183 34.8467 28.2385C34.879 27.8586 34.8347 27.4762 34.7166 27.1137C34.6114 26.8023 34.4594 26.5154 34.1994 26.1823V26.1829Z"
        fill="#EF2324" />
    </g>
    <path
      d="M63.2972 33.5526L46.3372 4.11713C44.5635 0.973133 40.5275 -0.182867 37.3543 1.57713C36.2578 2.15485 35.3715 3.05428 34.7886 4.09713L17.7115 33.7606C16.3355 37.088 17.9686 40.9263 21.3515 42.2903C22.0275 42.5446 22.7509 42.7086 23.4743 42.7526H57.6286C59.3685 42.6629 61.003 41.8911 62.1778 40.6046C63.3675 39.3074 63.9738 37.6217 63.8806 35.888C63.8338 35.1457 63.6703 34.4309 63.2972 33.5526Z"
      fill="#F14C4D" fill-opacity="0.45" />
    <path
      d="M63.56 33.4411C63.5559 33.4304 63.5508 33.42 63.5446 33.4103L46.5857 3.97714L46.5852 3.976C44.7355 0.69714 40.5286 -0.508574 37.2195 1.32457C36.0732 1.93028 35.1486 2.86857 34.5406 3.95543L34.5395 3.95714L17.464 33.6183C17.4578 33.629 17.4522 33.64 17.4475 33.6514C16.0092 37.128 17.7166 41.1326 21.244 42.5549L21.2503 42.5577C21.9515 42.8206 22.7023 42.992 23.4566 43.0377H23.4606C23.4652 43.038 23.4697 43.0382 23.4743 43.0383H57.6429C59.4574 42.9449 61.1619 42.1401 62.3869 40.7983H62.3875C63.6286 39.4446 64.2629 37.684 64.1652 35.8726V35.8697C64.116 35.0926 63.9446 34.3463 63.5595 33.4411H63.56Z"
      stroke="url(#paint1_linear_2657_3725)" stroke-linecap="round" stroke-linejoin="round" />
    <g filter="url(#filter1_d_2657_3725)">
      <mask id="mask0_2657_3725" style="mask-type:alpha" maskUnits="userSpaceOnUse" x="38" y="14" width="5" height="20">
        <path fill-rule="evenodd" clip-rule="evenodd"
          d="M40.5514 25.5531C41.6714 25.5531 42.5817 24.6263 42.5817 23.5166V16.9754C42.5817 15.8634 41.6714 14.964 40.552 14.964C39.432 14.964 38.4988 15.8634 38.4988 16.9754V23.5166C38.4988 24.6263 39.432 25.5531 40.552 25.5531H40.5514ZM38.4988 31.4251C38.4988 32.5326 39.432 33.4594 40.552 33.4594C41.672 33.4594 42.5817 32.5326 42.5817 31.3994C42.5817 30.292 41.6714 29.388 40.552 29.388C39.432 29.388 38.4988 30.3131 38.4988 31.4251Z"
          fill="white" />
      </mask>
      <g mask="url(#mask0_2657_3725)">
        <path fill-rule="evenodd" clip-rule="evenodd"
          d="M40.5514 25.5531C41.6714 25.5531 42.5817 24.6263 42.5817 23.5166V16.9754C42.5817 15.8634 41.6714 14.964 40.552 14.964C39.432 14.964 38.4988 15.8634 38.4988 16.9754V23.5166C38.4988 24.6263 39.432 25.5531 40.552 25.5531H40.5514ZM38.4988 31.4251C38.4988 32.5326 39.432 33.4594 40.552 33.4594C41.672 33.4594 42.5817 32.5326 42.5817 31.3994C42.5817 30.292 41.6714 29.388 40.552 29.388C39.432 29.388 38.4988 30.3131 38.4988 31.4251Z"
          fill="url(#paint2_linear_2657_3725)" />
        <path
          d="M42.3531 23.5166C42.3531 24.5017 41.5434 25.3246 40.552 25.3246V25.7817C41.8 25.7817 42.8103 24.7508 42.8103 23.5166H42.3531ZM42.3531 16.9754V23.5166H42.8103V16.9754H42.3531ZM40.552 15.1926C41.5474 15.1926 42.3531 15.992 42.3531 16.9754H42.8103C42.8103 15.7354 41.796 14.7354 40.552 14.7354V15.1926ZM38.7274 16.9754C38.7274 15.9948 39.5526 15.1926 40.552 15.1926V14.7354C39.3114 14.7354 38.2703 15.732 38.2703 16.9754H38.7274ZM38.7274 23.5166V16.9754H38.2703V23.5166H38.7274ZM40.552 25.3246C39.5566 25.3246 38.7274 24.4983 38.7274 23.5166H38.2703C38.2703 24.7543 39.3074 25.7817 40.552 25.7817V25.3246ZM40.552 33.2314C39.5566 33.2314 38.7274 32.4046 38.7274 31.4251H38.2703C38.2703 32.6606 39.3074 33.688 40.552 33.688V33.2308V33.2314ZM42.3531 31.3994C42.3531 32.4097 41.5417 33.2314 40.552 33.2314V33.6886C41.8011 33.6886 42.8103 32.6554 42.8103 31.3994H42.3531ZM40.552 29.6166C41.5474 29.6166 42.3531 30.42 42.3531 31.3994H42.8103C42.8103 30.164 41.796 29.1594 40.552 29.1594V29.6166ZM38.7274 31.4251C38.7274 30.4411 39.556 29.6166 40.552 29.6166V29.1594C39.3074 29.1594 38.2703 30.1851 38.2703 31.4251H38.7274Z"
          fill="url(#paint3_linear_2657_3725)" />
      </g>
    </g>
  </g>
  <defs>
    <filter id="filter0_f_2657_3725" x="-4.28943" y="-4.33362" width="58.1464" height="58.073"
      filterUnits="userSpaceOnUse" color-interpolation-filters="sRGB">
      <feFlood flood-opacity="0" result="BackgroundImageFix" />
      <feBlend mode="normal" in="SourceGraphic" in2="BackgroundImageFix" result="shape" />
      <feGaussianBlur stdDeviation="9.5" result="effect1_foregroundBlur_2657_3725" />
    </filter>
    <filter id="filter1_d_2657_3725" x="33.4988" y="9.96399" width="24.0828" height="38.4954"
      filterUnits="userSpaceOnUse" color-interpolation-filters="sRGB">
      <feFlood flood-opacity="0" result="BackgroundImageFix" />
      <feColorMatrix in="SourceAlpha" type="matrix" values="0 0 0 0 0 0 0 0 0 0 0 0 0 0 0 0 0 0 127 0"
        result="hardAlpha" />
      <feOffset dx="5" dy="5" />
      <feGaussianBlur stdDeviation="5" />
      <feColorMatrix type="matrix" values="0 0 0 0 1 0 0 0 0 0.376471 0 0 0 0 0.580392 0 0 0 1 0" />
      <feBlend mode="normal" in2="BackgroundImageFix" result="effect1_dropShadow_2657_3725" />
      <feBlend mode="normal" in="SourceGraphic" in2="effect1_dropShadow_2657_3725" result="shape" />
    </filter>
    <linearGradient id="paint0_linear_2657_3725" x1="25.2183" y1="21.7314" x2="0.19085" y2="45.3823"
      gradientUnits="userSpaceOnUse">
      <stop stop-color="#E86566" />
      <stop offset="1" stop-color="#EF2324" />
    </linearGradient>
    <linearGradient id="paint1_linear_2657_3725" x1="24.652" y1="5.64571" x2="50.7189" y2="41.5171"
      gradientUnits="userSpaceOnUse">
      <stop stop-color="white" stop-opacity="0.25" />
      <stop offset="1" stop-color="white" stop-opacity="0" />
    </linearGradient>
    <linearGradient id="paint2_linear_2657_3725" x1="40.5406" y1="16.0074" x2="36.792" y2="15.66"
      gradientUnits="userSpaceOnUse">
      <stop stop-color="white" stop-opacity="0.75" />
      <stop offset="1" stop-color="white" stop-opacity="0.2" />
    </linearGradient>
    <linearGradient id="paint3_linear_2657_3725" x1="39.1485" y1="17.1188" x2="45.2891" y2="18.7977"
      gradientUnits="userSpaceOnUse">
      <stop stop-color="white" stop-opacity="0.25" />
      <stop offset="1" stop-color="white" stop-opacity="0" />
    </linearGradient>
    <clipPath id="clip0_2657_3725">
      <rect width="64" height="45.7143" fill="white" transform="translate(0.5)" />
    </clipPath>
  </defs>
</svg>