<svg width="40" height="48" viewBox="0 0 40 48" fill="none" xmlns="http://www.w3.org/2000/svg">
  <path fill-rule="evenodd" clip-rule="evenodd"
    d="M24.4138 10.0045L14.4681 20.0169L2.82301 12.85C1.29749 11.9107 1.60646 9.59349 3.32554 9.09418L30.818 1.09464C32.3812 0.642222 33.8271 2.10797 33.3586 3.67854L25.2019 31.1425C24.6911 32.8611 22.3996 33.1585 21.4731 31.6243L14.4685 20.0169"
    fill="url(#paint0_linear_2353_2871)" />
  <g opacity="0.5" filter="url(#filter0_f_2353_2871)">
    <path fill-rule="evenodd" clip-rule="evenodd"
      d="M22.9886 12.2574L17.0571 18.2285L10.1127 13.954C9.20237 13.394 9.3872 12.0119 10.412 11.7149L26.8074 6.94386C27.7398 6.67398 28.6019 7.548 28.3228 8.48501L23.4585 24.8634C23.1536 25.8882 21.7867 26.0657 21.2346 25.1503L17.0575 18.2285"
      fill="#E46800" />
  </g>
  <mask id="mask0_2353_2871" style="mask-type:alpha" maskUnits="userSpaceOnUse" x="0" y="7" width="40" height="41">
    <path d="M0 7.39075H40V47.8505H0V7.39075Z" fill="white" />
    <path fill-rule="evenodd" clip-rule="evenodd"
      d="M28.2888 19.3963L16.0277 31.7388L1.67364 22.9039C-0.207281 21.7462 0.173868 18.8896 2.29295 18.274L36.1826 8.41284C38.1104 7.85514 39.892 9.66204 39.315 11.5981L29.2598 45.4538C28.63 47.5724 25.8051 47.9393 24.6635 46.0473L16.0281 31.7393"
      fill="black" />
  </mask>
  <g mask="url(#mask0_2353_2871)">
    <path fill-rule="evenodd" clip-rule="evenodd"
      d="M28.2888 19.3963L16.0277 31.7388L1.67364 22.9039C-0.207281 21.7462 0.173868 18.8896 2.29295 18.274L36.1826 8.41284C38.1104 7.85514 39.892 9.66204 39.315 11.5981L29.2598 45.4538C28.63 47.5724 25.8051 47.9393 24.6635 46.0473L16.0281 31.7393"
      fill="#FFCBB9" fill-opacity="0.45" />
    <path
      d="M28.6148 19.7204C28.7007 19.6339 28.7488 19.5168 28.7484 19.3948C28.748 19.2728 28.6992 19.156 28.6127 19.0701C28.5262 18.9841 28.409 18.936 28.2871 18.9364C28.1651 18.9368 28.0483 18.9856 27.9623 19.0721L28.6148 19.7204ZM16.0276 31.7388L15.7867 32.1305C15.875 32.1849 15.9792 32.2078 16.0822 32.1956C16.1852 32.1833 16.281 32.1366 16.3541 32.0629L16.0276 31.7388ZM1.67361 22.9039L1.43223 23.2956L1.67361 22.9039ZM2.29292 18.274L2.42073 18.7158H2.42119L2.29246 18.2744L2.29292 18.274ZM36.1826 8.41282L36.0552 7.97145H36.0543L36.183 8.41282H36.1826ZM39.315 11.5981L38.8745 11.4671L39.315 11.5981ZM29.2598 45.4537L29.7003 45.5848L29.2594 45.4537H29.2598ZM24.6635 46.0473L25.0571 45.8096L24.6635 46.0473ZM16.4216 31.5011C16.3586 31.3967 16.2567 31.3215 16.1382 31.2923C16.0198 31.263 15.8946 31.282 15.7902 31.345C15.6857 31.4081 15.6106 31.51 15.5813 31.6284C15.5521 31.7469 15.571 31.8721 15.6341 31.9765L16.4216 31.5011ZM27.9623 19.0721L15.7017 31.4147L16.3541 32.0629L28.6148 19.7204L27.9623 19.0721ZM16.269 31.3475L1.91452 22.5126L1.43269 23.2956L15.7867 32.1305L16.269 31.3475ZM1.91452 22.5126C0.371077 21.5618 0.687398 19.2183 2.42073 18.7158L2.16464 17.8331C-0.340188 18.5595 -0.785705 21.9296 1.43223 23.2951L1.91452 22.5121V22.5126ZM2.42119 18.7158L36.3113 8.85466L36.0543 7.9719L2.16464 17.8331L2.42119 18.7158ZM36.3108 8.85466C37.8837 8.39949 39.349 9.87443 38.8745 11.4671L39.7554 11.7296C40.435 9.44961 38.3366 7.31122 36.0552 7.97145L36.3108 8.8542V8.85466ZM38.8741 11.4675L28.8189 45.3227L29.7003 45.5848L39.7554 11.7291L38.8741 11.4671V11.4675ZM28.8189 45.3227C28.3021 47.0611 25.9913 47.3572 25.0575 45.8101L24.2699 46.285C25.6194 48.5209 28.9573 48.0836 29.7003 45.5848L28.8189 45.3227ZM25.0575 45.8101L16.4212 31.5006L15.6336 31.976L24.2695 46.2845L25.0566 45.8091L25.0575 45.8101Z"
      fill="url(#paint1_linear_2353_2871)" />
  </g>
  <g filter="url(#filter1_d_2353_2871)">
    <path
      d="M26.9486 19.1805L19.146 26.983C18.6971 27.4319 18.6971 28.1597 19.146 28.6085C19.5949 29.0574 20.3227 29.0574 20.7716 28.6085L28.5741 20.806C29.023 20.3571 29.023 19.6293 28.5741 19.1805C28.1252 18.7316 27.3975 18.7316 26.9486 19.1805Z"
      fill="url(#paint2_linear_2353_2871)" />
    <path
      d="M27.0137 19.2455L19.2111 27.048C18.7982 27.461 18.7982 28.1306 19.2111 28.5435C19.6241 28.9565 20.2936 28.9565 20.7066 28.5435L28.5092 20.741C28.9221 20.328 28.9221 19.6584 28.5092 19.2455C28.0962 18.8325 27.4266 18.8325 27.0137 19.2455Z"
      stroke="url(#paint3_linear_2353_2871)" stroke-width="0.4" />
  </g>
  <defs>
    <filter id="filter0_f_2353_2871" x="-4.47461" y="-7.10583" width="46.8508" height="46.8506"
      filterUnits="userSpaceOnUse" color-interpolation-filters="sRGB">
      <feFlood flood-opacity="0" result="BackgroundImageFix" />
      <feBlend mode="normal" in="SourceGraphic" in2="BackgroundImageFix" result="shape" />
      <feGaussianBlur stdDeviation="7" result="effect1_foregroundBlur_2353_2871" />
    </filter>
    <filter id="filter1_d_2353_2871" x="13.7014" y="13.7357" width="30.3174" height="30.3175"
      filterUnits="userSpaceOnUse" color-interpolation-filters="sRGB">
      <feFlood flood-opacity="0" result="BackgroundImageFix" />
      <feColorMatrix in="SourceAlpha" type="matrix" values="0 0 0 0 0 0 0 0 0 0 0 0 0 0 0 0 0 0 127 0"
        result="hardAlpha" />
      <feOffset dx="5" dy="5" />
      <feGaussianBlur stdDeviation="5" />
      <feColorMatrix type="matrix" values="0 0 0 0 1 0 0 0 0 0.580392 0 0 0 0 0.247059 0 0 0 0.5 0" />
      <feBlend mode="normal" in2="BackgroundImageFix" result="effect1_dropShadow_2353_2871" />
      <feBlend mode="normal" in="SourceGraphic" in2="effect1_dropShadow_2353_2871" result="shape" />
    </filter>
    <linearGradient id="paint0_linear_2353_2871" x1="17.6437" y1="1.01142" x2="17.6437" y2="32.6206"
      gradientUnits="userSpaceOnUse">
      <stop stop-color="#FFB37F" />
      <stop offset="1" stop-color="#FF7B0D" />
    </linearGradient>
    <linearGradient id="paint1_linear_2353_2871" x1="6.66257" y1="12.8496" x2="31.5182" y2="43.6344"
      gradientUnits="userSpaceOnUse">
      <stop stop-color="white" stop-opacity="0.25" />
      <stop offset="1" stop-color="white" stop-opacity="0" />
    </linearGradient>
    <linearGradient id="paint2_linear_2353_2871" x1="27.3865" y1="19.3297" x2="19.1558" y2="31.3993"
      gradientUnits="userSpaceOnUse">
      <stop stop-color="white" />
      <stop offset="1" stop-color="white" stop-opacity="0.2" />
    </linearGradient>
    <linearGradient id="paint3_linear_2353_2871" x1="20.0613" y1="26.5763" x2="22.4326" y2="28.3676"
      gradientUnits="userSpaceOnUse">
      <stop stop-color="white" stop-opacity="0.25" />
      <stop offset="1" stop-color="white" stop-opacity="0" />
    </linearGradient>
  </defs>
</svg>