<svg width="40" height="32" viewBox="0 0 40 32" fill="none" xmlns="http://www.w3.org/2000/svg">
  <path
    d="M21.9683 19.9364C21.9683 25.6888 17.3063 30.3493 11.5554 30.3493C5.80454 30.3493 1.14282 25.6884 1.14282 19.9364C1.14282 14.1867 5.80454 9.5238 11.5554 9.5238C17.3063 9.5238 21.9683 14.1867 21.9683 19.9364Z"
    fill="url(#paint0_linear_2353_2016)" />
  <g opacity="0.5" filter="url(#filter0_f_2353_2016)">
    <path
      d="M17.3916 19.9364C17.3916 23.1604 14.7787 25.7726 11.5554 25.7726C8.33257 25.7726 5.71924 23.1604 5.71924 19.9364C5.71924 16.7136 8.33257 14.1002 11.5554 14.1002C14.7787 14.1002 17.3916 16.7136 17.3916 19.9364Z"
      fill="#71BA6C" />
  </g>
  <path
    d="M39.4921 15.9364C39.4921 24.5296 32.5279 31.4922 23.9363 31.4922C15.345 31.4922 8.38086 24.5296 8.38086 15.9364C8.38086 7.3467 15.345 0.380981 23.9363 0.380981C32.5279 0.380981 39.4921 7.3467 39.4921 15.9364Z"
    fill="#71BA6C" fill-opacity="0.4" />
  <path
    d="M23.9363 31.6827C32.6331 31.6827 39.6826 24.6347 39.6826 15.9364C39.6826 7.24192 32.6331 0.190491 23.9363 0.190491C15.24 0.190491 8.19043 7.24192 8.19043 15.9364C8.19043 24.6347 15.24 31.6827 23.9363 31.6827Z"
    fill="#71BA6C" fill-opacity="0.4" stroke="url(#paint1_linear_2353_2016)" stroke-linecap="round"
    stroke-linejoin="round" />
  <g filter="url(#filter1_d_2353_2016)">
    <mask id="mask0_2353_2016" style="mask-type:alpha" maskUnits="userSpaceOnUse" x="15" y="14" width="18" height="4">
      <path fill-rule="evenodd" clip-rule="evenodd"
        d="M16.9687 14.0758C16.4751 14.076 16.0018 14.272 15.6525 14.6207C15.3032 14.9694 15.1065 15.4424 15.1055 15.936C15.1061 16.43 15.3026 16.9036 15.6518 17.253C16.0011 17.6023 16.4747 17.7989 16.9687 17.7996C17.9973 17.7996 18.8323 16.9627 18.8323 15.936C18.8313 15.4424 18.6345 14.9693 18.2852 14.6205C17.9358 14.2718 17.4623 14.0759 16.9687 14.0758ZM23.9363 14.0758C23.4428 14.076 22.9694 14.272 22.6201 14.6207C22.2708 14.9694 22.0741 15.4424 22.0731 15.936C22.0737 16.4301 22.2702 16.9037 22.6196 17.2531C22.969 17.6025 23.4426 17.799 23.9367 17.7996C24.9649 17.7996 25.7999 16.9627 25.7999 15.936C25.7989 15.4424 25.6022 14.9694 25.2529 14.6207C24.9036 14.272 24.4303 14.076 23.9367 14.0758H23.9363ZM29.0407 15.936C29.0417 15.4424 29.2385 14.9693 29.5879 14.6205C29.9372 14.2718 30.4107 14.0759 30.9043 14.0758C31.9325 14.0758 32.7676 14.9109 32.7676 15.936C32.767 16.43 32.5705 16.9036 32.2212 17.253C31.8719 17.6023 31.3983 17.7989 30.9043 17.7996C30.4102 17.799 29.9366 17.6025 29.5872 17.2531C29.2379 16.9037 29.0413 16.4301 29.0407 15.936Z"
        fill="white" />
    </mask>
    <g mask="url(#mask0_2353_2016)">
      <path fill-rule="evenodd" clip-rule="evenodd"
        d="M16.9687 14.0758C16.4751 14.076 16.0018 14.272 15.6525 14.6207C15.3032 14.9694 15.1065 15.4424 15.1055 15.936C15.1061 16.43 15.3026 16.9036 15.6518 17.253C16.0011 17.6023 16.4747 17.7989 16.9687 17.7996C17.9973 17.7996 18.8323 16.9627 18.8323 15.936C18.8313 15.4424 18.6345 14.9693 18.2852 14.6205C17.9358 14.2718 17.4623 14.0759 16.9687 14.0758ZM23.9363 14.0758C23.4428 14.076 22.9694 14.272 22.6201 14.6207C22.2708 14.9694 22.0741 15.4424 22.0731 15.936C22.0737 16.4301 22.2702 16.9037 22.6196 17.2531C22.969 17.6025 23.4426 17.799 23.9367 17.7996C24.9649 17.7996 25.7999 16.9627 25.7999 15.936C25.7989 15.4424 25.6022 14.9694 25.2529 14.6207C24.9036 14.272 24.4303 14.076 23.9367 14.0758H23.9363ZM29.0407 15.936C29.0417 15.4424 29.2385 14.9693 29.5879 14.6205C29.9372 14.2718 30.4107 14.0759 30.9043 14.0758C31.9325 14.0758 32.7676 14.9109 32.7676 15.936C32.767 16.43 32.5705 16.9036 32.2212 17.253C31.8719 17.6023 31.3983 17.7989 30.9043 17.7996C30.4102 17.799 29.9366 17.6025 29.5872 17.2531C29.2379 16.9037 29.0413 16.4301 29.0407 15.936Z"
        fill="url(#paint2_linear_2353_2016)" />
      <path
        d="M15.2579 15.936C15.2589 15.4828 15.4396 15.0486 15.7603 14.7284C16.081 14.4083 16.5156 14.2284 16.9687 14.2282V13.9234C16.4348 13.9236 15.9227 14.1356 15.5448 14.5129C15.1669 14.8902 14.9541 15.402 14.9531 15.936H15.2579ZM16.9687 17.6472C16.5151 17.6465 16.0803 17.466 15.7596 17.1452C15.4389 16.8244 15.2585 16.3896 15.2579 15.936H14.9531C14.9537 16.4704 15.1663 16.9828 15.5441 17.3607C15.922 17.7386 16.4343 17.9513 16.9687 17.952V17.6472ZM18.68 15.936C18.6794 16.3896 18.4989 16.8245 18.1781 17.1453C17.8573 17.4661 17.4224 17.6466 16.9687 17.6472V17.952C17.5032 17.9514 18.0157 17.7388 18.3936 17.3608C18.7715 16.9829 18.9841 16.4705 18.9847 15.936H18.68ZM16.9687 14.2282C17.422 14.2283 17.8567 14.4081 18.1775 14.7283C18.4983 15.0484 18.679 15.4827 18.68 15.936H18.9847C18.9837 15.4019 18.7709 14.8901 18.393 14.5128C18.015 14.1355 17.5028 13.9235 16.9687 13.9234V14.2282ZM22.2255 15.936C22.2265 15.4827 22.4072 15.0484 22.728 14.7283C23.0488 14.4081 23.4835 14.2283 23.9367 14.2282V13.9234C23.4027 13.9235 22.8905 14.1355 22.5125 14.5128C22.1346 14.8901 21.9218 15.4019 21.9207 15.936H22.2255ZM23.9367 17.6472C23.4831 17.6466 23.0482 17.4661 22.7274 17.1453C22.4066 16.8245 22.2261 16.3896 22.2255 15.936H21.9207C21.9213 16.4704 22.1339 16.9828 22.5118 17.3607C22.8896 17.7386 23.4019 17.9513 23.9364 17.952V17.6472H23.9367ZM25.6476 15.936C25.647 16.3896 25.4665 16.8245 25.1457 17.1453C24.8249 17.4661 24.39 17.6466 23.9364 17.6472V17.952C24.4709 17.9514 24.9833 17.7388 25.3612 17.3608C25.7392 16.9829 25.9518 16.4705 25.9524 15.936H25.6476ZM23.9364 14.2282C24.3896 14.2283 24.8243 14.4081 25.1451 14.7283C25.4659 15.0484 25.6466 15.4827 25.6476 15.936H25.9524C25.9514 15.402 25.7386 14.8902 25.3607 14.5129C24.9828 14.1356 24.4707 13.9236 23.9367 13.9234V14.2282H23.9364ZM30.904 13.9234C30.37 13.9236 29.8579 14.1356 29.48 14.5129C29.1022 14.8902 28.8894 15.402 28.8884 15.936H29.1931C29.1941 15.4827 29.3749 15.0484 29.6957 14.7283C30.0165 14.4081 30.4511 14.2283 30.9044 14.2282V13.9234H30.904ZM32.92 15.936C32.919 15.402 32.7062 14.8902 32.3283 14.5129C31.9505 14.1356 31.4384 13.9236 30.9044 13.9234V14.2282C31.3575 14.2284 31.7921 14.4083 32.1128 14.7284C32.4335 15.0486 32.6142 15.4828 32.6152 15.936H32.92ZM30.9044 17.952C31.4388 17.9513 31.9511 17.7386 32.329 17.3607C32.7068 16.9828 32.9194 16.4704 32.92 15.936H32.6152C32.6146 16.3896 32.4342 16.8244 32.1135 17.1452C31.7928 17.466 31.358 17.6465 30.9044 17.6472V17.952ZM28.8884 15.936C28.889 16.4705 29.1016 16.9829 29.4795 17.3608C29.8574 17.7388 30.3699 17.9514 30.9044 17.952V17.6472C30.4507 17.6466 30.0158 17.4661 29.695 17.1453C29.3742 16.8245 29.1937 16.3896 29.1931 15.936H28.8884Z"
        fill="url(#paint3_linear_2353_2016)" />
    </g>
  </g>
  <defs>
    <filter id="filter0_f_2353_2016" x="-9.28076" y="-0.89978" width="41.6724" height="41.6724"
      filterUnits="userSpaceOnUse" color-interpolation-filters="sRGB">
      <feFlood flood-opacity="0" result="BackgroundImageFix" />
      <feBlend mode="normal" in="SourceGraphic" in2="BackgroundImageFix" result="shape" />
      <feGaussianBlur stdDeviation="7.5" result="effect1_foregroundBlur_2353_2016" />
    </filter>
    <filter id="filter1_d_2353_2016" x="10.1055" y="9.07581" width="37.6621" height="23.7238"
      filterUnits="userSpaceOnUse" color-interpolation-filters="sRGB">
      <feFlood flood-opacity="0" result="BackgroundImageFix" />
      <feColorMatrix in="SourceAlpha" type="matrix" values="0 0 0 0 0 0 0 0 0 0 0 0 0 0 0 0 0 0 127 0"
        result="hardAlpha" />
      <feOffset dx="5" dy="5" />
      <feGaussianBlur stdDeviation="5" />
      <feColorMatrix type="matrix" values="0 0 0 0 0.577356 0 0 0 0 0.359375 0 0 0 0 0.9375 0 0 0 0.5 0" />
      <feBlend mode="normal" in2="BackgroundImageFix" result="effect1_dropShadow_2353_2016" />
      <feBlend mode="normal" in="SourceGraphic" in2="effect1_dropShadow_2353_2016" result="shape" />
    </filter>
    <linearGradient id="paint0_linear_2353_2016" x1="11.5554" y1="9.5238" x2="11.5554" y2="30.3493"
      gradientUnits="userSpaceOnUse">
      <stop stop-color="#71BA6C" />
      <stop offset="1" stop-color="#36BC2D" />
    </linearGradient>
    <linearGradient id="paint1_linear_2353_2016" x1="13.3333" y1="4.00535" x2="33.179" y2="28.5848"
      gradientUnits="userSpaceOnUse">
      <stop stop-color="white" stop-opacity="0.25" />
      <stop offset="1" stop-color="white" stop-opacity="0" />
    </linearGradient>
    <linearGradient id="paint2_linear_2353_2016" x1="31.5154" y1="14.7482" x2="12.2803" y2="17.7227"
      gradientUnits="userSpaceOnUse">
      <stop stop-color="white" />
      <stop offset="1" stop-color="white" stop-opacity="0.2" />
    </linearGradient>
    <linearGradient id="paint3_linear_2353_2016" x1="17.9169" y1="14.5093" x2="18.7211" y2="19.2327"
      gradientUnits="userSpaceOnUse">
      <stop stop-color="white" stop-opacity="0.25" />
      <stop offset="1" stop-color="white" stop-opacity="0" />
    </linearGradient>
  </defs>
</svg>