<svg width="120" height="120" viewBox="0 0 120 120" fill="none" xmlns="http://www.w3.org/2000/svg">
  <path
    d="M97.9935 22.1485L119.863 83.5114C120.457 85.1787 119.042 86.6615 117.234 86.6615L92.6145 86.6615C90.8063 86.6615 89.2621 85.1787 88.668 83.5114L66.7989 22.1485C66.2048 20.4828 67.6196 19.0001 69.4277 19.0001L94.047 19.0001C95.8552 19.0001 97.4059 20.4828 97.9935 22.1485Z"
    fill="url(#paint0_linear_3052_3866)" />
  <path
    d="M53.5366 22.3265L47.3417 51.9493C46.958 53.7801 48.1252 55.2775 49.9317 55.2775L71.6664 55.2775C73.4745 55.2775 75.2681 53.7801 75.6501 51.9493L81.5666 23.6587C82.3937 20.9684 84.7668 19.0195 87.5721 19L57.5203 19C55.7122 19 53.9186 20.4974 53.5366 22.3281L53.5366 22.3265Z"
    fill="url(#paint1_linear_3052_3866)" />
  <path
    d="M81.3693 63.0343C82.9038 29.2125 101.569 32.1894 101.569 32.1894L97.9921 22.1532C97.398 20.4875 95.8537 19.0048 94.0456 19.0048L87.5706 19.0048C84.7654 19.0242 82.3907 20.9715 81.5651 23.6635L76.301 48.8397L81.3612 63.0392L81.3693 63.0343Z"
    fill="url(#paint2_linear_3052_3866)" />
  <path
    d="M22.0065 97.1458L0.137402 35.7829C-0.456673 34.1156 0.959719 32.6328 2.76784 32.6328L27.3855 32.6328C29.1937 32.6328 30.7379 34.1156 31.332 35.7829L53.2011 97.1458C53.7952 98.8115 52.3804 100.296 50.5723 100.296L25.953 100.296C24.1448 100.296 22.6006 98.8131 22.0065 97.1458Z"
    fill="url(#paint3_linear_3052_3866)" />
  <path
    d="M66.4647 96.9662L72.6596 67.3433C73.0416 65.5126 71.8761 64.0152 70.0696 64.0152L48.3268 64.0152C46.5187 64.0152 44.7267 65.5126 44.3431 67.3433L38.4266 95.6356C37.5995 98.3275 35.2264 100.276 32.4211 100.296L62.4794 100.296C64.2891 100.296 66.0811 98.797 66.4647 96.9662Z"
    fill="url(#paint4_linear_3052_3866)" />
  <path
    d="M38.63 56.26C37.0954 90.0818 18.4298 87.105 18.4298 87.105L22.0072 97.1411C22.6013 98.8084 24.1456 100.291 25.9537 100.291L32.4205 100.291C35.2258 100.272 37.6005 98.3228 38.426 95.6309L43.6918 70.4596L38.63 56.26Z"
    fill="url(#paint5_linear_3052_3866)" />
  <defs>
    <linearGradient id="paint0_linear_3052_3866" x1="34.366" y1="110.737" x2="142.151" y2="4.88633"
      gradientUnits="userSpaceOnUse">
      <stop stop-color="#0131B9" />
      <stop offset="1" stop-color="#093DD2" />
    </linearGradient>
    <linearGradient id="paint1_linear_3052_3866" x1="67.4204" y1="55.2775" x2="67.4204" y2="19"
      gradientUnits="userSpaceOnUse">
      <stop stop-color="#0131B9" />
      <stop offset="1" stop-color="#6D24E1" />
    </linearGradient>
    <linearGradient id="paint2_linear_3052_3866" x1="96.2032" y1="36.068" x2="79.2585" y2="0.812294"
      gradientUnits="userSpaceOnUse">
      <stop stop-color="#022EAB" />
      <stop offset="1" stop-color="#5D87FC" />
    </linearGradient>
    <linearGradient id="paint3_linear_3052_3866" x1="-32.2954" y1="124.372" x2="75.4922" y2="18.5216"
      gradientUnits="userSpaceOnUse">
      <stop stop-color="#0131B9" />
      <stop offset="1" stop-color="#093DD2" />
    </linearGradient>
    <linearGradient id="paint4_linear_3052_3866" x1="52.5766" y1="100.296" x2="52.5766" y2="64.0152"
      gradientUnits="userSpaceOnUse">
      <stop stop-color="#0131B9" />
      <stop offset="1" stop-color="#6D24E1" />
    </linearGradient>
    <linearGradient id="paint5_linear_3052_3866" x1="38.3269" y1="73.322" x2="21.3815" y2="38.0713"
      gradientUnits="userSpaceOnUse">
      <stop stop-color="#022EAB" />
      <stop offset="1" stop-color="#5D87FC" />
    </linearGradient>
  </defs>
</svg>