<svg width="375" height="143" viewBox="0 0 375 143" fill="none" xmlns="http://www.w3.org/2000/svg">
  <g filter="url(#filter0_f_3033_3897)">
    <path
      d="M27.9961 45.4277C27.293 44.9238 26.8184 44.3145 26.5723 43.5996L27.9785 43.002C28.1777 43.541 28.5117 43.9746 28.9805 44.3027C29.4492 44.6309 30.0117 44.7949 30.668 44.7949C31.6055 44.7949 32.3379 44.5195 32.8652 43.9688C33.3926 43.4297 33.6562 42.6445 33.6562 41.6133V40.5938H33.5859C33.293 41.0508 32.8711 41.4316 32.3203 41.7363C31.7812 42.0293 31.1602 42.1758 30.457 42.1758C29.6602 42.1758 28.9336 41.9707 28.2773 41.5605C27.6328 41.1621 27.1172 40.5938 26.7305 39.8555C26.3438 39.1172 26.1504 38.2852 26.1504 37.3594C26.1504 36.4336 26.3438 35.6016 26.7305 34.8633C27.1289 34.1133 27.6445 33.5391 28.2773 33.1406C28.9336 32.7305 29.6602 32.5254 30.457 32.5254C31.1602 32.5254 31.7812 32.6719 32.3203 32.9648C32.8594 33.2578 33.2812 33.6504 33.5859 34.1426H33.6562V32.8242H35.1152V41.6484C35.1152 43.1133 34.7051 44.2383 33.8848 45.0234C33.0762 45.7969 32.0039 46.1836 30.668 46.1836C29.5781 46.1836 28.6875 45.9316 27.9961 45.4277ZM32.1621 40.3828C32.6191 40.1016 32.9824 39.7031 33.252 39.1875C33.5215 38.6719 33.6562 38.0625 33.6562 37.3594C33.6562 36.6328 33.5215 36.0117 33.252 35.4961C32.9824 34.9688 32.6191 34.5762 32.1621 34.3184C31.6934 34.0488 31.1953 33.9141 30.668 33.9141C30.1172 33.9141 29.6133 34.0547 29.1562 34.3359C28.6875 34.6289 28.3242 35.0215 28.0664 35.5137C27.7969 36.0293 27.6621 36.6445 27.6621 37.3594C27.6621 38.0508 27.7969 38.666 28.0664 39.2051C28.3242 39.7207 28.6875 40.1133 29.1562 40.3828C29.625 40.6523 30.1289 40.7871 30.668 40.7871C31.2305 40.7871 31.7285 40.6523 32.1621 40.3828ZM38.0859 41.3145C37.5 40.6582 37.207 39.75 37.207 38.5898V32.8242H38.7363V38.3613C38.7363 39.252 38.9355 39.8965 39.334 40.2949C39.7441 40.7051 40.2773 40.9102 40.9336 40.9102C41.4492 40.9102 41.9121 40.7695 42.3223 40.4883C42.709 40.2188 43.0195 39.8613 43.2539 39.416C43.4766 38.9824 43.5879 38.5137 43.5879 38.0098V32.8242H45.1172V42H43.6582V40.6641H43.5879C43.3535 41.1094 42.9492 41.4961 42.375 41.8242C41.8477 42.1289 41.2617 42.2812 40.6172 42.2812C39.5039 42.2812 38.6602 41.959 38.0859 41.3145ZM48.4219 41.8945C47.8828 41.625 47.4727 41.2617 47.1914 40.8047C46.9102 40.3477 46.7695 39.8203 46.7695 39.2227C46.7695 38.25 47.1328 37.4941 47.8594 36.9551C48.6094 36.4043 49.5352 36.1289 50.6367 36.1289C51.2109 36.1289 51.7266 36.1875 52.1836 36.3047C52.6523 36.4219 53.0098 36.5625 53.2559 36.7266V36.1641C53.2559 35.4961 53.0215 34.9512 52.5527 34.5293C52.084 34.1074 51.4746 33.8965 50.7246 33.8965C50.2207 33.8965 49.752 34.0078 49.3184 34.2305C48.8613 34.4648 48.5156 34.7754 48.2812 35.1621L47.1211 34.3008C47.4727 33.7617 47.9707 33.3281 48.6152 33C49.248 32.6836 49.9512 32.5254 50.7246 32.5254C51.9668 32.5254 52.9453 32.8535 53.6602 33.5098C54.3633 34.1543 54.7148 35.0449 54.7148 36.1816V42H53.2559V40.6816H53.1855C52.916 41.1387 52.5234 41.5195 52.0078 41.8242C51.5039 42.1289 50.9062 42.2812 50.2148 42.2812C49.5352 42.2812 48.9375 42.1523 48.4219 41.8945ZM51.8145 40.541C52.2598 40.2715 52.6113 39.9199 52.8691 39.4863C53.127 39.0527 53.2559 38.5664 53.2559 38.0273C52.9746 37.8398 52.623 37.6816 52.2012 37.5527C51.8027 37.4355 51.3574 37.377 50.8652 37.377C50.0215 37.377 49.3887 37.5527 48.9668 37.9043C48.5449 38.2559 48.334 38.7012 48.334 39.2402C48.334 39.7441 48.5273 40.1543 48.9141 40.4707C49.3008 40.7871 49.7871 40.9453 50.373 40.9453C50.8887 40.9453 51.3691 40.8105 51.8145 40.541ZM56.8418 32.8242H58.2832V34.3008H58.3711C58.5352 33.8086 58.8809 33.3926 59.4082 33.0527C59.9238 32.7129 60.4629 32.543 61.0254 32.543C61.4355 32.543 61.7988 32.6074 62.1152 32.7363V34.3887C61.7168 34.1895 61.2832 34.0898 60.8145 34.0898C60.3809 34.0898 59.9707 34.2188 59.584 34.4766C59.2207 34.7109 58.9219 35.0508 58.6875 35.4961C58.4766 35.8828 58.3711 36.3398 58.3711 36.8672V42H56.8418V32.8242ZM64.6992 41.666C64.043 41.2559 63.5215 40.6758 63.1348 39.9258C62.748 39.1875 62.5547 38.3496 62.5547 37.4121C62.5547 36.4863 62.748 35.6543 63.1348 34.916C63.5332 34.1543 64.0547 33.5684 64.6992 33.1582C65.3672 32.7363 66.1172 32.5254 66.9492 32.5254C67.6289 32.5254 68.25 32.6895 68.8125 33.0176C69.3867 33.3574 69.8086 33.75 70.0781 34.1953H70.1484L70.0781 32.9121V29.1152H71.6074V42H70.1484V40.6465H70.0781C69.8086 41.0918 69.3867 41.4785 68.8125 41.8066C68.2617 42.123 67.6406 42.2812 66.9492 42.2812C66.0938 42.2812 65.3438 42.0762 64.6992 41.666ZM68.6016 40.4707C69.0703 40.1895 69.4453 39.7793 69.7266 39.2402C70.0078 38.7129 70.1484 38.1035 70.1484 37.4121C70.1484 36.709 70.0078 36.0938 69.7266 35.5664C69.4453 35.0508 69.0703 34.6465 68.6016 34.3535C68.1211 34.0605 67.623 33.9141 67.1074 33.9141C66.6035 33.9141 66.1055 34.0605 65.6133 34.3535C65.1562 34.623 64.7812 35.0332 64.4883 35.584C64.207 36.1113 64.0664 36.7207 64.0664 37.4121C64.0664 38.1035 64.207 38.7129 64.4883 39.2402C64.7812 39.791 65.1562 40.2012 65.6133 40.4707C66.1055 40.7637 66.6035 40.9102 67.1074 40.9102C67.623 40.9102 68.1211 40.7637 68.6016 40.4707Z"
      fill="white" />
    <path
      d="M83.9961 45.4277C83.293 44.9238 82.8184 44.3145 82.5723 43.5996L83.9785 43.002C84.1777 43.541 84.5117 43.9746 84.9805 44.3027C85.4492 44.6309 86.0117 44.7949 86.668 44.7949C87.6055 44.7949 88.3379 44.5195 88.8652 43.9688C89.3926 43.4297 89.6562 42.6445 89.6562 41.6133V40.5938H89.5859C89.293 41.0508 88.8711 41.4316 88.3203 41.7363C87.7812 42.0293 87.1602 42.1758 86.457 42.1758C85.6602 42.1758 84.9336 41.9707 84.2773 41.5605C83.6328 41.1621 83.1172 40.5938 82.7305 39.8555C82.3438 39.1172 82.1504 38.2852 82.1504 37.3594C82.1504 36.4336 82.3438 35.6016 82.7305 34.8633C83.1289 34.1133 83.6445 33.5391 84.2773 33.1406C84.9336 32.7305 85.6602 32.5254 86.457 32.5254C87.1602 32.5254 87.7812 32.6719 88.3203 32.9648C88.8594 33.2578 89.2812 33.6504 89.5859 34.1426H89.6562V32.8242H91.1152V41.6484C91.1152 43.1133 90.7051 44.2383 89.8848 45.0234C89.0762 45.7969 88.0039 46.1836 86.668 46.1836C85.5781 46.1836 84.6875 45.9316 83.9961 45.4277ZM88.1621 40.3828C88.6191 40.1016 88.9824 39.7031 89.252 39.1875C89.5215 38.6719 89.6562 38.0625 89.6562 37.3594C89.6562 36.6328 89.5215 36.0117 89.252 35.4961C88.9824 34.9688 88.6191 34.5762 88.1621 34.3184C87.6934 34.0488 87.1953 33.9141 86.668 33.9141C86.1172 33.9141 85.6133 34.0547 85.1562 34.3359C84.6875 34.6289 84.3242 35.0215 84.0664 35.5137C83.7969 36.0293 83.6621 36.6445 83.6621 37.3594C83.6621 38.0508 83.7969 38.666 84.0664 39.2051C84.3242 39.7207 84.6875 40.1133 85.1562 40.3828C85.625 40.6523 86.1289 40.7871 86.668 40.7871C87.2305 40.7871 87.7285 40.6523 88.1621 40.3828ZM93.3828 32.8242H94.8242V34.3008H94.9121C95.0762 33.8086 95.4219 33.3926 95.9492 33.0527C96.4648 32.7129 97.0039 32.543 97.5664 32.543C97.9766 32.543 98.3398 32.6074 98.6562 32.7363V34.3887C98.2578 34.1895 97.8242 34.0898 97.3555 34.0898C96.9219 34.0898 96.5117 34.2188 96.125 34.4766C95.7617 34.7109 95.4629 35.0508 95.2285 35.4961C95.0176 35.8828 94.9121 36.3398 94.9121 36.8672V42H93.3828V32.8242ZM100.906 41.8945C100.367 41.625 99.957 41.2617 99.6758 40.8047C99.3945 40.3477 99.2539 39.8203 99.2539 39.2227C99.2539 38.25 99.6172 37.4941 100.344 36.9551C101.094 36.4043 102.02 36.1289 103.121 36.1289C103.695 36.1289 104.211 36.1875 104.668 36.3047C105.137 36.4219 105.494 36.5625 105.74 36.7266V36.1641C105.74 35.4961 105.506 34.9512 105.037 34.5293C104.568 34.1074 103.959 33.8965 103.209 33.8965C102.705 33.8965 102.236 34.0078 101.803 34.2305C101.346 34.4648 101 34.7754 100.766 35.1621L99.6055 34.3008C99.957 33.7617 100.455 33.3281 101.1 33C101.732 32.6836 102.436 32.5254 103.209 32.5254C104.451 32.5254 105.43 32.8535 106.145 33.5098C106.848 34.1543 107.199 35.0449 107.199 36.1816V42H105.74V40.6816H105.67C105.4 41.1387 105.008 41.5195 104.492 41.8242C103.988 42.1289 103.391 42.2812 102.699 42.2812C102.02 42.2812 101.422 42.1523 100.906 41.8945ZM104.299 40.541C104.744 40.2715 105.096 39.9199 105.354 39.4863C105.611 39.0527 105.74 38.5664 105.74 38.0273C105.459 37.8398 105.107 37.6816 104.686 37.5527C104.287 37.4355 103.842 37.377 103.35 37.377C102.506 37.377 101.873 37.5527 101.451 37.9043C101.029 38.2559 100.818 38.7012 100.818 39.2402C100.818 39.7441 101.012 40.1543 101.398 40.4707C101.785 40.7871 102.271 40.9453 102.857 40.9453C103.373 40.9453 103.854 40.8105 104.299 40.541ZM109.959 41.5957C109.326 41.1621 108.863 40.5703 108.57 39.8203L109.924 39.2051C110.158 39.7676 110.498 40.1953 110.943 40.4883C111.412 40.793 111.91 40.9453 112.438 40.9453C113.012 40.9453 113.504 40.8281 113.914 40.5938C114.324 40.3594 114.529 40.0254 114.529 39.5918C114.529 39.2051 114.365 38.8945 114.037 38.6602C113.732 38.4375 113.223 38.2383 112.508 38.0625L111.383 37.7637C110.656 37.5879 110.059 37.2832 109.59 36.8496C109.121 36.416 108.887 35.8594 108.887 35.1797C108.887 34.6641 109.045 34.2012 109.361 33.791C109.689 33.3809 110.111 33.0703 110.627 32.8594C111.189 32.6367 111.764 32.5254 112.35 32.5254C113.146 32.5254 113.861 32.7012 114.494 33.0527C115.115 33.3926 115.561 33.8789 115.83 34.5117L114.512 35.127C114.102 34.3066 113.375 33.8965 112.332 33.8965C111.84 33.8965 111.395 34.0137 110.996 34.248C110.621 34.4707 110.434 34.7695 110.434 35.1445C110.434 35.4727 110.568 35.7422 110.838 35.9531C111.107 36.1641 111.5 36.3398 112.016 36.4805L113.352 36.8145C114.266 37.0488 114.945 37.3887 115.391 37.834C115.848 38.291 116.076 38.8418 116.076 39.4863C116.076 40.0371 115.912 40.5293 115.584 40.9629C115.268 41.3848 114.828 41.7129 114.266 41.9473C113.738 42.1699 113.129 42.2812 112.438 42.2812C111.453 42.2812 110.627 42.0527 109.959 41.5957ZM118.467 41.5957C117.834 41.1621 117.371 40.5703 117.078 39.8203L118.432 39.2051C118.666 39.7676 119.006 40.1953 119.451 40.4883C119.92 40.793 120.418 40.9453 120.945 40.9453C121.52 40.9453 122.012 40.8281 122.422 40.5938C122.832 40.3594 123.037 40.0254 123.037 39.5918C123.037 39.2051 122.873 38.8945 122.545 38.6602C122.24 38.4375 121.73 38.2383 121.016 38.0625L119.891 37.7637C119.164 37.5879 118.566 37.2832 118.098 36.8496C117.629 36.416 117.395 35.8594 117.395 35.1797C117.395 34.6641 117.553 34.2012 117.869 33.791C118.197 33.3809 118.619 33.0703 119.135 32.8594C119.697 32.6367 120.271 32.5254 120.857 32.5254C121.654 32.5254 122.369 32.7012 123.002 33.0527C123.623 33.3926 124.068 33.8789 124.338 34.5117L123.02 35.127C122.609 34.3066 121.883 33.8965 120.84 33.8965C120.348 33.8965 119.902 34.0137 119.504 34.248C119.129 34.4707 118.941 34.7695 118.941 35.1445C118.941 35.4727 119.076 35.7422 119.346 35.9531C119.615 36.1641 120.008 36.3398 120.523 36.4805L121.859 36.8145C122.773 37.0488 123.453 37.3887 123.898 37.834C124.355 38.291 124.584 38.8418 124.584 39.4863C124.584 40.0371 124.42 40.5293 124.092 40.9629C123.775 41.3848 123.336 41.7129 122.773 41.9473C122.246 42.1699 121.637 42.2812 120.945 42.2812C119.961 42.2812 119.135 42.0527 118.467 41.5957Z"
      fill="white" />
    <path
      d="M134.643 32.8242H136.084V34.3008H136.172C136.336 33.8086 136.682 33.3926 137.209 33.0527C137.725 32.7129 138.264 32.543 138.826 32.543C139.236 32.543 139.6 32.6074 139.916 32.7363V34.3887C139.518 34.1895 139.084 34.0898 138.615 34.0898C138.182 34.0898 137.771 34.2188 137.385 34.4766C137.021 34.7109 136.723 35.0508 136.488 35.4961C136.277 35.8828 136.172 36.3398 136.172 36.8672V42H134.643V32.8242ZM142.641 41.6484C141.926 41.2148 141.363 40.623 140.953 39.873C140.555 39.1465 140.355 38.3262 140.355 37.4121C140.355 36.498 140.555 35.6777 140.953 34.9512C141.363 34.2012 141.926 33.6094 142.641 33.1758C143.355 32.7422 144.164 32.5254 145.066 32.5254C145.969 32.5254 146.777 32.7422 147.492 33.1758C148.207 33.6094 148.77 34.2012 149.18 34.9512C149.578 35.6777 149.777 36.498 149.777 37.4121C149.777 38.3262 149.578 39.1465 149.18 39.873C148.77 40.623 148.207 41.2148 147.492 41.6484C146.801 42.0703 145.992 42.2812 145.066 42.2812C144.141 42.2812 143.332 42.0703 142.641 41.6484ZM146.648 40.4707C147.117 40.2012 147.504 39.7969 147.809 39.2578C148.102 38.7422 148.248 38.127 148.248 37.4121C148.248 36.6855 148.102 36.0645 147.809 35.5488C147.504 35.0098 147.117 34.6055 146.648 34.3359C146.156 34.0547 145.629 33.9141 145.066 33.9141C144.504 33.9141 143.977 34.0547 143.484 34.3359C143.004 34.6172 142.611 35.0215 142.307 35.5488C142.014 36.0645 141.867 36.6855 141.867 37.4121C141.867 38.127 142.014 38.7422 142.307 39.2578C142.611 39.7852 143.004 40.1895 143.484 40.4707C144 40.7637 144.527 40.9102 145.066 40.9102C145.605 40.9102 146.133 40.7637 146.648 40.4707ZM153.363 41.6484C152.648 41.2148 152.086 40.623 151.676 39.873C151.277 39.1465 151.078 38.3262 151.078 37.4121C151.078 36.498 151.277 35.6777 151.676 34.9512C152.086 34.2012 152.648 33.6094 153.363 33.1758C154.078 32.7422 154.887 32.5254 155.789 32.5254C156.691 32.5254 157.5 32.7422 158.215 33.1758C158.93 33.6094 159.492 34.2012 159.902 34.9512C160.301 35.6777 160.5 36.498 160.5 37.4121C160.5 38.3262 160.301 39.1465 159.902 39.873C159.492 40.623 158.93 41.2148 158.215 41.6484C157.523 42.0703 156.715 42.2812 155.789 42.2812C154.863 42.2812 154.055 42.0703 153.363 41.6484ZM157.371 40.4707C157.84 40.2012 158.227 39.7969 158.531 39.2578C158.824 38.7422 158.971 38.127 158.971 37.4121C158.971 36.6855 158.824 36.0645 158.531 35.5488C158.227 35.0098 157.84 34.6055 157.371 34.3359C156.879 34.0547 156.352 33.9141 155.789 33.9141C155.227 33.9141 154.699 34.0547 154.207 34.3359C153.727 34.6172 153.334 35.0215 153.029 35.5488C152.736 36.0645 152.59 36.6855 152.59 37.4121C152.59 38.127 152.736 38.7422 153.029 39.2578C153.334 39.7852 153.727 40.1895 154.207 40.4707C154.723 40.7637 155.25 40.9102 155.789 40.9102C156.328 40.9102 156.855 40.7637 157.371 40.4707ZM162.117 32.8242H163.559V34.1777H163.646C163.904 33.709 164.297 33.3164 164.824 33C165.352 32.6836 165.908 32.5254 166.494 32.5254C167.15 32.5254 167.736 32.6895 168.252 33.0176C168.756 33.3457 169.113 33.7793 169.324 34.3184C169.641 33.7793 170.068 33.3457 170.607 33.0176C171.158 32.6895 171.779 32.5254 172.471 32.5254C173.537 32.5254 174.334 32.8477 174.861 33.4922C175.4 34.1602 175.67 35.0332 175.67 36.1113V42H174.158V36.3398C174.158 35.4961 173.982 34.8809 173.631 34.4941C173.279 34.1074 172.764 33.9141 172.084 33.9141C171.627 33.9141 171.211 34.0488 170.836 34.3184C170.461 34.5879 170.168 34.9395 169.957 35.373C169.758 35.7832 169.658 36.2637 169.658 36.8145V42H168.129V36.3574C168.129 35.502 167.953 34.8809 167.602 34.4941C167.25 34.1074 166.74 33.9141 166.072 33.9141C165.615 33.9141 165.199 34.0488 164.824 34.3184C164.449 34.5879 164.156 34.9512 163.945 35.4082C163.746 35.8418 163.646 36.3223 163.646 36.8496V42H162.117V32.8242Z"
      fill="white" />
    <path
      d="M187.363 41.5957C186.73 41.1621 186.268 40.5703 185.975 39.8203L187.328 39.2051C187.562 39.7676 187.902 40.1953 188.348 40.4883C188.816 40.793 189.314 40.9453 189.842 40.9453C190.416 40.9453 190.908 40.8281 191.318 40.5938C191.729 40.3594 191.934 40.0254 191.934 39.5918C191.934 39.2051 191.77 38.8945 191.441 38.6602C191.137 38.4375 190.627 38.2383 189.912 38.0625L188.787 37.7637C188.061 37.5879 187.463 37.2832 186.994 36.8496C186.525 36.416 186.291 35.8594 186.291 35.1797C186.291 34.6641 186.449 34.2012 186.766 33.791C187.094 33.3809 187.516 33.0703 188.031 32.8594C188.594 32.6367 189.168 32.5254 189.754 32.5254C190.551 32.5254 191.266 32.7012 191.898 33.0527C192.52 33.3926 192.965 33.8789 193.234 34.5117L191.916 35.127C191.506 34.3066 190.779 33.8965 189.736 33.8965C189.244 33.8965 188.799 34.0137 188.4 34.248C188.025 34.4707 187.838 34.7695 187.838 35.1445C187.838 35.4727 187.973 35.7422 188.242 35.9531C188.512 36.1641 188.904 36.3398 189.42 36.4805L190.756 36.8145C191.67 37.0488 192.35 37.3887 192.795 37.834C193.252 38.291 193.48 38.8418 193.48 39.4863C193.48 40.0371 193.316 40.5293 192.988 40.9629C192.672 41.3848 192.232 41.7129 191.67 41.9473C191.143 42.1699 190.533 42.2812 189.842 42.2812C188.857 42.2812 188.031 42.0527 187.363 41.5957ZM197.541 41.9648C197.213 41.8359 196.949 41.6719 196.75 41.4727C196.27 41.0156 196.029 40.3887 196.029 39.5918V34.2129H194.43V32.8242H196.029V30.2227H197.559V32.8242H199.809V34.2129H197.559V39.2051C197.559 39.7207 197.652 40.0957 197.84 40.3301C198.062 40.5879 198.396 40.7168 198.842 40.7168C199.229 40.7168 199.562 40.6172 199.844 40.418V41.9121C199.68 41.9941 199.498 42.0527 199.299 42.0879C199.111 42.123 198.871 42.1406 198.578 42.1406C198.191 42.1406 197.846 42.082 197.541 41.9648ZM202.428 41.3145C201.842 40.6582 201.549 39.75 201.549 38.5898V32.8242H203.078V38.3613C203.078 39.252 203.277 39.8965 203.676 40.2949C204.086 40.7051 204.619 40.9102 205.275 40.9102C205.791 40.9102 206.254 40.7695 206.664 40.4883C207.051 40.2188 207.361 39.8613 207.596 39.416C207.818 38.9824 207.93 38.5137 207.93 38.0098V32.8242H209.459V42H208V40.6641H207.93C207.695 41.1094 207.291 41.4961 206.717 41.8242C206.189 42.1289 205.604 42.2812 204.959 42.2812C203.846 42.2812 203.002 41.959 202.428 41.3145ZM213.291 41.666C212.635 41.2559 212.113 40.6758 211.727 39.9258C211.34 39.1875 211.146 38.3496 211.146 37.4121C211.146 36.4863 211.34 35.6543 211.727 34.916C212.125 34.1543 212.646 33.5684 213.291 33.1582C213.959 32.7363 214.709 32.5254 215.541 32.5254C216.221 32.5254 216.842 32.6895 217.404 33.0176C217.979 33.3574 218.4 33.75 218.67 34.1953H218.74L218.67 32.9121V29.1152H220.199V42H218.74V40.6465H218.67C218.4 41.0918 217.979 41.4785 217.404 41.8066C216.854 42.123 216.232 42.2812 215.541 42.2812C214.686 42.2812 213.936 42.0762 213.291 41.666ZM217.193 40.4707C217.662 40.1895 218.037 39.7793 218.318 39.2402C218.6 38.7129 218.74 38.1035 218.74 37.4121C218.74 36.709 218.6 36.0938 218.318 35.5664C218.037 35.0508 217.662 34.6465 217.193 34.3535C216.713 34.0605 216.215 33.9141 215.699 33.9141C215.195 33.9141 214.697 34.0605 214.205 34.3535C213.748 34.623 213.373 35.0332 213.08 35.584C212.799 36.1113 212.658 36.7207 212.658 37.4121C212.658 38.1035 212.799 38.7129 213.08 39.2402C213.373 39.791 213.748 40.2012 214.205 40.4707C214.697 40.7637 215.195 40.9102 215.699 40.9102C216.215 40.9102 216.713 40.7637 217.193 40.4707ZM224.102 41.666C223.398 41.2441 222.854 40.6641 222.467 39.9258C222.08 39.1875 221.887 38.3555 221.887 37.4297C221.887 36.5391 222.068 35.7246 222.432 34.9863C222.807 34.2246 223.328 33.627 223.996 33.1934C224.688 32.748 225.467 32.5254 226.334 32.5254C227.213 32.5254 227.992 32.7305 228.672 33.1406C229.328 33.5391 229.832 34.0898 230.184 34.793C230.547 35.5195 230.729 36.334 230.729 37.2363C230.729 37.3066 230.717 37.459 230.693 37.6934H223.416C223.451 38.3965 223.621 38.9883 223.926 39.4688C224.219 39.9258 224.6 40.2832 225.068 40.541C225.525 40.7871 226.006 40.9102 226.51 40.9102C227.705 40.9102 228.613 40.3535 229.234 39.2402L230.518 39.873C230.131 40.6113 229.598 41.1973 228.918 41.6309C228.238 42.0645 227.418 42.2812 226.457 42.2812C225.566 42.2812 224.781 42.0762 224.102 41.666ZM229.094 36.4453C229.082 36.0586 228.977 35.6719 228.777 35.2852C228.59 34.9102 228.291 34.5879 227.881 34.3184C227.471 34.0488 226.955 33.9141 226.334 33.9141C225.631 33.9141 225.016 34.1484 224.488 34.6172C223.996 35.0625 223.668 35.6719 223.504 36.4453H229.094ZM232.504 32.8242H233.945V34.1777H234.033C234.279 33.7207 234.678 33.334 235.229 33.0176C235.791 32.6895 236.383 32.5254 237.004 32.5254C238.105 32.5254 238.943 32.8477 239.518 33.4922C240.104 34.1484 240.396 35.0215 240.396 36.1113V42H238.867V36.3398C238.867 35.4961 238.662 34.8809 238.252 34.4941C237.854 34.1074 237.297 33.9141 236.582 33.9141C236.09 33.9141 235.65 34.0547 235.264 34.3359C234.854 34.6406 234.549 35.0039 234.35 35.4258C234.139 35.8828 234.033 36.3516 234.033 36.832V42H232.504V32.8242ZM244.615 41.9648C244.287 41.8359 244.023 41.6719 243.824 41.4727C243.344 41.0156 243.104 40.3887 243.104 39.5918V34.2129H241.504V32.8242H243.104V30.2227H244.633V32.8242H246.883V34.2129H244.633V39.2051C244.633 39.7207 244.727 40.0957 244.914 40.3301C245.137 40.5879 245.471 40.7168 245.916 40.7168C246.303 40.7168 246.637 40.6172 246.918 40.418V41.9121C246.754 41.9941 246.572 42.0527 246.373 42.0879C246.186 42.123 245.945 42.1406 245.652 42.1406C245.266 42.1406 244.92 42.082 244.615 41.9648Z"
      fill="white" />
    <path
      d="M257.643 29.1152H259.172V32.9121L259.084 34.1777H259.172C259.406 33.7207 259.805 33.3281 260.367 33C260.906 32.6836 261.504 32.5254 262.16 32.5254C263.273 32.5254 264.123 32.8535 264.709 33.5098C265.295 34.166 265.588 35.0332 265.588 36.1113V42H264.059V36.3398C264.059 35.5195 263.848 34.9102 263.426 34.5117C263.016 34.1133 262.471 33.9141 261.791 33.9141C261.334 33.9141 260.895 34.0605 260.473 34.3535C260.074 34.6348 259.758 35.0039 259.523 35.4609C259.289 35.9297 259.172 36.4043 259.172 36.8848V42H257.643V29.1152ZM269.578 41.6484C268.863 41.2148 268.301 40.623 267.891 39.873C267.492 39.1465 267.293 38.3262 267.293 37.4121C267.293 36.498 267.492 35.6777 267.891 34.9512C268.301 34.2012 268.863 33.6094 269.578 33.1758C270.293 32.7422 271.102 32.5254 272.004 32.5254C272.906 32.5254 273.715 32.7422 274.43 33.1758C275.145 33.6094 275.707 34.2012 276.117 34.9512C276.516 35.6777 276.715 36.498 276.715 37.4121C276.715 38.3262 276.516 39.1465 276.117 39.873C275.707 40.623 275.145 41.2148 274.43 41.6484C273.738 42.0703 272.93 42.2812 272.004 42.2812C271.078 42.2812 270.27 42.0703 269.578 41.6484ZM273.586 40.4707C274.055 40.2012 274.441 39.7969 274.746 39.2578C275.039 38.7422 275.186 38.127 275.186 37.4121C275.186 36.6855 275.039 36.0645 274.746 35.5488C274.441 35.0098 274.055 34.6055 273.586 34.3359C273.094 34.0547 272.566 33.9141 272.004 33.9141C271.441 33.9141 270.914 34.0547 270.422 34.3359C269.941 34.6172 269.549 35.0215 269.244 35.5488C268.951 36.0645 268.805 36.6855 268.805 37.4121C268.805 38.127 268.951 38.7422 269.244 39.2578C269.549 39.7852 269.941 40.1895 270.422 40.4707C270.938 40.7637 271.465 40.9102 272.004 40.9102C272.543 40.9102 273.07 40.7637 273.586 40.4707ZM278.332 32.8242H279.773V34.1777H279.861C280.107 33.7207 280.506 33.334 281.057 33.0176C281.619 32.6895 282.211 32.5254 282.832 32.5254C283.934 32.5254 284.771 32.8477 285.346 33.4922C285.932 34.1484 286.225 35.0215 286.225 36.1113V42H284.695V36.3398C284.695 35.4961 284.49 34.8809 284.08 34.4941C283.682 34.1074 283.125 33.9141 282.41 33.9141C281.918 33.9141 281.479 34.0547 281.092 34.3359C280.682 34.6406 280.377 35.0039 280.178 35.4258C279.967 35.8828 279.861 36.3516 279.861 36.832V42H278.332V32.8242ZM290.145 41.666C289.441 41.2441 288.896 40.6641 288.51 39.9258C288.123 39.1875 287.93 38.3555 287.93 37.4297C287.93 36.5391 288.111 35.7246 288.475 34.9863C288.85 34.2246 289.371 33.627 290.039 33.1934C290.73 32.748 291.51 32.5254 292.377 32.5254C293.256 32.5254 294.035 32.7305 294.715 33.1406C295.371 33.5391 295.875 34.0898 296.227 34.793C296.59 35.5195 296.771 36.334 296.771 37.2363C296.771 37.3066 296.76 37.459 296.736 37.6934H289.459C289.494 38.3965 289.664 38.9883 289.969 39.4688C290.262 39.9258 290.643 40.2832 291.111 40.541C291.568 40.7871 292.049 40.9102 292.553 40.9102C293.748 40.9102 294.656 40.3535 295.277 39.2402L296.561 39.873C296.174 40.6113 295.641 41.1973 294.961 41.6309C294.281 42.0645 293.461 42.2812 292.5 42.2812C291.609 42.2812 290.824 42.0762 290.145 41.666ZM295.137 36.4453C295.125 36.0586 295.02 35.6719 294.82 35.2852C294.633 34.9102 294.334 34.5879 293.924 34.3184C293.514 34.0488 292.998 33.9141 292.377 33.9141C291.674 33.9141 291.059 34.1484 290.531 34.6172C290.039 35.0625 289.711 35.6719 289.547 36.4453H295.137ZM301.166 41.4199L297.369 32.8242H299.021L301.904 39.6445H301.939L304.717 32.8242H306.369L300.709 45.8848H299.127L301.166 41.4199Z"
      fill="white" />
    <path
      d="M319.42 41.8066C318.881 41.502 318.465 41.1152 318.172 40.6465H318.084V42H316.643V29.1152H318.172V32.9121L318.084 34.1953H318.172C318.453 33.7148 318.869 33.3223 319.42 33.0176C320.006 32.6895 320.633 32.5254 321.301 32.5254C322.121 32.5254 322.865 32.7363 323.533 33.1582C324.189 33.5801 324.717 34.166 325.115 34.916C325.502 35.6543 325.695 36.4863 325.695 37.4121C325.695 38.3496 325.502 39.1875 325.115 39.9258C324.729 40.6641 324.201 41.2441 323.533 41.666C322.889 42.0762 322.145 42.2812 321.301 42.2812C320.609 42.2812 319.982 42.123 319.42 41.8066ZM322.637 40.4707C323.082 40.2129 323.451 39.8027 323.744 39.2402C324.025 38.7129 324.166 38.1035 324.166 37.4121C324.166 36.709 324.025 36.0938 323.744 35.5664C323.451 35.0273 323.082 34.623 322.637 34.3535C322.145 34.0605 321.646 33.9141 321.143 33.9141C320.615 33.9141 320.111 34.0605 319.631 34.3535C319.174 34.6348 318.805 35.0391 318.523 35.5664C318.23 36.1172 318.084 36.7324 318.084 37.4121C318.084 38.0801 318.23 38.6895 318.523 39.2402C318.816 39.7793 319.186 40.1895 319.631 40.4707C320.111 40.7637 320.615 40.9102 321.143 40.9102C321.646 40.9102 322.145 40.7637 322.637 40.4707ZM328.279 31.1367C327.986 31.1367 327.729 31.0254 327.506 30.8027C327.283 30.5801 327.172 30.3223 327.172 30.0293C327.172 29.7246 327.283 29.4609 327.506 29.2383C327.705 29.0391 327.963 28.9395 328.279 28.9395C328.596 28.9395 328.854 29.0391 329.053 29.2383C329.264 29.4492 329.369 29.7129 329.369 30.0293C329.369 30.334 329.264 30.5918 329.053 30.8027C328.83 31.0254 328.572 31.1367 328.279 31.1367ZM327.523 32.8242H329.053V42H327.523V32.8242ZM331.443 29.1152H332.973V37.2188L337.279 32.8242H339.23V32.8945L335.627 36.5332L339.336 41.9297V42H337.508L334.555 37.5879L332.973 39.1699V42H331.443V29.1152ZM341.99 41.666C341.287 41.2441 340.742 40.6641 340.355 39.9258C339.969 39.1875 339.775 38.3555 339.775 37.4297C339.775 36.5391 339.957 35.7246 340.32 34.9863C340.695 34.2246 341.217 33.627 341.885 33.1934C342.576 32.748 343.355 32.5254 344.223 32.5254C345.102 32.5254 345.881 32.7305 346.561 33.1406C347.217 33.5391 347.721 34.0898 348.072 34.793C348.436 35.5195 348.617 36.334 348.617 37.2363C348.617 37.3066 348.605 37.459 348.582 37.6934H341.305C341.34 38.3965 341.51 38.9883 341.814 39.4688C342.107 39.9258 342.488 40.2832 342.957 40.541C343.414 40.7871 343.895 40.9102 344.398 40.9102C345.594 40.9102 346.502 40.3535 347.123 39.2402L348.406 39.873C348.02 40.6113 347.486 41.1973 346.807 41.6309C346.127 42.0645 345.307 42.2812 344.346 42.2812C343.455 42.2812 342.67 42.0762 341.99 41.666ZM346.982 36.4453C346.971 36.0586 346.865 35.6719 346.666 35.2852C346.479 34.9102 346.18 34.5879 345.77 34.3184C345.359 34.0488 344.844 33.9141 344.223 33.9141C343.52 33.9141 342.904 34.1484 342.377 34.6172C341.885 35.0625 341.557 35.6719 341.393 36.4453H346.982Z"
      fill="white" />
    <path
      d="M27.7676 77.8945C27.2285 77.625 26.8184 77.2617 26.5371 76.8047C26.2559 76.3477 26.1152 75.8203 26.1152 75.2227C26.1152 74.25 26.4785 73.4941 27.2051 72.9551C27.9551 72.4043 28.8809 72.1289 29.9824 72.1289C30.5566 72.1289 31.0723 72.1875 31.5293 72.3047C31.998 72.4219 32.3555 72.5625 32.6016 72.7266V72.1641C32.6016 71.4961 32.3672 70.9512 31.8984 70.5293C31.4297 70.1074 30.8203 69.8965 30.0703 69.8965C29.5664 69.8965 29.0977 70.0078 28.6641 70.2305C28.207 70.4648 27.8613 70.7754 27.627 71.1621L26.4668 70.3008C26.8184 69.7617 27.3164 69.3281 27.9609 69C28.5938 68.6836 29.2969 68.5254 30.0703 68.5254C31.3125 68.5254 32.291 68.8535 33.0059 69.5098C33.709 70.1543 34.0605 71.0449 34.0605 72.1816V78H32.6016V76.6816H32.5312C32.2617 77.1387 31.8691 77.5195 31.3535 77.8242C30.8496 78.1289 30.252 78.2812 29.5605 78.2812C28.8809 78.2812 28.2832 78.1523 27.7676 77.8945ZM31.1602 76.541C31.6055 76.2715 31.957 75.9199 32.2148 75.4863C32.4727 75.0527 32.6016 74.5664 32.6016 74.0273C32.3203 73.8398 31.9688 73.6816 31.5469 73.5527C31.1484 73.4355 30.7031 73.377 30.2109 73.377C29.3672 73.377 28.7344 73.5527 28.3125 73.9043C27.8906 74.2559 27.6797 74.7012 27.6797 75.2402C27.6797 75.7441 27.873 76.1543 28.2598 76.4707C28.6465 76.7871 29.1328 76.9453 29.7188 76.9453C30.2344 76.9453 30.7148 76.8105 31.1602 76.541ZM37.084 67.1367C36.791 67.1367 36.5332 67.0254 36.3105 66.8027C36.0879 66.5801 35.9766 66.3223 35.9766 66.0293C35.9766 65.7246 36.0879 65.4609 36.3105 65.2383C36.5098 65.0391 36.7676 64.9395 37.084 64.9395C37.4004 64.9395 37.6582 65.0391 37.8574 65.2383C38.0684 65.4492 38.1738 65.7129 38.1738 66.0293C38.1738 66.334 38.0684 66.5918 37.8574 66.8027C37.6348 67.0254 37.377 67.1367 37.084 67.1367ZM36.3281 68.8242H37.8574V78H36.3281V68.8242ZM40.248 68.8242H41.6895V70.3008H41.7773C41.9414 69.8086 42.2871 69.3926 42.8145 69.0527C43.3301 68.7129 43.8691 68.543 44.4316 68.543C44.8418 68.543 45.2051 68.6074 45.5215 68.7363V70.3887C45.123 70.1895 44.6895 70.0898 44.2207 70.0898C43.7871 70.0898 43.377 70.2188 42.9902 70.4766C42.627 70.7109 42.3281 71.0508 42.0938 71.4961C41.8828 71.8828 41.7773 72.3398 41.7773 72.8672V78H40.248V68.8242ZM46.9102 68.8242H48.3691V70.1953H48.4395C48.7207 69.7266 49.1426 69.334 49.7051 69.0176C50.291 68.6895 50.918 68.5254 51.5859 68.5254C52.4062 68.5254 53.1504 68.7363 53.8184 69.1582C54.4746 69.5801 55.002 70.166 55.4004 70.916C55.7754 71.6309 55.9629 72.4629 55.9629 73.4121C55.9629 74.373 55.7754 75.2109 55.4004 75.9258C55.0137 76.6641 54.4863 77.2441 53.8184 77.666C53.1738 78.0762 52.4297 78.2812 51.5859 78.2812C50.8945 78.2812 50.2676 78.123 49.7051 77.8066C49.1426 77.4902 48.7207 77.1035 48.4395 76.6465H48.3691L48.4395 77.9121V81.8848H46.9102V68.8242ZM52.9043 76.4707C53.3613 76.2012 53.7363 75.791 54.0293 75.2402C54.2988 74.7363 54.4336 74.127 54.4336 73.4121C54.4336 72.6855 54.2988 72.0703 54.0293 71.5664C53.748 71.0391 53.373 70.6348 52.9043 70.3535C52.4121 70.0605 51.9141 69.9141 51.4102 69.9141C50.8945 69.9141 50.3965 70.0605 49.916 70.3535C49.4473 70.6465 49.0723 71.0508 48.791 71.5664C48.5098 72.0938 48.3691 72.709 48.3691 73.4121C48.3691 74.1035 48.5098 74.7129 48.791 75.2402C49.0723 75.7793 49.4473 76.1895 49.916 76.4707C50.3965 76.7637 50.8945 76.9102 51.4102 76.9102C51.9141 76.9102 52.4121 76.7637 52.9043 76.4707ZM57.5801 65.1152H59.1094V78H57.5801V65.1152ZM62.4141 77.8945C61.875 77.625 61.4648 77.2617 61.1836 76.8047C60.9023 76.3477 60.7617 75.8203 60.7617 75.2227C60.7617 74.25 61.125 73.4941 61.8516 72.9551C62.6016 72.4043 63.5273 72.1289 64.6289 72.1289C65.2031 72.1289 65.7188 72.1875 66.1758 72.3047C66.6445 72.4219 67.002 72.5625 67.248 72.7266V72.1641C67.248 71.4961 67.0137 70.9512 66.5449 70.5293C66.0762 70.1074 65.4668 69.8965 64.7168 69.8965C64.2129 69.8965 63.7441 70.0078 63.3105 70.2305C62.8535 70.4648 62.5078 70.7754 62.2734 71.1621L61.1133 70.3008C61.4648 69.7617 61.9629 69.3281 62.6074 69C63.2402 68.6836 63.9434 68.5254 64.7168 68.5254C65.959 68.5254 66.9375 68.8535 67.6523 69.5098C68.3555 70.1543 68.707 71.0449 68.707 72.1816V78H67.248V76.6816H67.1777C66.9082 77.1387 66.5156 77.5195 66 77.8242C65.4961 78.1289 64.8984 78.2812 64.207 78.2812C63.5273 78.2812 62.9297 78.1523 62.4141 77.8945ZM65.8066 76.541C66.252 76.2715 66.6035 75.9199 66.8613 75.4863C67.1191 75.0527 67.248 74.5664 67.248 74.0273C66.9668 73.8398 66.6152 73.6816 66.1934 73.5527C65.7949 73.4355 65.3496 73.377 64.8574 73.377C64.0137 73.377 63.3809 73.5527 62.959 73.9043C62.5371 74.2559 62.3262 74.7012 62.3262 75.2402C62.3262 75.7441 62.5195 76.1543 62.9062 76.4707C63.293 76.7871 63.7793 76.9453 64.3652 76.9453C64.8809 76.9453 65.3613 76.8105 65.8066 76.541ZM70.834 68.8242H72.2754V70.1777H72.3633C72.6094 69.7207 73.0078 69.334 73.5586 69.0176C74.1211 68.6895 74.7129 68.5254 75.334 68.5254C76.4355 68.5254 77.2734 68.8477 77.8477 69.4922C78.4336 70.1484 78.7266 71.0215 78.7266 72.1113V78H77.1973V72.3398C77.1973 71.4961 76.9922 70.8809 76.582 70.4941C76.1836 70.1074 75.627 69.9141 74.9121 69.9141C74.4199 69.9141 73.9805 70.0547 73.5938 70.3359C73.1836 70.6406 72.8789 71.0039 72.6797 71.4258C72.4688 71.8828 72.3633 72.3516 72.3633 72.832V78H70.834V68.8242ZM82.6465 77.666C81.9434 77.2441 81.3984 76.6641 81.0117 75.9258C80.625 75.1875 80.4316 74.3555 80.4316 73.4297C80.4316 72.5391 80.6133 71.7246 80.9766 70.9863C81.3516 70.2246 81.873 69.627 82.541 69.1934C83.2324 68.748 84.0117 68.5254 84.8789 68.5254C85.7578 68.5254 86.5371 68.7305 87.2168 69.1406C87.873 69.5391 88.377 70.0898 88.7285 70.793C89.0918 71.5195 89.2734 72.334 89.2734 73.2363C89.2734 73.3066 89.2617 73.459 89.2383 73.6934H81.9609C81.9961 74.3965 82.166 74.9883 82.4707 75.4688C82.7637 75.9258 83.1445 76.2832 83.6133 76.541C84.0703 76.7871 84.5508 76.9102 85.0547 76.9102C86.25 76.9102 87.1582 76.3535 87.7793 75.2402L89.0625 75.873C88.6758 76.6113 88.1426 77.1973 87.4629 77.6309C86.7832 78.0645 85.9629 78.2812 85.002 78.2812C84.1113 78.2812 83.3262 78.0762 82.6465 77.666ZM87.6387 72.4453C87.627 72.0586 87.5215 71.6719 87.3223 71.2852C87.1348 70.9102 86.8359 70.5879 86.4258 70.3184C86.0156 70.0488 85.5 69.9141 84.8789 69.9141C84.1758 69.9141 83.5605 70.1484 83.0332 70.6172C82.541 71.0625 82.2129 71.6719 82.0488 72.4453H87.6387Z"
      fill="white" />
    <path
      d="M100.363 77.5957C99.7305 77.1621 99.2676 76.5703 98.9746 75.8203L100.328 75.2051C100.562 75.7676 100.902 76.1953 101.348 76.4883C101.816 76.793 102.314 76.9453 102.842 76.9453C103.416 76.9453 103.908 76.8281 104.318 76.5938C104.729 76.3594 104.934 76.0254 104.934 75.5918C104.934 75.2051 104.77 74.8945 104.441 74.6602C104.137 74.4375 103.627 74.2383 102.912 74.0625L101.787 73.7637C101.061 73.5879 100.463 73.2832 99.9941 72.8496C99.5254 72.416 99.291 71.8594 99.291 71.1797C99.291 70.6641 99.4492 70.2012 99.7656 69.791C100.094 69.3809 100.516 69.0703 101.031 68.8594C101.594 68.6367 102.168 68.5254 102.754 68.5254C103.551 68.5254 104.266 68.7012 104.898 69.0527C105.52 69.3926 105.965 69.8789 106.234 70.5117L104.916 71.127C104.506 70.3066 103.779 69.8965 102.736 69.8965C102.244 69.8965 101.799 70.0137 101.4 70.248C101.025 70.4707 100.838 70.7695 100.838 71.1445C100.838 71.4727 100.973 71.7422 101.242 71.9531C101.512 72.1641 101.904 72.3398 102.42 72.4805L103.756 72.8145C104.67 73.0488 105.35 73.3887 105.795 73.834C106.252 74.291 106.48 74.8418 106.48 75.4863C106.48 76.0371 106.316 76.5293 105.988 76.9629C105.672 77.3848 105.232 77.7129 104.67 77.9473C104.143 78.1699 103.533 78.2812 102.842 78.2812C101.857 78.2812 101.031 78.0527 100.363 77.5957ZM109.996 77.6484C109.305 77.2266 108.754 76.6465 108.344 75.9082C107.945 75.1816 107.746 74.3496 107.746 73.4121C107.746 72.4746 107.945 71.6426 108.344 70.916C108.766 70.1543 109.316 69.5684 109.996 69.1582C110.699 68.7363 111.496 68.5254 112.387 68.5254C113.359 68.5254 114.197 68.7598 114.9 69.2285C115.58 69.6855 116.061 70.3008 116.342 71.0742L114.953 71.6543C114.719 71.0684 114.385 70.6348 113.951 70.3535C113.506 70.0605 112.961 69.9141 112.316 69.9141C111.777 69.9141 111.273 70.0605 110.805 70.3535C110.336 70.6465 109.961 71.0566 109.68 71.584C109.398 72.1113 109.258 72.7207 109.258 73.4121C109.258 74.0918 109.398 74.6953 109.68 75.2227C109.961 75.75 110.336 76.1602 110.805 76.4531C111.285 76.7578 111.789 76.9102 112.316 76.9102C112.949 76.9102 113.506 76.7578 113.986 76.4531C114.455 76.1602 114.807 75.7324 115.041 75.1699L116.395 75.75C116.078 76.5 115.58 77.1094 114.9 77.5781C114.221 78.0469 113.383 78.2812 112.387 78.2812C111.496 78.2812 110.699 78.0703 109.996 77.6484ZM118.961 67.1367C118.668 67.1367 118.41 67.0254 118.188 66.8027C117.965 66.5801 117.854 66.3223 117.854 66.0293C117.854 65.7246 117.965 65.4609 118.188 65.2383C118.387 65.0391 118.645 64.9395 118.961 64.9395C119.277 64.9395 119.535 65.0391 119.734 65.2383C119.945 65.4492 120.051 65.7129 120.051 66.0293C120.051 66.334 119.945 66.5918 119.734 66.8027C119.512 67.0254 119.254 67.1367 118.961 67.1367ZM118.205 68.8242H119.734V78H118.205V68.8242ZM123.76 77.666C123.057 77.2441 122.512 76.6641 122.125 75.9258C121.738 75.1875 121.545 74.3555 121.545 73.4297C121.545 72.5391 121.727 71.7246 122.09 70.9863C122.465 70.2246 122.986 69.627 123.654 69.1934C124.346 68.748 125.125 68.5254 125.992 68.5254C126.871 68.5254 127.65 68.7305 128.33 69.1406C128.986 69.5391 129.49 70.0898 129.842 70.793C130.205 71.5195 130.387 72.334 130.387 73.2363C130.387 73.3066 130.375 73.459 130.352 73.6934H123.074C123.109 74.3965 123.279 74.9883 123.584 75.4688C123.877 75.9258 124.258 76.2832 124.727 76.541C125.184 76.7871 125.664 76.9102 126.168 76.9102C127.363 76.9102 128.271 76.3535 128.893 75.2402L130.176 75.873C129.789 76.6113 129.256 77.1973 128.576 77.6309C127.896 78.0645 127.076 78.2812 126.115 78.2812C125.225 78.2812 124.439 78.0762 123.76 77.666ZM128.752 72.4453C128.74 72.0586 128.635 71.6719 128.436 71.2852C128.248 70.9102 127.949 70.5879 127.539 70.3184C127.129 70.0488 126.613 69.9141 125.992 69.9141C125.289 69.9141 124.674 70.1484 124.146 70.6172C123.654 71.0625 123.326 71.6719 123.162 72.4453H128.752ZM132.162 68.8242H133.604V70.1777H133.691C133.938 69.7207 134.336 69.334 134.887 69.0176C135.449 68.6895 136.041 68.5254 136.662 68.5254C137.764 68.5254 138.602 68.8477 139.176 69.4922C139.762 70.1484 140.055 71.0215 140.055 72.1113V78H138.525V72.3398C138.525 71.4961 138.32 70.8809 137.91 70.4941C137.512 70.1074 136.955 69.9141 136.24 69.9141C135.748 69.9141 135.309 70.0547 134.922 70.3359C134.512 70.6406 134.207 71.0039 134.008 71.4258C133.797 71.8828 133.691 72.3516 133.691 72.832V78H132.162V68.8242ZM144.273 77.9648C143.945 77.8359 143.682 77.6719 143.482 77.4727C143.002 77.0156 142.762 76.3887 142.762 75.5918V70.2129H141.162V68.8242H142.762V66.2227H144.291V68.8242H146.541V70.2129H144.291V75.2051C144.291 75.7207 144.385 76.0957 144.572 76.3301C144.795 76.5879 145.129 76.7168 145.574 76.7168C145.961 76.7168 146.295 76.6172 146.576 76.418V77.9121C146.412 77.9941 146.23 78.0527 146.031 78.0879C145.844 78.123 145.604 78.1406 145.311 78.1406C144.924 78.1406 144.578 78.082 144.273 77.9648ZM149.354 67.1367C149.061 67.1367 148.803 67.0254 148.58 66.8027C148.357 66.5801 148.246 66.3223 148.246 66.0293C148.246 65.7246 148.357 65.4609 148.58 65.2383C148.779 65.0391 149.037 64.9395 149.354 64.9395C149.67 64.9395 149.928 65.0391 150.127 65.2383C150.338 65.4492 150.443 65.7129 150.443 66.0293C150.443 66.334 150.338 66.5918 150.127 66.8027C149.904 67.0254 149.646 67.1367 149.354 67.1367ZM148.598 68.8242H150.127V78H148.598V68.8242ZM153.238 77.5957C152.605 77.1621 152.143 76.5703 151.85 75.8203L153.203 75.2051C153.438 75.7676 153.777 76.1953 154.223 76.4883C154.691 76.793 155.189 76.9453 155.717 76.9453C156.291 76.9453 156.783 76.8281 157.193 76.5938C157.604 76.3594 157.809 76.0254 157.809 75.5918C157.809 75.2051 157.645 74.8945 157.316 74.6602C157.012 74.4375 156.502 74.2383 155.787 74.0625L154.662 73.7637C153.936 73.5879 153.338 73.2832 152.869 72.8496C152.4 72.416 152.166 71.8594 152.166 71.1797C152.166 70.6641 152.324 70.2012 152.641 69.791C152.969 69.3809 153.391 69.0703 153.906 68.8594C154.469 68.6367 155.043 68.5254 155.629 68.5254C156.426 68.5254 157.141 68.7012 157.773 69.0527C158.395 69.3926 158.84 69.8789 159.109 70.5117L157.791 71.127C157.381 70.3066 156.654 69.8965 155.611 69.8965C155.119 69.8965 154.674 70.0137 154.275 70.248C153.9 70.4707 153.713 70.7695 153.713 71.1445C153.713 71.4727 153.848 71.7422 154.117 71.9531C154.387 72.1641 154.779 72.3398 155.295 72.4805L156.631 72.8145C157.545 73.0488 158.225 73.3887 158.67 73.834C159.127 74.291 159.355 74.8418 159.355 75.4863C159.355 76.0371 159.191 76.5293 158.863 76.9629C158.547 77.3848 158.107 77.7129 157.545 77.9473C157.018 78.1699 156.408 78.2812 155.717 78.2812C154.732 78.2812 153.906 78.0527 153.238 77.5957ZM163.416 77.9648C163.088 77.8359 162.824 77.6719 162.625 77.4727C162.145 77.0156 161.904 76.3887 161.904 75.5918V70.2129H160.305V68.8242H161.904V66.2227H163.434V68.8242H165.684V70.2129H163.434V75.2051C163.434 75.7207 163.527 76.0957 163.715 76.3301C163.938 76.5879 164.271 76.7168 164.717 76.7168C165.104 76.7168 165.438 76.6172 165.719 76.418V77.9121C165.555 77.9941 165.373 78.0527 165.174 78.0879C164.986 78.123 164.746 78.1406 164.453 78.1406C164.066 78.1406 163.721 78.082 163.416 77.9648Z"
      fill="white" />
    <path
      d="M176.697 70.2129H175.01V68.8242H176.697V67.8223C176.697 67.248 176.826 66.7441 177.084 66.3105C177.33 65.9004 177.688 65.5723 178.156 65.3262C178.602 65.0918 179.094 64.9746 179.633 64.9746C180.148 64.9746 180.6 65.0449 180.986 65.1855V66.6797C180.787 66.5977 180.582 66.5273 180.371 66.4688C180.195 66.4219 179.967 66.3984 179.686 66.3984C179.287 66.3984 178.947 66.5391 178.666 66.8203C178.373 67.1133 178.227 67.5059 178.227 67.998V68.8242H180.582V70.2129H178.227V78H176.697V70.2129ZM183.236 77.8945C182.697 77.625 182.287 77.2617 182.006 76.8047C181.725 76.3477 181.584 75.8203 181.584 75.2227C181.584 74.25 181.947 73.4941 182.674 72.9551C183.424 72.4043 184.35 72.1289 185.451 72.1289C186.025 72.1289 186.541 72.1875 186.998 72.3047C187.467 72.4219 187.824 72.5625 188.07 72.7266V72.1641C188.07 71.4961 187.836 70.9512 187.367 70.5293C186.898 70.1074 186.289 69.8965 185.539 69.8965C185.035 69.8965 184.566 70.0078 184.133 70.2305C183.676 70.4648 183.33 70.7754 183.096 71.1621L181.936 70.3008C182.287 69.7617 182.785 69.3281 183.43 69C184.062 68.6836 184.766 68.5254 185.539 68.5254C186.781 68.5254 187.76 68.8535 188.475 69.5098C189.178 70.1543 189.529 71.0449 189.529 72.1816V78H188.07V76.6816H188C187.73 77.1387 187.338 77.5195 186.822 77.8242C186.318 78.1289 185.721 78.2812 185.029 78.2812C184.35 78.2812 183.752 78.1523 183.236 77.8945ZM186.629 76.541C187.074 76.2715 187.426 75.9199 187.684 75.4863C187.941 75.0527 188.07 74.5664 188.07 74.0273C187.789 73.8398 187.438 73.6816 187.016 73.5527C186.617 73.4355 186.172 73.377 185.68 73.377C184.836 73.377 184.203 73.5527 183.781 73.9043C183.359 74.2559 183.148 74.7012 183.148 75.2402C183.148 75.7441 183.342 76.1543 183.729 76.4707C184.115 76.7871 184.602 76.9453 185.188 76.9453C185.703 76.9453 186.184 76.8105 186.629 76.541ZM191.656 68.8242H193.098V70.1777H193.186C193.432 69.7207 193.83 69.334 194.381 69.0176C194.943 68.6895 195.535 68.5254 196.156 68.5254C197.258 68.5254 198.096 68.8477 198.67 69.4922C199.256 70.1484 199.549 71.0215 199.549 72.1113V78H198.02V72.3398C198.02 71.4961 197.814 70.8809 197.404 70.4941C197.006 70.1074 196.449 69.9141 195.734 69.9141C195.242 69.9141 194.803 70.0547 194.416 70.3359C194.006 70.6406 193.701 71.0039 193.502 71.4258C193.291 71.8828 193.186 72.3516 193.186 72.832V78H191.656V68.8242ZM203.504 77.6484C202.812 77.2266 202.262 76.6465 201.852 75.9082C201.453 75.1816 201.254 74.3496 201.254 73.4121C201.254 72.4746 201.453 71.6426 201.852 70.916C202.273 70.1543 202.824 69.5684 203.504 69.1582C204.207 68.7363 205.004 68.5254 205.895 68.5254C206.867 68.5254 207.705 68.7598 208.408 69.2285C209.088 69.6855 209.568 70.3008 209.85 71.0742L208.461 71.6543C208.227 71.0684 207.893 70.6348 207.459 70.3535C207.014 70.0605 206.469 69.9141 205.824 69.9141C205.285 69.9141 204.781 70.0605 204.312 70.3535C203.844 70.6465 203.469 71.0566 203.188 71.584C202.906 72.1113 202.766 72.7207 202.766 73.4121C202.766 74.0918 202.906 74.6953 203.188 75.2227C203.469 75.75 203.844 76.1602 204.312 76.4531C204.793 76.7578 205.297 76.9102 205.824 76.9102C206.457 76.9102 207.014 76.7578 207.494 76.4531C207.963 76.1602 208.314 75.7324 208.549 75.1699L209.902 75.75C209.586 76.5 209.088 77.1094 208.408 77.5781C207.729 78.0469 206.891 78.2812 205.895 78.2812C205.004 78.2812 204.207 78.0703 203.504 77.6484ZM214.367 77.4199L210.57 68.8242H212.223L215.105 75.6445H215.141L217.918 68.8242H219.57L213.91 81.8848H212.328L214.367 77.4199Z"
      fill="white" />
    <path
      d="M230.697 70.2129H229.01V68.8242H230.697V67.8223C230.697 67.248 230.826 66.7441 231.084 66.3105C231.33 65.9004 231.688 65.5723 232.156 65.3262C232.602 65.0918 233.094 64.9746 233.633 64.9746C234.148 64.9746 234.6 65.0449 234.986 65.1855V66.6797C234.787 66.5977 234.582 66.5273 234.371 66.4688C234.195 66.4219 233.967 66.3984 233.686 66.3984C233.287 66.3984 232.947 66.5391 232.666 66.8203C232.373 67.1133 232.227 67.5059 232.227 67.998V68.8242H234.582V70.2129H232.227V78H230.697V70.2129ZM237.623 77.666C236.92 77.2441 236.375 76.6641 235.988 75.9258C235.602 75.1875 235.408 74.3555 235.408 73.4297C235.408 72.5391 235.59 71.7246 235.953 70.9863C236.328 70.2246 236.85 69.627 237.518 69.1934C238.209 68.748 238.988 68.5254 239.855 68.5254C240.734 68.5254 241.514 68.7305 242.193 69.1406C242.85 69.5391 243.354 70.0898 243.705 70.793C244.068 71.5195 244.25 72.334 244.25 73.2363C244.25 73.3066 244.238 73.459 244.215 73.6934H236.938C236.973 74.3965 237.143 74.9883 237.447 75.4688C237.74 75.9258 238.121 76.2832 238.59 76.541C239.047 76.7871 239.527 76.9102 240.031 76.9102C241.227 76.9102 242.135 76.3535 242.756 75.2402L244.039 75.873C243.652 76.6113 243.119 77.1973 242.439 77.6309C241.76 78.0645 240.939 78.2812 239.979 78.2812C239.088 78.2812 238.303 78.0762 237.623 77.666ZM242.615 72.4453C242.604 72.0586 242.498 71.6719 242.299 71.2852C242.111 70.9102 241.812 70.5879 241.402 70.3184C240.992 70.0488 240.477 69.9141 239.855 69.9141C239.152 69.9141 238.537 70.1484 238.01 70.6172C237.518 71.0625 237.189 71.6719 237.025 72.4453H242.615ZM247.836 77.666C247.133 77.2441 246.588 76.6641 246.201 75.9258C245.814 75.1875 245.621 74.3555 245.621 73.4297C245.621 72.5391 245.803 71.7246 246.166 70.9863C246.541 70.2246 247.062 69.627 247.73 69.1934C248.422 68.748 249.201 68.5254 250.068 68.5254C250.947 68.5254 251.727 68.7305 252.406 69.1406C253.062 69.5391 253.566 70.0898 253.918 70.793C254.281 71.5195 254.463 72.334 254.463 73.2363C254.463 73.3066 254.451 73.459 254.428 73.6934H247.15C247.186 74.3965 247.355 74.9883 247.66 75.4688C247.953 75.9258 248.334 76.2832 248.803 76.541C249.26 76.7871 249.74 76.9102 250.244 76.9102C251.439 76.9102 252.348 76.3535 252.969 75.2402L254.252 75.873C253.865 76.6113 253.332 77.1973 252.652 77.6309C251.973 78.0645 251.152 78.2812 250.191 78.2812C249.301 78.2812 248.516 78.0762 247.836 77.666ZM252.828 72.4453C252.816 72.0586 252.711 71.6719 252.512 71.2852C252.324 70.9102 252.025 70.5879 251.615 70.3184C251.205 70.0488 250.689 69.9141 250.068 69.9141C249.365 69.9141 248.75 70.1484 248.223 70.6172C247.73 71.0625 247.402 71.6719 247.238 72.4453H252.828ZM256.238 65.1152H257.768V78H256.238V65.1152ZM260.932 67.1367C260.639 67.1367 260.381 67.0254 260.158 66.8027C259.936 66.5801 259.824 66.3223 259.824 66.0293C259.824 65.7246 259.936 65.4609 260.158 65.2383C260.357 65.0391 260.615 64.9395 260.932 64.9395C261.248 64.9395 261.506 65.0391 261.705 65.2383C261.916 65.4492 262.021 65.7129 262.021 66.0293C262.021 66.334 261.916 66.5918 261.705 66.8027C261.482 67.0254 261.225 67.1367 260.932 67.1367ZM260.176 68.8242H261.705V78H260.176V68.8242ZM264.096 68.8242H265.537V70.1777H265.625C265.871 69.7207 266.27 69.334 266.82 69.0176C267.383 68.6895 267.975 68.5254 268.596 68.5254C269.697 68.5254 270.535 68.8477 271.109 69.4922C271.695 70.1484 271.988 71.0215 271.988 72.1113V78H270.459V72.3398C270.459 71.4961 270.254 70.8809 269.844 70.4941C269.445 70.1074 268.889 69.9141 268.174 69.9141C267.682 69.9141 267.242 70.0547 266.855 70.3359C266.445 70.6406 266.141 71.0039 265.941 71.4258C265.73 71.8828 265.625 72.3516 265.625 72.832V78H264.096V68.8242ZM275.451 81.4277C274.748 80.9238 274.273 80.3145 274.027 79.5996L275.434 79.002C275.633 79.541 275.967 79.9746 276.436 80.3027C276.904 80.6309 277.467 80.7949 278.123 80.7949C279.061 80.7949 279.793 80.5195 280.32 79.9688C280.848 79.4297 281.111 78.6445 281.111 77.6133V76.5938H281.041C280.748 77.0508 280.326 77.4316 279.775 77.7363C279.236 78.0293 278.615 78.1758 277.912 78.1758C277.115 78.1758 276.389 77.9707 275.732 77.5605C275.088 77.1621 274.572 76.5938 274.186 75.8555C273.799 75.1172 273.605 74.2852 273.605 73.3594C273.605 72.4336 273.799 71.6016 274.186 70.8633C274.584 70.1133 275.1 69.5391 275.732 69.1406C276.389 68.7305 277.115 68.5254 277.912 68.5254C278.615 68.5254 279.236 68.6719 279.775 68.9648C280.314 69.2578 280.736 69.6504 281.041 70.1426H281.111V68.8242H282.57V77.6484C282.57 79.1133 282.16 80.2383 281.34 81.0234C280.531 81.7969 279.459 82.1836 278.123 82.1836C277.033 82.1836 276.143 81.9316 275.451 81.4277ZM279.617 76.3828C280.074 76.1016 280.438 75.7031 280.707 75.1875C280.977 74.6719 281.111 74.0625 281.111 73.3594C281.111 72.6328 280.977 72.0117 280.707 71.4961C280.438 70.9688 280.074 70.5762 279.617 70.3184C279.148 70.0488 278.65 69.9141 278.123 69.9141C277.572 69.9141 277.068 70.0547 276.611 70.3359C276.143 70.6289 275.779 71.0215 275.521 71.5137C275.252 72.0293 275.117 72.6445 275.117 73.3594C275.117 74.0508 275.252 74.666 275.521 75.2051C275.779 75.7207 276.143 76.1133 276.611 76.3828C277.08 76.6523 277.584 76.7871 278.123 76.7871C278.686 76.7871 279.184 76.6523 279.617 76.3828Z"
      fill="white" />
    <path
      d="M296.121 77.9648C295.793 77.8359 295.529 77.6719 295.33 77.4727C294.85 77.0156 294.609 76.3887 294.609 75.5918V70.2129H293.01V68.8242H294.609V66.2227H296.139V68.8242H298.389V70.2129H296.139V75.2051C296.139 75.7207 296.232 76.0957 296.42 76.3301C296.643 76.5879 296.977 76.7168 297.422 76.7168C297.809 76.7168 298.143 76.6172 298.424 76.418V77.9121C298.26 77.9941 298.078 78.0527 297.879 78.0879C297.691 78.123 297.451 78.1406 297.158 78.1406C296.771 78.1406 296.426 78.082 296.121 77.9648ZM301.605 77.6484C300.891 77.2148 300.328 76.623 299.918 75.873C299.52 75.1465 299.32 74.3262 299.32 73.4121C299.32 72.498 299.52 71.6777 299.918 70.9512C300.328 70.2012 300.891 69.6094 301.605 69.1758C302.32 68.7422 303.129 68.5254 304.031 68.5254C304.934 68.5254 305.742 68.7422 306.457 69.1758C307.172 69.6094 307.734 70.2012 308.145 70.9512C308.543 71.6777 308.742 72.498 308.742 73.4121C308.742 74.3262 308.543 75.1465 308.145 75.873C307.734 76.623 307.172 77.2148 306.457 77.6484C305.766 78.0703 304.957 78.2812 304.031 78.2812C303.105 78.2812 302.297 78.0703 301.605 77.6484ZM305.613 76.4707C306.082 76.2012 306.469 75.7969 306.773 75.2578C307.066 74.7422 307.213 74.127 307.213 73.4121C307.213 72.6855 307.066 72.0645 306.773 71.5488C306.469 71.0098 306.082 70.6055 305.613 70.3359C305.121 70.0547 304.594 69.9141 304.031 69.9141C303.469 69.9141 302.941 70.0547 302.449 70.3359C301.969 70.6172 301.576 71.0215 301.271 71.5488C300.979 72.0645 300.832 72.6855 300.832 73.4121C300.832 74.127 300.979 74.7422 301.271 75.2578C301.576 75.7852 301.969 76.1895 302.449 76.4707C302.965 76.7637 303.492 76.9102 304.031 76.9102C304.57 76.9102 305.098 76.7637 305.613 76.4707ZM311.238 77.3145C310.652 76.6582 310.359 75.75 310.359 74.5898V68.8242H311.889V74.3613C311.889 75.252 312.088 75.8965 312.486 76.2949C312.896 76.7051 313.43 76.9102 314.086 76.9102C314.602 76.9102 315.064 76.7695 315.475 76.4883C315.861 76.2188 316.172 75.8613 316.406 75.416C316.629 74.9824 316.74 74.5137 316.74 74.0098V68.8242H318.27V78H316.811V76.6641H316.74C316.506 77.1094 316.102 77.4961 315.527 77.8242C315 78.1289 314.414 78.2812 313.77 78.2812C312.656 78.2812 311.812 77.959 311.238 77.3145ZM322.207 77.6484C321.516 77.2266 320.965 76.6465 320.555 75.9082C320.156 75.1816 319.957 74.3496 319.957 73.4121C319.957 72.4746 320.156 71.6426 320.555 70.916C320.977 70.1543 321.527 69.5684 322.207 69.1582C322.91 68.7363 323.707 68.5254 324.598 68.5254C325.57 68.5254 326.408 68.7598 327.111 69.2285C327.791 69.6855 328.271 70.3008 328.553 71.0742L327.164 71.6543C326.93 71.0684 326.596 70.6348 326.162 70.3535C325.717 70.0605 325.172 69.9141 324.527 69.9141C323.988 69.9141 323.484 70.0605 323.016 70.3535C322.547 70.6465 322.172 71.0566 321.891 71.584C321.609 72.1113 321.469 72.7207 321.469 73.4121C321.469 74.0918 321.609 74.6953 321.891 75.2227C322.172 75.75 322.547 76.1602 323.016 76.4531C323.496 76.7578 324 76.9102 324.527 76.9102C325.16 76.9102 325.717 76.7578 326.197 76.4531C326.666 76.1602 327.018 75.7324 327.252 75.1699L328.605 75.75C328.289 76.5 327.791 77.1094 327.111 77.5781C326.432 78.0469 325.594 78.2812 324.598 78.2812C323.707 78.2812 322.91 78.0703 322.207 77.6484ZM330.275 65.1152H331.805V68.9121L331.717 70.1777H331.805C332.039 69.7207 332.438 69.3281 333 69C333.539 68.6836 334.137 68.5254 334.793 68.5254C335.906 68.5254 336.756 68.8535 337.342 69.5098C337.928 70.166 338.221 71.0332 338.221 72.1113V78H336.691V72.3398C336.691 71.5195 336.48 70.9102 336.059 70.5117C335.648 70.1133 335.104 69.9141 334.424 69.9141C333.967 69.9141 333.527 70.0605 333.105 70.3535C332.707 70.6348 332.391 71.0039 332.156 71.4609C331.922 71.9297 331.805 72.4043 331.805 72.8848V78H330.275V65.1152Z"
      fill="white" />
    <path
      d="M26.6426 104.824H28.084V106.178H28.1719C28.4297 105.709 28.8223 105.316 29.3496 105C29.877 104.684 30.4336 104.525 31.0195 104.525C31.6758 104.525 32.2617 104.689 32.7773 105.018C33.2812 105.346 33.6387 105.779 33.8496 106.318C34.166 105.779 34.5938 105.346 35.1328 105.018C35.6836 104.689 36.3047 104.525 36.9961 104.525C38.0625 104.525 38.8594 104.848 39.3867 105.492C39.9258 106.16 40.1953 107.033 40.1953 108.111V114H38.6836V108.34C38.6836 107.496 38.5078 106.881 38.1562 106.494C37.8047 106.107 37.2891 105.914 36.6094 105.914C36.1523 105.914 35.7363 106.049 35.3613 106.318C34.9863 106.588 34.6934 106.939 34.4824 107.373C34.2832 107.783 34.1836 108.264 34.1836 108.814V114H32.6543V108.357C32.6543 107.502 32.4785 106.881 32.127 106.494C31.7754 106.107 31.2656 105.914 30.5977 105.914C30.1406 105.914 29.7246 106.049 29.3496 106.318C28.9746 106.588 28.6816 106.951 28.4707 107.408C28.2715 107.842 28.1719 108.322 28.1719 108.85V114H26.6426V104.824ZM44.1328 113.666C43.4297 113.244 42.8848 112.664 42.498 111.926C42.1113 111.188 41.918 110.355 41.918 109.43C41.918 108.539 42.0996 107.725 42.4629 106.986C42.8379 106.225 43.3594 105.627 44.0273 105.193C44.7188 104.748 45.498 104.525 46.3652 104.525C47.2441 104.525 48.0234 104.73 48.7031 105.141C49.3594 105.539 49.8633 106.09 50.2148 106.793C50.5781 107.52 50.7598 108.334 50.7598 109.236C50.7598 109.307 50.748 109.459 50.7246 109.693H43.4473C43.4824 110.396 43.6523 110.988 43.957 111.469C44.25 111.926 44.6309 112.283 45.0996 112.541C45.5566 112.787 46.0371 112.91 46.541 112.91C47.7363 112.91 48.6445 112.354 49.2656 111.24L50.5488 111.873C50.1621 112.611 49.6289 113.197 48.9492 113.631C48.2695 114.064 47.4492 114.281 46.4883 114.281C45.5977 114.281 44.8125 114.076 44.1328 113.666ZM49.125 108.445C49.1133 108.059 49.0078 107.672 48.8086 107.285C48.6211 106.91 48.3223 106.588 47.9121 106.318C47.502 106.049 46.9863 105.914 46.3652 105.914C45.6621 105.914 45.0469 106.148 44.5195 106.617C44.0273 107.062 43.6992 107.672 43.5352 108.445H49.125ZM53.748 113.895C53.209 113.625 52.7988 113.262 52.5176 112.805C52.2363 112.348 52.0957 111.82 52.0957 111.223C52.0957 110.25 52.459 109.494 53.1855 108.955C53.9355 108.404 54.8613 108.129 55.9629 108.129C56.5371 108.129 57.0527 108.188 57.5098 108.305C57.9785 108.422 58.3359 108.562 58.582 108.727V108.164C58.582 107.496 58.3477 106.951 57.8789 106.529C57.4102 106.107 56.8008 105.896 56.0508 105.896C55.5469 105.896 55.0781 106.008 54.6445 106.23C54.1875 106.465 53.8418 106.775 53.6074 107.162L52.4473 106.301C52.7988 105.762 53.2969 105.328 53.9414 105C54.5742 104.684 55.2773 104.525 56.0508 104.525C57.293 104.525 58.2715 104.854 58.9863 105.51C59.6895 106.154 60.041 107.045 60.041 108.182V114H58.582V112.682H58.5117C58.2422 113.139 57.8496 113.52 57.334 113.824C56.8301 114.129 56.2324 114.281 55.541 114.281C54.8613 114.281 54.2637 114.152 53.748 113.895ZM57.1406 112.541C57.5859 112.271 57.9375 111.92 58.1953 111.486C58.4531 111.053 58.582 110.566 58.582 110.027C58.3008 109.84 57.9492 109.682 57.5273 109.553C57.1289 109.436 56.6836 109.377 56.1914 109.377C55.3477 109.377 54.7148 109.553 54.293 109.904C53.8711 110.256 53.6602 110.701 53.6602 111.24C53.6602 111.744 53.8535 112.154 54.2402 112.471C54.627 112.787 55.1133 112.945 55.6992 112.945C56.2148 112.945 56.6953 112.811 57.1406 112.541ZM64.4707 113.965C64.1426 113.836 63.8789 113.672 63.6797 113.473C63.1992 113.016 62.959 112.389 62.959 111.592V106.213H61.3594V104.824H62.959V102.223H64.4883V104.824H66.7383V106.213H64.4883V111.205C64.4883 111.721 64.582 112.096 64.7695 112.33C64.9922 112.588 65.3262 112.717 65.7715 112.717C66.1582 112.717 66.4922 112.617 66.7734 112.418V113.912C66.6094 113.994 66.4277 114.053 66.2285 114.088C66.041 114.123 65.8008 114.141 65.5078 114.141C65.1211 114.141 64.7754 114.082 64.4707 113.965Z"
      fill="white" />
  </g>
  <defs>
    <filter id="filter0_f_3033_3897" x="-2.5" y="-6" width="380" height="156" filterUnits="userSpaceOnUse"
      color-interpolation-filters="sRGB">
      <feFlood flood-opacity="0" result="BackgroundImageFix" />
      <feBlend mode="normal" in="SourceGraphic" in2="BackgroundImageFix" result="shape" />
      <feGaussianBlur stdDeviation="14" result="effect1_foregroundBlur_3033_3897" />
    </filter>
  </defs>
</svg>