<svg width="17" height="16" viewBox="0 0 17 16" fill="none" xmlns="http://www.w3.org/2000/svg">
  <path
    d="M14.591 4.7879H12.8637V11.1212C12.8637 11.4391 12.6057 11.697 12.2879 11.697H5.95459V13.4243C5.95459 13.7421 6.21253 14 6.53035 14H14.591C14.9088 14 15.1667 13.7421 15.1667 13.4243V5.36366C15.1667 5.04584 14.9088 4.7879 14.591 4.7879Z"
    fill="#F1F2FF" />
  <path
    d="M11.1364 10.5454H3.07576C2.75736 10.5454 2.5 10.2881 2.5 9.96968V1.90907C2.5 1.59125 2.75736 1.33331 3.07576 1.33331H11.1364C11.4548 1.33331 11.7121 1.59125 11.7121 1.90907V9.96968C11.7121 10.2881 11.4548 10.5454 11.1364 10.5454Z"
    fill="#F1F2FF" />
</svg>