<svg width="25" height="24" viewBox="0 0 25 24" fill="none" xmlns="http://www.w3.org/2000/svg">
  <path
    d="M0.978706 7.49111C1.28922 7.49111 1.45741 7.30997 1.45741 6.99946V3.51914C1.45741 1.8372 2.3372 0.957412 4.01914 0.957412H7.5124C7.82291 0.957412 8.00404 0.789218 8.00404 0.478706C8.00404 0.168194 7.82291 0 7.5124 0H3.99326C1.70323 0 0.5 1.1903 0.5 3.46739V6.99946C0.5 7.30997 0.668194 7.49111 0.978706 7.49111ZM24.0213 7.49111C24.3318 7.49111 24.5 7.30997 24.5 6.99946V3.46739C24.5 1.21617 23.3097 0 21.0197 0H17.4876C17.1771 0 16.996 0.168194 16.996 0.478706C16.996 0.789218 17.1771 0.957412 17.4876 0.957412H20.9809C22.611 0.957412 23.5426 1.8372 23.5426 3.51914V6.99946C23.5426 7.30997 23.7108 7.49111 24.0213 7.49111ZM11.4456 13.7402H11.562C12.61 13.7402 13.1404 13.2226 13.1404 12.1617V8.18976C13.1404 7.89218 12.9981 7.74987 12.7005 7.74987C12.4159 7.74987 12.2606 7.89218 12.2606 8.18976V12.2782C12.2606 12.6275 11.976 12.8474 11.6914 12.8474H11.2515C11.0057 12.8474 10.8245 13.0286 10.8245 13.2744C10.8245 13.5849 11.0186 13.7402 11.4456 13.7402ZM7.84879 10.7644C8.23693 10.7644 8.48275 10.5186 8.48275 10.1305V8.4097C8.48275 8.00863 8.23693 7.7628 7.84879 7.7628C7.47359 7.7628 7.22776 8.02156 7.22776 8.4097V10.1305C7.22776 10.5186 7.47359 10.7644 7.84879 10.7644ZM17.0348 10.7644C17.41 10.7644 17.6558 10.5186 17.6558 10.1305V8.4097C17.6558 8.02156 17.41 7.7628 17.0348 7.7628C16.6466 7.7628 16.3879 8.00863 16.3879 8.4097V10.1305C16.3879 10.5186 16.6466 10.7644 17.0348 10.7644ZM12.39 17.6992C13.8132 17.6992 15.2364 17.104 16.2844 16.0561C16.362 15.9914 16.4396 15.8749 16.4396 15.7067C16.4396 15.448 16.2456 15.2798 16.0127 15.2798C15.8703 15.2798 15.7539 15.3186 15.5857 15.4997C14.8094 16.276 13.6062 16.8323 12.39 16.8323C11.1739 16.8323 9.98356 16.276 9.19434 15.4997C9.03908 15.3315 8.92264 15.2798 8.76739 15.2798C8.5345 15.2798 8.34043 15.448 8.34043 15.7067C8.34043 15.862 8.41806 15.9784 8.49569 16.0561C9.51779 17.117 10.9668 17.6992 12.39 17.6992ZM3.99326 24H7.5124C7.82291 24 8.00404 23.8318 8.00404 23.5213C8.00404 23.2108 7.82291 23.0426 7.5124 23.0426H4.01914C2.3372 23.0426 1.45741 22.1628 1.45741 20.4679V17.0005C1.45741 16.69 1.28922 16.496 0.978706 16.496C0.668194 16.496 0.5 16.69 0.5 17.0005V20.5197C0.5 22.8097 1.70323 24 3.99326 24ZM17.4876 24H21.0197C23.3097 24 24.5 22.7709 24.5 20.5197V17.0005C24.5 16.69 24.3318 16.496 24.0213 16.496C23.7108 16.496 23.5426 16.69 23.5426 17.0005V20.4679C23.5426 22.1628 22.611 23.0426 20.9809 23.0426H17.4876C17.1771 23.0426 16.996 23.2108 16.996 23.5213C16.996 23.8318 17.1771 24 17.4876 24Z"
    fill="white" />
</svg>