<svg width="20" height="20" viewBox="0 0 20 20" fill="none" xmlns="http://www.w3.org/2000/svg">
  <g clip-path="url(#clip0_2603_3506)">
    <path
      d="M18.3333 9.16668H10.8333V1.66668C10.8333 1.16668 10.4999 0.833344 9.99992 0.833344C9.49992 0.833344 9.16659 1.16668 9.16659 1.66668V9.16668H1.66659C1.16659 9.16668 0.833252 9.50001 0.833252 10C0.833252 10.5 1.16659 10.8333 1.66659 10.8333H9.16659V18.3333C9.16659 18.8333 9.49992 19.1667 9.99992 19.1667C10.4999 19.1667 10.8333 18.8333 10.8333 18.3333V10.8333H18.3333C18.8333 10.8333 19.1666 10.5 19.1666 10C19.1666 9.50001 18.8333 9.16668 18.3333 9.16668Z"
      fill="white" />
  </g>
  <defs>
    <clipPath id="clip0_2603_3506">
      <rect width="20" height="20" fill="white" />
    </clipPath>
  </defs>
</svg>