<svg width="80" height="70" viewBox="0 0 80 70" fill="none" xmlns="http://www.w3.org/2000/svg">
  <g clip-path="url(#clip0_2697_4488)">
    <path fill-rule="evenodd" clip-rule="evenodd"
      d="M39.1292 36.9867C41.4682 28.2561 50.3664 23.0547 59.0043 25.3691C61.0616 25.9225 62.9887 26.8785 64.6739 28.1819C66.3591 29.4852 67.769 31.11 68.8219 32.9621C70.9625 36.7275 71.5324 41.1849 70.4078 45.3677C68.0689 54.0983 59.1699 59.2997 50.5327 56.9853C41.8941 54.6709 36.7896 45.7172 39.1292 36.9867ZM66.7376 58.0323L70.3875 63.0407L70.4689 63.0618C70.7987 63.643 70.8866 64.3306 70.7137 64.9761C70.5408 65.6215 70.1208 66.1731 69.5447 66.5116C69.2612 66.6782 68.9474 66.7867 68.6216 66.8308C68.2958 66.875 67.9645 66.8539 67.6469 66.7688C67.3293 66.6837 67.0319 66.5363 66.7718 66.3352C66.5117 66.134 66.2942 65.8832 66.132 65.5972L63.4534 60.1305C63.1866 59.6629 63.1152 59.1088 63.2548 58.5888C63.3938 58.0684 63.7328 57.6239 64.198 57.3523C64.6251 57.1065 65.1322 57.0401 65.6082 57.1677C66.0842 57.2953 66.4901 57.6065 66.7369 58.033L66.7376 58.0323Z"
      fill="url(#paint0_linear_2697_4488)" />
    <g filter="url(#filter0_f_2697_4488)">
      <path
        d="M57.0767 32.5656C52.3707 31.3046 47.5223 34.1376 46.2479 38.8955C44.9728 43.6513 47.7546 48.5306 52.4612 49.7909C57.1672 51.052 62.0156 48.2183 63.2893 43.4611C63.9019 41.1769 63.591 38.7453 62.4261 36.7025C61.8524 35.6934 61.0842 34.8081 60.1659 34.098C59.2477 33.3879 58.1976 32.8671 57.0767 32.5656Z"
        fill="#0062FF" fill-opacity="0.5" />
    </g>
    <mask id="mask0_2697_4488" style="mask-type:alpha" maskUnits="userSpaceOnUse" x="-2" y="-1" width="72" height="72">
      <path d="M-1.37207 -0.859619H69.9641V70.4765H-1.37207V-0.859619Z" fill="white" />
      <path fill-rule="evenodd" clip-rule="evenodd"
        d="M60.7109 23.579C57.2218 10.5579 43.9488 2.79932 31.0646 6.25125C24.8772 7.9095 19.6098 11.9839 16.419 17.5776C13.2295 23.172 12.379 29.8281 14.054 36.0821C17.5439 49.1032 30.8168 56.8618 43.7011 53.4098C56.5853 49.9572 64.2007 36.6021 60.7116 23.5797L60.7109 23.579ZM19.5305 54.9741L14.0849 62.4442L13.9649 62.4765C13.4733 63.3433 13.3423 64.3688 13.6003 65.3313C13.8583 66.2939 14.4846 67.1163 15.3439 67.6211C15.7666 67.8695 16.2346 68.0313 16.7205 68.0971C17.2064 68.163 17.7005 68.1316 18.1742 68.0047C18.6478 67.8778 19.0915 67.658 19.4794 67.3581C19.8673 67.0581 20.1917 66.684 20.4337 66.2576L24.4288 58.1046C24.8272 57.4067 24.9337 56.5796 24.7249 55.8035C24.5175 55.0273 24.0118 54.3644 23.3179 53.9593C22.6809 53.5926 21.9244 53.4935 21.2144 53.6837C20.5045 53.874 19.8989 54.338 19.5305 54.9741Z"
        fill="black" />
    </mask>
    <g mask="url(#mask0_2697_4488)">
      <path fill-rule="evenodd" clip-rule="evenodd"
        d="M60.7109 23.579C57.2218 10.5579 43.9488 2.79932 31.0646 6.25125C24.8772 7.9095 19.6098 11.9839 16.419 17.5776C13.2295 23.172 12.379 29.8281 14.054 36.0821C17.5439 49.1032 30.8168 56.8618 43.7011 53.4098C56.5853 49.9572 64.2007 36.6021 60.7116 23.5797L60.7109 23.579ZM19.5305 54.9741L14.0849 62.4442L13.9649 62.4765C13.4733 63.3433 13.3423 64.3688 13.6003 65.3313C13.8583 66.2939 14.4846 67.1163 15.3439 67.6211C15.7666 67.8695 16.2346 68.0313 16.7205 68.0971C17.2064 68.163 17.7005 68.1316 18.1742 68.0047C18.6478 67.8778 19.0915 67.658 19.4794 67.3581C19.8673 67.0581 20.1917 66.684 20.4337 66.2576L24.4288 58.1046C24.8272 57.4067 24.9337 56.5796 24.7249 55.8035C24.5175 55.0273 24.0118 54.3644 23.3179 53.9593C22.6809 53.5926 21.9244 53.4935 21.2144 53.6837C20.5045 53.874 19.8989 54.338 19.5305 54.9741Z"
        fill="#3EA0FE" fill-opacity="0.35" />
      <path
        d="M16.4196 17.5768L15.8098 17.2295L16.4196 17.5768ZM14.0856 62.4435L14.6526 62.8568C14.558 62.9866 14.4218 63.08 14.2667 63.1214L14.0856 62.4435ZM19.5312 54.9733L20.1368 55.3263C20.1249 55.3474 20.1123 55.367 20.0975 55.3867L19.5305 54.9726L19.5312 54.9733ZM13.9649 62.4751L13.3551 62.1277C13.4011 62.0472 13.4626 61.9766 13.5361 61.92C13.6096 61.8633 13.6935 61.8219 13.7832 61.7979L13.9649 62.4758V62.4751ZM15.3439 67.6204L14.9895 68.2267L15.3439 67.6204ZM20.4337 66.2568L21.0639 66.5656C21.0575 66.579 21.0505 66.5916 21.0428 66.6042L20.4337 66.2568ZM24.4288 58.1039L23.7986 57.7951L23.8196 57.7551L24.4288 58.1039ZM23.3179 53.9586L23.6667 53.3495L23.6716 53.3523L23.3179 53.9586ZM30.8828 5.57264C44.1481 2.01895 57.8014 10.0077 61.3888 23.3972L60.033 23.7607C56.6421 11.106 43.7488 3.57895 31.2463 6.92842L30.8828 5.57334V5.57264ZM15.8105 17.2302C19.0926 11.4744 24.5144 7.28 30.8842 5.57404L31.247 6.92913C25.2421 8.53825 20.1277 12.4933 17.0295 17.9256L15.8105 17.2302ZM13.3768 36.2632C11.654 29.8323 12.5284 22.986 15.8105 17.2302L17.0302 17.9249C13.9319 23.3579 13.1046 29.8239 14.7326 35.9004L13.3775 36.2632H13.3768ZM43.8835 54.0877C30.6182 57.6428 16.9649 49.6533 13.3768 36.2632L14.7326 35.9004C18.1235 48.5551 31.0168 56.0828 43.52 52.7326L43.8828 54.0884L43.8835 54.0877ZM61.3895 23.3986C64.9775 36.7881 57.1481 50.534 43.8828 54.0884L43.52 52.7326C56.0224 49.3825 63.4245 36.4168 60.0337 23.7614L61.3895 23.3986ZM13.5193 62.0302L18.9649 54.5607L20.0982 55.3874L14.6533 62.8575L13.5193 62.0309V62.0302ZM13.7839 61.7986L13.9046 61.7663L14.2681 63.1221L14.1474 63.1544L13.7839 61.7986ZM14.9902 68.2267C12.8716 66.9888 12.141 64.2604 13.3558 62.1284L14.5754 62.8239C14.1751 63.5301 14.0685 64.3654 14.2786 65.1496C14.4886 65.9337 14.9985 66.6039 15.6982 67.0154L14.9895 68.2274L14.9902 68.2267ZM21.0442 66.6056C20.7562 67.1127 20.3702 67.5575 19.9088 67.9141C19.4474 68.2706 18.9197 68.532 18.3563 68.6828C17.793 68.8336 17.2053 68.871 16.6275 68.7927C16.0496 68.7144 15.493 68.522 14.9902 68.2267L15.6989 67.0154C16.0417 67.217 16.4211 67.3484 16.8151 67.4018C17.209 67.4553 17.6097 67.4298 17.9938 67.3269C18.3778 67.2239 18.7376 67.0456 19.052 66.8023C19.3664 66.5589 19.6293 66.2554 19.8253 65.9095L21.0442 66.6049V66.6056ZM25.0596 58.4133L21.0646 66.5663L19.8042 65.9488L23.7993 57.7958L25.0596 58.4133ZM25.4035 55.6218C25.6603 56.5768 25.5291 57.5946 25.0386 58.4533L23.8203 57.7558C24.1267 57.2187 24.2084 56.5823 24.0477 55.9853L25.4035 55.6218ZM23.6723 53.3523C24.5261 53.8508 25.1484 54.6665 25.4035 55.6218L24.0477 55.9853C23.8884 55.3878 23.4994 54.8776 22.9656 54.5656L23.6723 53.353V53.3523ZM18.9249 54.6211C19.3864 53.8249 20.1447 53.2441 21.0336 53.0059C21.9225 52.7677 22.8696 52.8915 23.6674 53.3502L22.9698 54.5677C22.4935 54.2931 21.9276 54.2188 21.3965 54.3612C20.8654 54.5035 20.4126 54.8509 20.1375 55.327L18.9249 54.6211Z"
        fill="url(#paint1_linear_2697_4488)" />
    </g>
  </g>
  <defs>
    <filter id="filter0_f_2697_4488" x="30.9385" y="17.2659" width="47.6582" height="47.8248"
      filterUnits="userSpaceOnUse" color-interpolation-filters="sRGB">
      <feFlood flood-opacity="0" result="BackgroundImageFix" />
      <feBlend mode="normal" in="SourceGraphic" in2="BackgroundImageFix" result="shape" />
      <feGaussianBlur stdDeviation="7.5" result="effect1_foregroundBlur_2697_4488" />
    </filter>
    <linearGradient id="paint0_linear_2697_4488" x1="79.9797" y1="30.9895" x2="31.2401" y2="52.7754"
      gradientUnits="userSpaceOnUse">
      <stop stop-color="#39AFFD" />
      <stop offset="1" stop-color="#477FFF" />
    </linearGradient>
    <linearGradient id="paint1_linear_2697_4488" x1="47.4323" y1="8.65685" x2="13.6919" y2="65.5004"
      gradientUnits="userSpaceOnUse">
      <stop stop-color="white" stop-opacity="0.25" />
      <stop offset="1" stop-color="white" stop-opacity="0" />
    </linearGradient>
    <clipPath id="clip0_2697_4488">
      <rect width="80" height="69.4737" fill="white" />
    </clipPath>
  </defs>
</svg>