<svg width="20" height="20" viewBox="0 0 20 20" fill="none" xmlns="http://www.w3.org/2000/svg">
  <path
    d="M16.4166 3.58337C16.0833 3.25004 15.5833 3.25004 15.2499 3.58337L9.99992 8.83337L4.74992 3.58337C4.41658 3.25004 3.91659 3.25004 3.58325 3.58337C3.24992 3.91671 3.24992 4.41671 3.58325 4.75004L8.83325 10L3.58325 15.25C3.24992 15.5834 3.24992 16.0834 3.58325 16.4167C3.74992 16.5834 3.91659 16.6667 4.16659 16.6667C4.41659 16.6667 4.58325 16.5834 4.74992 16.4167L9.99992 11.1667L15.2499 16.4167C15.4166 16.5834 15.6666 16.6667 15.8333 16.6667C15.9999 16.6667 16.2499 16.5834 16.4166 16.4167C16.7499 16.0834 16.7499 15.5834 16.4166 15.25L11.1666 10L16.4166 4.75004C16.7499 4.41671 16.7499 3.91671 16.4166 3.58337Z"
    fill="white" />
</svg>