<svg width="21" height="20" viewBox="0 0 21 20" fill="none" xmlns="http://www.w3.org/2000/svg">
  <path
    d="M18.1136 8.86366H11.6364V2.38638C11.6364 1.95457 11.3485 1.66669 10.9167 1.66669C10.4848 1.66669 10.197 1.95457 10.197 2.38638V8.86366H3.7197C3.28788 8.86366 3 9.15154 3 9.58335C3 10.0152 3.28788 10.3031 3.7197 10.3031H10.197V16.7803C10.197 17.2121 10.4848 17.5 10.9167 17.5C11.3485 17.5 11.6364 17.2121 11.6364 16.7803V10.3031H18.1136C18.5455 10.3031 18.8333 10.0152 18.8333 9.58335C18.8333 9.15154 18.5455 8.86366 18.1136 8.86366Z"
    fill="white" />
</svg>