<svg width="16" height="16" viewBox="0 0 16 16" fill="none" xmlns="http://www.w3.org/2000/svg">
  <path
    d="M9.2122 7.6666C9.2122 6.9637 8.64238 6.39388 7.93948 6.39388C7.23657 6.39388 6.66675 6.9637 6.66675 7.6666C6.66675 8.36951 7.23657 8.93933 7.93948 8.93933C8.64238 8.93933 9.2122 8.36951 9.2122 7.6666Z"
    fill="white" />
  <path
    d="M9.2122 13.3939C9.2122 12.691 8.64238 12.1212 7.93948 12.1212C7.23657 12.1212 6.66675 12.691 6.66675 13.3939C6.66675 14.0968 7.23657 14.6666 7.93948 14.6666C8.64238 14.6666 9.2122 14.0968 9.2122 13.3939Z"
    fill="white" />
  <path
    d="M9.2122 1.93931C9.2122 1.2364 8.64238 0.666582 7.93948 0.666582C7.23657 0.666582 6.66675 1.2364 6.66675 1.93931C6.66675 2.64222 7.23657 3.21204 7.93948 3.21204C8.64238 3.21204 9.2122 2.64222 9.2122 1.93931Z"
    fill="white" />
</svg>