<svg width="21" height="20" viewBox="0 0 21 20" fill="none" xmlns="http://www.w3.org/2000/svg">
  <path
    d="M18.1736 10.9375H3.65972C3.26389 10.9375 3 10.6736 3 10.2778C3 9.88193 3.26389 9.61804 3.65972 9.61804H18.1736C18.5694 9.61804 18.8333 9.88193 18.8333 10.2778C18.8333 10.6736 18.5694 10.9375 18.1736 10.9375Z"
    fill="white" />
  <path
    d="M18.1736 6.31944H3.65972C3.26389 6.31944 3 6.05556 3 5.65972C3 5.26389 3.26389 5 3.65972 5H18.1736C18.5694 5 18.8333 5.26389 18.8333 5.65972C18.8333 6.05556 18.5694 6.31944 18.1736 6.31944Z"
    fill="white" />
  <path
    d="M18.1736 15.5555H3.65972C3.26389 15.5555 3 15.2916 3 14.8958C3 14.5 3.26389 14.2361 3.65972 14.2361H18.1736C18.5694 14.2361 18.8333 14.5 18.8333 14.8958C18.8333 15.2916 18.5694 15.5555 18.1736 15.5555Z"
    fill="white" />
</svg>