<svg width="24" height="24" viewBox="0 0 24 24" xmlns="http://www.w3.org/2000/svg">
  <path
    d="M5.59091 7.18182C7.02183 7.18182 8.18182 6.02183 8.18182 4.59091C8.18182 3.15999 7.02183 2 5.59091 2C4.15999 2 3 3.15999 3 4.59091C3 6.02183 4.15999 7.18182 5.59091 7.18182Z" />
  <path
    d="M5.59091 14.0909C7.02183 14.0909 8.18182 12.9309 8.18182 11.5C8.18182 10.0691 7.02183 8.90912 5.59091 8.90912C4.15999 8.90912 3 10.0691 3 11.5C3 12.9309 4.15999 14.0909 5.59091 14.0909Z" />
  <path
    d="M5.59091 21C7.02183 21 8.18182 19.84 8.18182 18.4091C8.18182 16.9782 7.02183 15.8182 5.59091 15.8182C4.15999 15.8182 3 16.9782 3 18.4091C3 19.84 4.15999 21 5.59091 21Z" />
  <path d="M22.0001 3.72729H9.90918V5.45457H22.0001V3.72729Z" />
  <path d="M22.0001 10.6364H9.90918V12.3636H22.0001V10.6364Z" />
  <path d="M22.0001 17.5454H9.90918V19.2727H22.0001V17.5454Z" />
</svg>