<svg width="41" height="40" viewBox="0 0 41 40" fill="none" xmlns="http://www.w3.org/2000/svg">
  <path
    d="M20.5 39.4141C31.2221 39.4141 39.9141 30.7221 39.9141 20C39.9141 9.27791 31.2221 0.585938 20.5 0.585938C9.77791 0.585938 1.08594 9.27791 1.08594 20C1.08594 30.7221 9.77791 39.4141 20.5 39.4141Z"
    fill="#4956FC" />
  <path
    d="M20.5 35.5078C29.0647 35.5078 36.0078 28.5647 36.0078 20C36.0078 11.4353 29.0647 4.49219 20.5 4.49219C11.9353 4.49219 4.99219 11.4353 4.99219 20C4.99219 28.5647 11.9353 35.5078 20.5 35.5078Z"
    fill="#5E8DF7" />
  <path d="M27.7969 19.0719L26.5828 19.7609L20.4102 22.0906L13.2031 19.0719L20.4102 6.72186L27.7969 19.0719Z"
    fill="#FEFEFE" />
  <path d="M27.7969 19.0719L20.4102 23.2625L13.2031 19.0719L20.4102 15.707L27.7969 19.0719Z" fill="#C0CBF8" />
  <path d="M27.7969 22.0187L20.4102 33.2781L13.2031 22.0187L20.4102 26.2086L27.7969 22.0187Z" fill="#FEFEFE" />
  <path
    d="M27.7969 22.0187L20.4102 33.2781V26.2086L27.7969 22.0187ZM27.7969 19.0719L26.5828 19.7609L20.4102 16.2312V6.72186L27.7969 19.0719Z"
    fill="#C0CBF8" />
  <path d="M27.7969 19.0719L20.4102 23.2625V15.707L27.7969 19.0719Z" fill="#8095F0" />
</svg>