<svg width="21" height="20" viewBox="0 0 21 20" fill="none" xmlns="http://www.w3.org/2000/svg">
  <path
    d="M7.06304 4.60158C6.85014 4.60655 6.64773 4.69503 6.49951 4.84794C6.35129 5.00085 6.26914 5.20591 6.27079 5.41886C6.27245 5.63181 6.35778 5.83557 6.50837 5.98615C6.65895 6.13673 6.86271 6.22205 7.07566 6.22371L13.1902 6.17782L5.34857 14.0194C5.19644 14.1716 5.11097 14.3779 5.11097 14.593C5.11098 14.8082 5.19644 15.0145 5.34857 15.1666C5.50069 15.3187 5.70702 15.4042 5.92216 15.4042C6.1373 15.4042 6.34363 15.3187 6.49575 15.1666L14.3339 7.32845L14.2892 13.4384C14.2941 13.6491 14.3809 13.8497 14.5312 13.9975C14.6814 14.1454 14.8833 14.2289 15.0941 14.2305C15.3049 14.2321 15.508 14.1515 15.6605 14.0059C15.8129 13.8603 15.9027 13.6611 15.9107 13.4504L15.9698 5.56522C15.9707 5.43088 15.945 5.2977 15.894 5.1734C15.843 5.04911 15.7678 4.93618 15.6729 4.84119C15.5779 4.74619 15.4649 4.67102 15.3406 4.62004C15.2163 4.56906 15.0832 4.54329 14.9488 4.54422L7.06304 4.60273L7.06304 4.60158Z"
    fill="white" />
</svg>