<svg width="20" height="20" viewBox="0 0 20 20" fill="none" xmlns="http://www.w3.org/2000/svg">
  <path
    d="M18.0179 15.6612L14.2613 11.9047C15.2036 10.5804 15.6138 8.95046 15.4108 7.33793C15.2078 5.7254 14.4064 4.24801 13.1653 3.19862C11.9242 2.14923 10.3342 1.60445 8.71034 1.67228C7.0865 1.7401 5.54741 2.41558 4.39818 3.56481C3.24895 4.71404 2.57348 6.25312 2.50565 7.87696C2.43782 9.5008 2.9826 11.0909 4.03199 12.3319C5.08138 13.573 6.55878 14.3745 8.17131 14.5775C9.78383 14.7805 11.4138 14.3702 12.738 13.4279L16.4946 17.1845C16.6966 17.3865 16.9705 17.5 17.2562 17.5C17.5419 17.5 17.8159 17.3865 18.0179 17.1845C18.2199 16.9825 18.3333 16.7085 18.3333 16.4228C18.3333 16.1372 18.2199 15.8632 18.0179 15.6612ZM3.97589 8.1675C3.97589 7.17366 4.2706 6.20213 4.82276 5.37577C5.37491 4.54942 6.1597 3.90535 7.0779 3.52502C7.99609 3.14469 9.00645 3.04518 9.9812 3.23907C10.956 3.43296 11.8513 3.91155 12.5541 4.6143C13.2568 5.31706 13.7354 6.21243 13.9293 7.18718C14.1232 8.16193 14.0237 9.17229 13.6434 10.0905C13.263 11.0087 12.619 11.7935 11.7926 12.3456C10.9663 12.8978 9.99473 13.1925 9.00088 13.1925C7.66864 13.191 6.39139 12.6611 5.44936 11.719C4.50732 10.777 3.97741 9.49974 3.97589 8.1675Z"
    fill="#707070" />
</svg>