<svg width="24" height="24" viewBox="0 0 24 24" fill="none" xmlns="http://www.w3.org/2000/svg">
  <path
    d="M12 22C17.5228 22 22 17.5228 22 12C22 6.47715 17.5228 2 12 2C6.47715 2 2 6.47715 2 12C2 17.5228 6.47715 22 12 22Z"
    stroke="#FF6F36" stroke-width="2" stroke-miterlimit="10" stroke-linecap="square" />
  <path
    d="M12.0001 15.6364C14.0084 15.6364 15.6365 14.0083 15.6365 12C15.6365 9.9917 14.0084 8.36365 12.0001 8.36365C9.99182 8.36365 8.36377 9.9917 8.36377 12C8.36377 14.0083 9.99182 15.6364 12.0001 15.6364Z"
    fill="#FF6F36" />
  <path
    d="M12.0001 15.6364C14.0084 15.6364 15.6365 14.0083 15.6365 12C15.6365 9.9917 14.0084 8.36365 12.0001 8.36365C9.99182 8.36365 8.36377 9.9917 8.36377 12C8.36377 14.0083 9.99182 15.6364 12.0001 15.6364Z"
    stroke="#FF6F36" stroke-width="2" stroke-miterlimit="10" stroke-linecap="square" />
</svg>