<svg width="21" height="20" viewBox="0 0 21 20" fill="none" xmlns="http://www.w3.org/2000/svg">
  <path
    d="M8 17.5C7.86966 17.5003 7.74255 17.4594 7.63688 17.3831L3.26188 14.2581C3.18096 14.2004 3.11499 14.1241 3.06944 14.0358C3.0239 13.9474 3.00009 13.8494 3 13.75V3.125C3 2.95924 3.06585 2.80027 3.18306 2.68306C3.30027 2.56585 3.45924 2.5 3.625 2.5C3.8675 2.5 4.36563 2.89 4.4475 2.94875L8.36375 5.75C8.44481 5.80801 8.51082 5.88458 8.55627 5.9733C8.60171 6.06202 8.62528 6.16032 8.625 6.26V16.875C8.62512 16.9899 8.59357 17.1026 8.53381 17.2007C8.47404 17.2989 8.38839 17.3786 8.28625 17.4313C8.19751 17.4762 8.09948 17.4998 8 17.5Z"
    fill="#CFCFCF" />
  <path
    d="M9.875 10.625V14.375H11.75C11.9158 14.375 12.0747 14.3092 12.1919 14.192C12.3092 14.0747 12.375 13.9158 12.375 13.75V10.625H9.875Z"
    fill="#CFCFCF" />
  <path
    d="M9.87438 6.26V6.875H12.3744V3.125C12.3744 2.95924 12.3085 2.80027 12.1913 2.68306C12.0741 2.56585 11.9151 2.5 11.7494 2.5H5.96875L9.09375 4.735C9.33519 4.90936 9.53182 5.13849 9.66752 5.40359C9.80322 5.66869 9.87411 5.96219 9.87438 6.26Z"
    fill="#CFCFCF" />
  <path d="M18 8.74999L14.25 5.62498V8.12499H9.875V9.37499H14.25V11.875L18 8.74999Z" fill="#CFCFCF" />
</svg>