<svg width="20" height="20" viewBox="0 0 20 20" fill="none" xmlns="http://www.w3.org/2000/svg">
  <path
    d="M6.56304 4.60158C6.35014 4.60655 6.14773 4.69503 5.99951 4.84794C5.85129 5.00085 5.76914 5.20591 5.77079 5.41886C5.77245 5.63181 5.85778 5.83557 6.00837 5.98615C6.15895 6.13673 6.36271 6.22205 6.57566 6.22371L12.6902 6.17782L4.84857 14.0194C4.69644 14.1716 4.61097 14.3779 4.61097 14.593C4.61098 14.8082 4.69644 15.0145 4.84857 15.1666C5.00069 15.3187 5.20702 15.4042 5.42216 15.4042C5.6373 15.4042 5.84363 15.3187 5.99575 15.1666L13.8339 7.32845L13.7892 13.4384C13.7941 13.6491 13.8809 13.8497 14.0312 13.9975C14.1814 14.1454 14.3833 14.2289 14.5941 14.2305C14.8049 14.2321 15.008 14.1515 15.1605 14.0059C15.3129 13.8603 15.4027 13.6611 15.4107 13.4504L15.4698 5.56522C15.4707 5.43088 15.445 5.2977 15.394 5.1734C15.343 5.04911 15.2678 4.93618 15.1729 4.84119C15.0779 4.74619 14.9649 4.67102 14.8406 4.62004C14.7163 4.56906 14.5832 4.54329 14.4488 4.54422L6.56304 4.60273L6.56304 4.60158Z"
    fill="url(#paint0_linear_2619_4116)" />
  <defs>
    <linearGradient id="paint0_linear_2619_4116" x1="14.5867" y1="14.5799" x2="5.42706" y2="5.42025"
      gradientUnits="userSpaceOnUse">
      <stop stop-color="#76B852" />
      <stop offset="1" stop-color="#8DC26F" />
    </linearGradient>
  </defs>
</svg>