<svg width="25" height="24" viewBox="0 0 25 24" xmlns="http://www.w3.org/2000/svg">
  <path fill-rule="evenodd" clip-rule="evenodd"
    d="M12.125 3.3105V4.28325L9.38975 5.86275L8.48 4.28775C8.7815 3.93525 8.84375 3.41775 8.59925 2.994C8.28875 2.45625 7.60025 2.27175 7.0625 2.58225C6.52475 2.89275 6.34025 3.58125 6.65075 4.119C6.89525 4.54275 7.37525 4.74675 7.8305 4.66275L8.74025 6.23775L6.005 7.81725L5.16275 7.3305C5.24675 6.87525 5.04275 6.39525 4.619 6.15075C4.08125 5.84025 3.39275 6.02475 3.08225 6.5625C2.77175 7.10025 2.95625 7.78875 3.494 8.09925C3.91775 8.34375 4.43525 8.2815 4.78775 7.98L5.63 8.46675V11.625H3.8105C3.656 11.1885 3.23975 10.875 2.75 10.875C2.129 10.875 1.625 11.379 1.625 12C1.625 12.621 2.129 13.125 2.75 13.125C3.23975 13.125 3.656 12.8115 3.8105 12.375H5.63V15.5333L4.78775 16.02C4.43525 15.7185 3.91775 15.6562 3.494 15.9008C2.95625 16.2113 2.77175 16.8997 3.08225 17.4375C3.39275 17.9753 4.08125 18.1597 4.619 17.8493C5.04275 17.6047 5.24675 17.1248 5.16275 16.6695L6.005 16.1827L8.74025 17.7623L7.8305 19.3372C7.37525 19.2533 6.89525 19.4572 6.65075 19.881C6.34025 20.4187 6.52475 21.1073 7.0625 21.4177C7.60025 21.7282 8.28875 21.5437 8.59925 21.006C8.84375 20.5822 8.7815 20.0648 8.48 19.7122L9.38975 18.1373L12.125 19.7167V20.6895C11.6885 20.844 11.375 21.2603 11.375 21.75C11.375 22.371 11.879 22.875 12.5 22.875C13.121 22.875 13.625 22.371 13.625 21.75C13.625 21.2603 13.3115 20.844 12.875 20.6895V19.7167L15.6102 18.1373L16.52 19.7122C16.2185 20.0648 16.1562 20.5822 16.4008 21.006C16.7113 21.5437 17.3997 21.7282 17.9375 21.4177C18.4753 21.1073 18.6597 20.4187 18.3493 19.881C18.1047 19.4572 17.6248 19.2533 17.1695 19.3372L16.2598 17.7623L18.995 16.1827L19.8372 16.6695C19.7533 17.1248 19.9572 17.6047 20.381 17.8493C20.9187 18.1597 21.6073 17.9753 21.9177 17.4375C22.2282 16.8997 22.0437 16.2113 21.506 15.9008C21.0822 15.6562 20.5648 15.7185 20.2122 16.02L19.37 15.5333V12.375H21.1895C21.344 12.8115 21.7603 13.125 22.25 13.125C22.871 13.125 23.375 12.621 23.375 12C23.375 11.379 22.871 10.875 22.25 10.875C21.7603 10.875 21.344 11.1885 21.1895 11.625H19.37V8.46675L20.2122 7.98C20.5648 8.2815 21.0822 8.34375 21.506 8.09925C22.0437 7.78875 22.2282 7.10025 21.9177 6.5625C21.6073 6.02475 20.9187 5.84025 20.381 6.15075C19.9572 6.39525 19.7533 6.87525 19.8372 7.3305L18.995 7.81725L16.2598 6.23775L17.1695 4.66275C17.6248 4.74675 18.1047 4.54275 18.3493 4.119C18.6597 3.58125 18.4753 2.89275 17.9375 2.58225C17.3997 2.27175 16.7113 2.45625 16.4008 2.994C16.1562 3.41775 16.2185 3.93525 16.52 4.28775L15.6102 5.86275L12.875 4.28325V3.3105C13.3115 3.156 13.625 2.73975 13.625 2.25C13.625 1.629 13.121 1.125 12.5 1.125C11.879 1.125 11.375 1.629 11.375 2.25C11.375 2.73975 11.6885 3.156 12.125 3.3105ZM12.5 22.125C12.293 22.125 12.125 21.957 12.125 21.75C12.125 21.543 12.293 21.375 12.5 21.375C12.707 21.375 12.875 21.543 12.875 21.75C12.875 21.957 12.707 22.125 12.5 22.125ZM17.6998 20.256C17.8033 20.4352 17.7418 20.6647 17.5625 20.7682C17.3833 20.8717 17.1537 20.8102 17.0502 20.631C16.9467 20.4517 17.0083 20.2222 17.1875 20.1188C17.3667 20.0153 17.5963 20.0767 17.6998 20.256ZM7.30025 20.256C7.40375 20.0767 7.63325 20.0153 7.8125 20.1188C7.99175 20.2222 8.05325 20.4517 7.94975 20.631C7.84625 20.8102 7.61675 20.8717 7.4375 20.7682C7.25825 20.6647 7.19675 20.4352 7.30025 20.256ZM12.5 4.93275L18.62 8.46675V15.5333L12.5 19.0672L6.38 15.5333V8.46675L12.5 4.93275ZM12.6875 5.67525C12.5712 5.6085 12.4288 5.6085 12.3125 5.67525L7.1165 8.67525C7.00025 8.742 6.929 8.86575 6.929 9V15C6.929 15.1342 7.00025 15.258 7.1165 15.3248L12.3125 18.3248C12.4288 18.3915 12.5712 18.3915 12.6875 18.3248L17.8835 15.3248C17.9998 15.258 18.071 15.1342 18.071 15V9C18.071 8.86575 17.9998 8.742 17.8835 8.67525L12.6875 5.67525ZM21.2682 17.0625C21.1647 17.2418 20.9352 17.3033 20.756 17.1998C20.5767 17.0963 20.5153 16.8667 20.6188 16.6875C20.7222 16.5083 20.9517 16.4467 21.131 16.5502C21.3102 16.6537 21.3717 16.8833 21.2682 17.0625ZM3.73175 17.0625C3.62825 16.8833 3.68975 16.6537 3.869 16.5502C4.04825 16.4467 4.27775 16.5083 4.38125 16.6875C4.48475 16.8667 4.42325 17.0963 4.244 17.1998C4.06475 17.3033 3.83525 17.2418 3.73175 17.0625ZM9.125 13.5V12.0885L9.91475 13.668C9.992 13.8233 10.1667 13.905 10.3363 13.8652C10.5057 13.8247 10.625 13.674 10.625 13.5V10.5C10.625 10.293 10.457 10.125 10.25 10.125C10.043 10.125 9.875 10.293 9.875 10.5V11.9115L9.08525 10.332C9.008 10.1768 8.83325 10.095 8.66375 10.1347C8.49425 10.1753 8.375 10.326 8.375 10.5V13.5C8.375 13.707 8.543 13.875 8.75 13.875C8.957 13.875 9.125 13.707 9.125 13.5ZM15.125 10.875V13.5C15.125 13.707 15.293 13.875 15.5 13.875C15.707 13.875 15.875 13.707 15.875 13.5V10.875H16.25C16.457 10.875 16.625 10.707 16.625 10.5C16.625 10.293 16.457 10.125 16.25 10.125H14.75C14.543 10.125 14.375 10.293 14.375 10.5C14.375 10.707 14.543 10.875 14.75 10.875H15.125ZM12.125 12.375H12.5C12.707 12.375 12.875 12.207 12.875 12C12.875 11.793 12.707 11.625 12.5 11.625H12.125V10.875H13.25C13.457 10.875 13.625 10.707 13.625 10.5C13.625 10.293 13.457 10.125 13.25 10.125H11.75C11.543 10.125 11.375 10.293 11.375 10.5V13.5C11.375 13.707 11.543 13.875 11.75 13.875C11.957 13.875 12.125 13.707 12.125 13.5V12.375ZM2.75 11.625C2.957 11.625 3.125 11.793 3.125 12C3.125 12.207 2.957 12.375 2.75 12.375C2.543 12.375 2.375 12.207 2.375 12C2.375 11.793 2.543 11.625 2.75 11.625ZM22.25 11.625C22.457 11.625 22.625 11.793 22.625 12C22.625 12.207 22.457 12.375 22.25 12.375C22.043 12.375 21.875 12.207 21.875 12C21.875 11.793 22.043 11.625 22.25 11.625ZM3.73175 6.9375C3.83525 6.75825 4.06475 6.69675 4.244 6.80025C4.42325 6.90375 4.48475 7.13325 4.38125 7.3125C4.27775 7.49175 4.04825 7.55325 3.869 7.44975C3.68975 7.34625 3.62825 7.11675 3.73175 6.9375ZM21.2682 6.9375C21.3717 7.11675 21.3102 7.34625 21.131 7.44975C20.9517 7.55325 20.7222 7.49175 20.6188 7.3125C20.5153 7.13325 20.5767 6.90375 20.756 6.80025C20.9352 6.69675 21.1647 6.75825 21.2682 6.9375ZM7.94975 3.369C8.05325 3.54825 7.99175 3.77775 7.8125 3.88125C7.63325 3.98475 7.40375 3.92325 7.30025 3.744C7.19675 3.56475 7.25825 3.33525 7.4375 3.23175C7.61675 3.12825 7.84625 3.18975 7.94975 3.369ZM17.0502 3.369C17.1537 3.18975 17.3833 3.12825 17.5625 3.23175C17.7418 3.33525 17.8033 3.56475 17.6998 3.744C17.5963 3.92325 17.3667 3.98475 17.1875 3.88125C17.0083 3.77775 16.9467 3.54825 17.0502 3.369ZM12.5 1.875C12.707 1.875 12.875 2.043 12.875 2.25C12.875 2.457 12.707 2.625 12.5 2.625C12.293 2.625 12.125 2.457 12.125 2.25C12.125 2.043 12.293 1.875 12.5 1.875Z" />
</svg>