<svg width="21" height="20" viewBox="0 0 21 20" fill="none" xmlns="http://www.w3.org/2000/svg">
  <path
    d="M16.7594 11.3823C16.9064 11.2282 16.987 11.0225 16.9837 10.8096C16.9804 10.5967 16.8935 10.3936 16.7417 10.2442C16.59 10.0948 16.3855 10.011 16.1726 10.011C15.9596 10.011 15.7552 10.0948 15.6035 10.2442L11.3123 14.6002V3.51053C11.3123 3.29539 11.2268 3.08906 11.0747 2.93693C10.9226 2.7848 10.7163 2.69934 10.5011 2.69934C10.286 2.69934 10.0796 2.7848 9.92752 2.93693C9.7754 3.08906 9.68993 3.29539 9.68993 3.51053V14.5954L5.4012 10.2434C5.24868 10.0978 5.04551 10.0174 4.83471 10.0191C4.62392 10.0208 4.42206 10.1045 4.2719 10.2524C4.12173 10.4004 4.03506 10.601 4.03024 10.8117C4.02542 11.0224 4.10283 11.2268 4.24607 11.3815L9.77997 16.9989C9.87431 17.0946 9.98671 17.1705 10.1106 17.2224C10.2346 17.2742 10.3676 17.3009 10.5019 17.3009C10.6363 17.3009 10.7693 17.2742 10.8932 17.2224C11.0171 17.1705 11.1296 17.0946 11.2239 16.9989L16.7586 11.3815L16.7594 11.3823Z"
    fill="url(#paint0_linear_2619_4112)" />
  <defs>
    <linearGradient id="paint0_linear_2619_4112" x1="4.03003" y1="10.0001" x2="16.9838" y2="10.0001"
      gradientUnits="userSpaceOnUse">
      <stop stop-color="#FFB75E" />
      <stop offset="1" stop-color="#ED8F03" />
    </linearGradient>
  </defs>
</svg>