<svg width="25" height="24" viewBox="0 0 25 24" xmlns="http://www.w3.org/2000/svg">
  <path
    d="M12.4949 4.48798C8.3566 4.48798 4.98975 7.85483 4.98975 11.9965C4.98975 16.1417 8.3566 19.512 12.4949 19.512C16.64 19.512 20.0103 16.1417 20.0103 11.9965C20.0103 7.85483 16.64 4.48798 12.4949 4.48798ZM13.376 12.8023C13.6195 12.9325 13.904 12.9428 14.168 13.0148C14.8297 13.1897 15.3612 13.7897 15.4572 14.472C15.5497 15.1543 15.2035 15.8777 14.6103 16.2274C14.1166 16.5188 13.4755 16.5394 12.9543 16.2994C12.8549 16.2514 12.7555 16.1931 12.6663 16.128C12.1109 15.7165 11.84 14.9623 12.0046 14.2937C12.0766 13.9988 12.2275 13.7143 12.224 13.4091C12.2206 13.08 12.0183 12.7611 11.7235 12.6137C11.4286 12.4663 11.0515 12.5005 10.7875 12.696C10.6023 12.8297 10.4789 13.0285 10.3246 13.1965C9.76232 13.7965 8.7646 13.92 8.07203 13.4777C7.50975 13.1143 7.18746 12.4114 7.2766 11.7497C7.36917 11.088 7.86975 10.4983 8.51089 10.3028C9.1486 10.104 9.89603 10.3131 10.3417 10.8137C10.4686 10.9543 10.5749 11.1223 10.7223 11.2457C11.0103 11.4823 11.4457 11.5234 11.7715 11.3383C12.0972 11.1565 12.2892 10.7588 12.2309 10.392C12.2 10.1897 12.104 10.0045 12.0389 9.81255C11.8057 9.08569 12.1143 8.21826 12.7555 7.8034C14.024 6.98398 15.7555 8.14626 15.4572 9.63083C15.3372 10.2343 14.8743 10.7554 14.288 10.944C13.9726 11.0468 13.6263 11.0605 13.3452 11.2354C13.0777 11.4034 12.9063 11.7154 12.9097 12.0308C12.9166 12.3463 13.0983 12.6548 13.376 12.8023Z" />
  <path
    d="M12.4948 1.02856C6.43999 1.02856 1.53027 5.93828 1.53027 11.9931C1.53027 18.0617 6.43999 22.9714 12.4948 22.9714C18.56 22.9714 23.4697 18.0617 23.4697 11.9931C23.4697 5.93828 18.56 1.02856 12.4948 1.02856ZM4.11199 8.61257C3.99199 8.90399 3.88913 9.20571 3.80342 9.50742C3.75199 9.68228 3.59084 9.80571 3.40913 9.80571C3.37142 9.80571 3.3337 9.80228 3.29599 9.78856C3.1897 9.76114 3.10399 9.68914 3.04913 9.59314C2.9977 9.50056 2.98399 9.38742 3.01484 9.28114C3.10742 8.95542 3.22056 8.62285 3.35084 8.30399C3.41599 8.14971 3.56342 8.04685 3.73484 8.04685C3.80185 8.04754 3.86768 8.06459 3.9266 8.09652C3.98552 8.12844 4.03575 8.17428 4.07292 8.23004C4.11009 8.2858 4.13308 8.34979 4.13989 8.41646C4.1467 8.48312 4.13712 8.55044 4.11199 8.61257ZM4.33827 6.45942C5.34517 4.97953 6.73363 3.79957 8.35656 3.04456C8.45532 2.99941 8.5679 2.99496 8.66992 3.03218C8.77194 3.06939 8.85521 3.14528 8.9017 3.24342C8.94627 3.34628 8.95313 3.45599 8.91542 3.55885C8.8777 3.66171 8.80227 3.74399 8.70284 3.78856C7.21398 4.48138 5.94039 5.56423 5.01713 6.92228C4.93827 7.03542 4.81142 7.10056 4.6777 7.10056C4.59542 7.10056 4.51313 7.07656 4.44456 7.03199C4.3549 6.96987 4.29343 6.87484 4.27352 6.76759C4.25361 6.66035 4.27689 6.54958 4.33827 6.45942ZM12.4948 20.1977C7.97942 20.1977 4.30399 16.5189 4.30399 11.9966C4.30399 7.47771 7.97942 3.80228 12.4948 3.80228C17.0171 3.80228 20.696 7.47771 20.696 11.9966C20.696 16.5189 17.0171 20.1977 12.4948 20.1977Z" />
</svg>