<svg width="21" height="20" viewBox="0 0 21 20" fill="none" xmlns="http://www.w3.org/2000/svg">
  <path
    d="M16.4007 10.9664C16.4551 10.6471 16.4836 10.3239 16.4858 10C16.4836 9.6761 16.4551 9.35291 16.4007 9.0336L17.7974 7.6841C17.9039 7.58105 17.973 7.44537 17.9936 7.29861C18.0142 7.15185 17.9852 7.00241 17.9112 6.87401L16.9135 5.14473C16.8385 5.01681 16.7232 4.91734 16.5856 4.86187C16.4481 4.8064 16.2961 4.79805 16.1533 4.83812L14.291 5.37021C13.7868 4.95952 13.2191 4.63358 12.6103 4.40514L12.1427 2.52289C12.1068 2.37894 12.0238 2.25113 11.9069 2.15978C11.79 2.06843 11.6459 2.01878 11.4975 2.01874H9.50223C9.35387 2.01878 9.20978 2.06843 9.09288 2.15978C8.97598 2.25113 8.89298 2.37894 8.85708 2.52289L8.38685 4.40514C7.77893 4.63384 7.21219 4.95977 6.70879 5.37021L4.8465 4.83812C4.70371 4.79816 4.55171 4.80657 4.4142 4.86203C4.27669 4.91749 4.16139 5.01689 4.08628 5.14473L3.08862 6.87401C3.01445 7.00248 2.98535 7.15206 3.00596 7.29896C3.02657 7.44587 3.0957 7.58167 3.20236 7.68477L4.59908 9.03427C4.54473 9.35336 4.51626 9.67632 4.51394 10C4.51622 10.3239 4.54469 10.6471 4.59908 10.9664L3.20236 12.3159C3.09585 12.419 3.02682 12.5546 3.00622 12.7014C2.98561 12.8482 3.01462 12.9976 3.08862 13.126L4.08628 14.8553C4.14471 14.9565 4.22877 15.0405 4.33001 15.0989C4.43124 15.1573 4.54607 15.1879 4.66293 15.1878C4.72475 15.1875 4.78625 15.179 4.84583 15.1625L6.70812 14.6305C7.21234 15.0411 7.77999 15.3671 8.38884 15.5955L8.85907 17.4778C8.89502 17.6213 8.97778 17.7487 9.09426 17.8399C9.21074 17.9311 9.3543 17.9808 9.50223 17.9813H11.4975C11.6459 17.9812 11.79 17.9316 11.9069 17.8402C12.0238 17.7489 12.1068 17.6211 12.1427 17.4771L12.6129 15.5949C13.2208 15.3662 13.7876 15.0402 14.291 14.6298L16.1533 15.1619C16.2129 15.1784 16.2744 15.1869 16.3362 15.1872C16.453 15.1873 16.5679 15.1566 16.6691 15.0982C16.7703 15.0398 16.8544 14.9558 16.9128 14.8546L17.9105 13.1253C17.9847 12.9969 18.0138 12.8473 17.9931 12.7004C17.9725 12.5535 17.9034 12.4177 17.7968 12.3146L16.4007 10.9664ZM10.4999 12.6604C9.97371 12.6604 9.45934 12.5044 9.02184 12.2121C8.58433 11.9197 8.24334 11.5042 8.04198 11.0181C7.84062 10.532 7.78793 9.99705 7.89059 9.48098C7.99324 8.96491 8.24662 8.49087 8.61869 8.1188C8.99075 7.74673 9.46479 7.49335 9.98087 7.3907C10.4969 7.28805 11.0319 7.34073 11.518 7.54209C12.0041 7.74345 12.4196 8.08445 12.7119 8.52195C13.0043 8.95946 13.1603 9.47382 13.1603 10C13.1603 10.7056 12.88 11.3823 12.3811 11.8812C11.8822 12.3801 11.2055 12.6604 10.4999 12.6604Z"
    fill="#CFCFCF" />
</svg>