<svg width="20" height="20" viewBox="0 0 20 20" fill="none" xmlns="http://www.w3.org/2000/svg">
  <path
    d="M10.0001 1.66669C8.35191 1.66669 6.74074 2.15543 5.37033 3.07111C3.99992 3.98678 2.93182 5.28827 2.30109 6.81099C1.67036 8.33371 1.50533 10.0093 1.82687 11.6258C2.14842 13.2423 2.94209 14.7271 4.10753 15.8926C5.27297 17.058 6.75782 17.8517 8.37433 18.1732C9.99084 18.4948 11.6664 18.3297 13.1891 17.699C14.7118 17.0683 16.0133 16.0002 16.929 14.6298C17.8447 13.2594 18.3334 11.6482 18.3334 10C18.331 7.79062 17.4523 5.67239 15.89 4.1101C14.3277 2.54782 12.2095 1.66908 10.0001 1.66669V1.66669ZM10.714 14.6695H9.27994V8.61113H10.714V14.6695ZM10.5952 6.70766C10.5161 6.78017 10.4232 6.83599 10.322 6.87179C10.2208 6.90758 10.1135 6.92262 10.0063 6.91599C9.89725 6.92325 9.78783 6.90855 9.68453 6.87276C9.58123 6.83698 9.48616 6.78084 9.40494 6.70766C9.33321 6.63041 9.27778 6.5395 9.24198 6.44034C9.20619 6.34119 9.19076 6.23583 9.19661 6.13058C9.18935 6.02287 9.20407 5.91481 9.23988 5.81298C9.2757 5.71114 9.33186 5.61766 9.40494 5.53821C9.48638 5.46536 9.58148 5.40943 9.68472 5.37366C9.78796 5.3379 9.89729 5.32302 10.0063 5.32988C10.1134 5.32365 10.2207 5.33887 10.3218 5.37464C10.4229 5.41042 10.5159 5.46603 10.5952 5.53821C10.6683 5.61766 10.7245 5.71114 10.7603 5.81298C10.7961 5.91481 10.8108 6.02287 10.8036 6.13058C10.8094 6.23583 10.794 6.34119 10.7582 6.44034C10.7224 6.5395 10.667 6.63041 10.5952 6.70766Z"
    fill="#3092FC" />
</svg>