<svg width="64" height="61" viewBox="0 0 64 61" fill="none" xmlns="http://www.w3.org/2000/svg">
  <g clip-path="url(#clip0_2619_3523)">
    <path
      d="M22.008 3.16797C11.6084 3.16797 3.16797 11.6103 3.16797 22.008C3.16797 32.4096 11.6084 40.8481 22.008 40.8481C32.4267 40.8481 40.8481 32.4096 40.8481 22.008C40.8481 11.6096 32.4267 3.16797 22.008 3.16797Z"
      fill="url(#paint0_linear_2619_3523)" />
    <g opacity="0.5" filter="url(#filter0_f_2619_3523)">
      <path
        d="M22.008 12.8047C16.9279 12.8047 12.8047 16.9286 12.8047 22.008C12.8047 27.0894 16.9279 31.2113 22.008 31.2113C27.0976 31.2113 31.2113 27.0894 31.2113 22.008C31.2113 16.9286 27.0976 12.8047 22.008 12.8047Z"
        fill="#FF3D22" />
    </g>
    <mask id="mask0_2619_3523" style="mask-type:alpha" maskUnits="userSpaceOnUse" x="5" y="16" width="60" height="45">
      <path d="M5.32422 16.4902H64.2549V60.8467H5.32422V16.4902Z" fill="white" />
      <path fill-rule="evenodd" clip-rule="evenodd"
        d="M63.0075 37.6316C60.021 31.2081 55.8623 26.0748 50.978 22.5662C46.0937 19.0323 40.4833 17.123 34.5661 17.123H34.5383C22.7318 17.123 12.0977 24.7847 6.12479 37.6316C5.90111 38.122 5.90111 38.6898 6.12479 39.1536C12.0977 52.0005 22.7318 59.6881 34.5383 59.6881H34.5661C46.4004 59.6881 57.0346 52.0005 63.0075 39.1536C63.2312 38.6891 63.2312 38.122 63.0075 37.6316Z"
        fill="black" />
    </mask>
    <g mask="url(#mask0_2619_3523)">
      <path fill-rule="evenodd" clip-rule="evenodd"
        d="M63.0075 37.6316C60.021 31.2081 55.8623 26.0748 50.978 22.5662C46.0937 19.0323 40.4833 17.123 34.5661 17.123H34.5383C22.7318 17.123 12.0977 24.7847 6.12479 37.6316C5.90111 38.122 5.90111 38.6898 6.12479 39.1536C12.0977 52.0005 22.7318 59.6881 34.5383 59.6881H34.5661C46.4004 59.6881 57.0346 52.0005 63.0075 39.1536C63.2312 38.6891 63.2312 38.122 63.0075 37.6316Z"
        fill="#F55740" fill-opacity="0.4" />
      <path
        d="M62.4339 37.8998C62.5048 38.0522 62.6333 38.1703 62.7911 38.228C62.949 38.2857 63.1233 38.2783 63.2757 38.2075C63.4282 38.1366 63.5462 38.0081 63.6039 37.8503C63.6616 37.6924 63.6542 37.5181 63.5834 37.3656L62.4346 37.8998H62.4339ZM50.9798 22.5671L50.6085 23.0803L50.6104 23.0822L50.9798 22.5671ZM6.12596 37.6324L5.55123 37.3656L5.54933 37.3701L6.12596 37.6324ZM6.12596 39.1545L6.70006 38.8877L6.69689 38.8801L6.12596 39.1545ZM63.0087 39.1545L62.4384 38.8801L62.4346 38.8877L63.0087 39.1545ZM63.5853 37.3701C63.5513 37.2936 63.5025 37.2245 63.4417 37.167C63.3809 37.1095 63.3093 37.0645 63.231 37.0348C63.1527 37.0051 63.0694 36.9912 62.9857 36.9939C62.902 36.9966 62.8197 37.0159 62.7435 37.0506C62.6673 37.0853 62.5988 37.1348 62.5418 37.1961C62.4848 37.2575 62.4406 37.3295 62.4116 37.4081C62.3827 37.4866 62.3696 37.5701 62.3731 37.6538C62.3766 37.7374 62.3966 37.8195 62.432 37.8954L63.5853 37.3694V37.3701ZM63.5834 37.3656C60.557 30.856 56.333 25.6321 51.3486 22.0519L50.6098 23.0816C55.3946 26.518 59.4874 31.5613 62.4339 37.8992L63.5834 37.365V37.3656ZM51.3505 22.0538C46.3649 18.4464 40.6258 16.4902 34.5673 16.4902V17.7576C40.3432 17.7576 45.825 19.6205 50.6079 23.0803L51.3505 22.0538ZM34.5673 16.4902H34.5394V17.7576H34.5673V16.4902ZM34.5394 16.4902C22.4314 16.4902 11.6027 24.3496 5.55123 37.3656L6.70006 37.8998C12.5944 25.2221 23.034 17.7576 34.5394 17.7576V16.4902ZM5.54933 37.3694C5.25151 38.0221 5.24517 38.7869 5.5544 39.4288L6.69689 38.8801C6.55875 38.5937 6.55305 38.2236 6.7026 37.8954L5.54933 37.3694ZM5.55123 39.4219C11.6027 52.4373 22.4308 60.3226 34.5394 60.3226V59.0553C23.0346 59.0553 12.595 51.5654 6.70006 38.8877L5.55123 39.4219ZM34.5394 60.3226H34.5673V59.0553H34.5394V60.3226ZM34.5673 60.3226C46.7032 60.3226 57.5319 52.4373 63.5834 39.4219L62.4346 38.8877C56.5396 51.5654 46.1 59.0553 34.5673 59.0553V60.3226ZM63.5802 39.4295C63.8888 38.7869 63.8825 38.0227 63.5853 37.3701L62.432 37.8954C62.5816 38.2236 62.5759 38.5937 62.4384 38.8801L63.5802 39.4295Z"
        fill="url(#paint1_linear_2619_3523)" />
    </g>
    <g filter="url(#filter1_d_2619_3523)">
      <path
        d="M42.9418 38.7712C42.9418 43.3691 39.1829 47.128 34.585 47.128C29.9536 47.128 26.1953 43.3691 26.1953 38.7712C26.1953 38.2009 26.2618 37.6636 26.3626 37.1269H26.5305C30.2558 37.1269 33.2759 34.174 33.4102 30.4816C33.7981 30.4134 34.1912 30.3797 34.585 30.3809C39.1829 30.3809 42.9418 34.1398 42.9418 38.7712Z"
        fill="url(#paint2_linear_2619_3523)" />
      <path
        d="M42.8775 38.7704C42.8775 43.3327 39.1472 47.0637 34.5842 47.0637C29.9876 47.0637 26.2578 43.3334 26.2578 38.7704C26.2578 38.2235 26.3199 37.7064 26.4143 37.1894H26.5297C30.2721 37.1894 33.3099 34.2365 33.4708 30.5346C33.8387 30.473 34.2111 30.4425 34.5842 30.4434C39.1465 30.4434 42.8775 34.1738 42.8775 38.7704Z"
        stroke="url(#paint3_linear_2619_3523)" stroke-opacity="0.5" stroke-width="0.2" />
    </g>
  </g>
  <defs>
    <filter id="filter0_f_2619_3523" x="-7.19531" y="-7.19531" width="58.4067" height="58.4067"
      filterUnits="userSpaceOnUse" color-interpolation-filters="sRGB">
      <feFlood flood-opacity="0" result="BackgroundImageFix" />
      <feBlend mode="normal" in="SourceGraphic" in2="BackgroundImageFix" result="shape" />
      <feGaussianBlur stdDeviation="10" result="effect1_foregroundBlur_2619_3523" />
    </filter>
    <filter id="filter1_d_2619_3523" x="21.1577" y="25.3434" width="36.8198" height="36.8204"
      filterUnits="userSpaceOnUse" color-interpolation-filters="sRGB">
      <feFlood flood-opacity="0" result="BackgroundImageFix" />
      <feColorMatrix in="SourceAlpha" type="matrix" values="0 0 0 0 0 0 0 0 0 0 0 0 0 0 0 0 0 0 127 0"
        result="hardAlpha" />
      <feOffset dx="5" dy="5" />
      <feGaussianBlur stdDeviation="5" />
      <feColorMatrix type="matrix" values="0 0 0 0 1 0 0 0 0 0.447059 0 0 0 0 0.368627 0 0 0 0.5 0" />
      <feBlend mode="normal" in2="BackgroundImageFix" result="effect1_dropShadow_2619_3523" />
      <feBlend mode="normal" in="SourceGraphic" in2="effect1_dropShadow_2619_3523" result="shape" />
    </filter>
    <linearGradient id="paint0_linear_2619_3523" x1="24.7822" y1="24.5313" x2="-8.32732" y2="40.6295"
      gradientUnits="userSpaceOnUse">
      <stop stop-color="#EC7362" />
      <stop offset="1" stop-color="#FF3D22" />
    </linearGradient>
    <linearGradient id="paint1_linear_2619_3523" x1="15.0663" y1="22.0829" x2="39.5866" y2="62.9061"
      gradientUnits="userSpaceOnUse">
      <stop stop-color="white" stop-opacity="0.25" />
      <stop offset="1" stop-color="white" stop-opacity="0" />
    </linearGradient>
    <linearGradient id="paint2_linear_2619_3523" x1="41.7543" y1="33.4054" x2="23.0999" y2="34.0137"
      gradientUnits="userSpaceOnUse">
      <stop stop-color="white" />
      <stop offset="1" stop-color="white" stop-opacity="0.2" />
    </linearGradient>
    <linearGradient id="paint3_linear_2619_3523" x1="42.223" y1="39.1081" x2="25.9416" y2="39.7861"
      gradientUnits="userSpaceOnUse">
      <stop stop-color="white" />
      <stop offset="1" stop-color="white" stop-opacity="0" />
    </linearGradient>
    <clipPath id="clip0_2619_3523">
      <rect width="64" height="60.8317" fill="white" />
    </clipPath>
  </defs>
</svg>