<svg width="20" height="20" viewBox="0 0 20 20" fill="none" xmlns="http://www.w3.org/2000/svg">
  <path
    d="M17.6136 8.86366H11.1364V2.38638C11.1364 1.95457 10.8485 1.66669 10.4167 1.66669C9.98485 1.66669 9.69697 1.95457 9.69697 2.38638V8.86366H3.2197C2.78788 8.86366 2.5 9.15154 2.5 9.58335C2.5 10.0152 2.78788 10.3031 3.2197 10.3031H9.69697V16.7803C9.69697 17.2121 9.98485 17.5 10.4167 17.5C10.8485 17.5 11.1364 17.2121 11.1364 16.7803V10.3031H17.6136C18.0455 10.3031 18.3333 10.0152 18.3333 9.58335C18.3333 9.15154 18.0455 8.86366 17.6136 8.86366Z"
    fill="url(#paint0_linear_2619_4108)" />
  <defs>
    <linearGradient id="paint0_linear_2619_4108" x1="2.5" y1="9.58335" x2="18.3333" y2="9.58335"
      gradientUnits="userSpaceOnUse">
      <stop stop-color="#00C6FF" />
      <stop offset="1" stop-color="#0072FF" />
    </linearGradient>
  </defs>
</svg>