<svg width="24" height="24" viewBox="0 0 24 24" fill="none" xmlns="http://www.w3.org/2000/svg">
  <path
    d="M1.66855 9.70649C1.91403 9.8042 2.2449 9.69564 2.3623 9.3591C4.04866 4.40878 8.17918 2.00961 12.3524 2.00961C14.3589 2.00961 15.8852 2.46556 17.0806 3.21462C17.3688 3.39917 17.7103 3.3666 17.8277 3.07349C17.9665 2.75867 17.8064 2.56326 17.5716 2.41128C16.12 1.46681 14.4763 1 12.3524 1C7.68821 1 3.30154 3.57287 1.41239 8.87058C1.26297 9.29396 1.41239 9.59793 1.66855 9.70649ZM23.5379 13.4735C23.8154 13.4735 24.0288 13.2347 23.9968 12.9199C23.5699 8.74031 22.0756 5.83091 19.6849 3.75742C19.4394 3.5403 19.1299 3.57287 18.9698 3.75742C18.7883 3.94197 18.7776 4.25679 19.0338 4.48477C21.2004 6.49312 22.6947 9.10941 23.0469 12.9416C23.0683 13.2347 23.2497 13.4735 23.5379 13.4735ZM3.40827 19.1946C3.56837 19.4334 3.90991 19.4877 4.1554 19.2706C4.90252 18.641 5.27608 17.5879 5.26541 16.5675C5.25473 15.0476 4.62502 14.3311 4.62502 12.3988C4.62502 8.21922 8.10447 4.68018 12.2243 4.68018C17.3688 4.68018 20.5707 8.88144 20.5921 14.9934C20.6027 17.2622 20.2505 19.0101 19.8023 20.1716C19.6849 20.4648 19.8023 20.7579 20.0371 20.8664C20.2719 20.975 20.6027 20.8881 20.7095 20.5842C21.1684 19.2815 21.574 17.3817 21.574 14.9825C21.574 8.30607 17.9665 3.69228 12.2243 3.69228C7.56014 3.69228 3.64308 7.67642 3.64308 12.3988C3.64308 14.2009 4.30482 15.4167 4.31549 16.5675C4.31549 17.2948 4.02732 18.0222 3.51501 18.4781C3.30154 18.6627 3.26952 18.9775 3.40827 19.1946ZM7.98706 15.5144C7.68821 14.722 7.27196 13.7123 7.27196 12.5399C7.27196 9.55451 9.42794 7.3616 12.3524 7.3616C13.409 7.3616 13.964 7.54615 14.8392 8.03467C15.1167 8.1758 15.3729 8.08895 15.4796 7.89354C15.6077 7.66557 15.5757 7.35075 15.2341 7.14448C14.4763 6.66682 13.4197 6.36285 12.3524 6.36285C8.88361 6.36285 6.29003 9.00085 6.29003 12.5399C6.29003 13.7232 6.61022 14.8305 7.03715 15.8944C7.16523 16.1984 7.43206 16.3286 7.73091 16.2092C7.98706 16.1007 8.09379 15.8075 7.98706 15.5144ZM16.4402 9.44595C17.4648 10.9658 17.9665 13.1478 17.9665 15.623C17.9665 18.261 17.262 20.8013 16.0773 22.3754C15.9172 22.5925 15.8852 22.9074 16.0773 23.1028C16.2801 23.309 16.6537 23.309 16.8351 23.0702C18.1479 21.2572 18.9377 18.4673 18.9377 15.5904C18.9377 12.605 18.2973 10.5098 17.3154 8.92486C17.1233 8.61004 16.8138 8.5449 16.579 8.67517C16.3228 8.8163 16.2481 9.14198 16.4402 9.44595ZM7.96572 22.5708C9.66275 21.1813 10.602 18.9666 10.5913 16.4915C10.57 14.6351 9.91891 13.4735 9.91891 12.4096C9.91891 10.9984 10.9008 10.0539 12.299 10.0539C14.391 10.0539 15.2128 12.3228 15.2555 15.4819C15.3195 18.8906 14.1135 21.6806 12.5338 23.1245C12.331 23.309 12.2884 23.5804 12.4378 23.7975C12.5979 24.0255 12.9394 24.0798 13.1742 23.8627C14.8606 22.2994 16.1947 19.0101 16.1841 15.4167C16.1734 11.6714 15.074 9.06599 12.299 9.06599C10.3992 9.06599 8.95832 10.3687 8.95832 12.3336C8.95832 13.5061 9.58804 14.9825 9.60938 16.4915C9.62006 18.6627 8.8089 20.5733 7.35735 21.7783C7.10119 21.9846 7.07984 22.2777 7.22927 22.4948C7.40004 22.7445 7.72023 22.7879 7.96572 22.5708ZM2.06345 16.0572C2.31961 15.9704 2.45836 15.7098 2.37298 15.3842C2.09547 14.3311 1.9674 13.0067 1.99942 11.552C1.99942 11.2372 1.82865 11.0526 1.56182 11.0418C1.22027 11.0201 1.03883 11.2372 1.01748 11.5086C0.953445 12.757 1.06018 14.3094 1.42306 15.6664C1.51912 15.9921 1.79663 16.1332 2.06345 16.0572ZM13.3023 17.6096C13.6118 16.2201 13.4731 14.266 12.9287 12.7353C12.8007 12.3771 12.5445 12.2685 12.267 12.3553C12.0108 12.4422 11.8614 12.7027 11.9575 13.0067C12.4911 14.494 12.6085 16.1767 12.331 17.4794C12.2777 17.7508 12.3844 18.0005 12.6833 18.0547C12.9714 18.109 13.2276 17.9353 13.3023 17.6096ZM5.75637 21.1595C6.53551 20.747 7.6135 19.3575 7.89101 18.2176C7.96572 17.9462 7.82697 17.6639 7.56014 17.5771C7.31465 17.5011 7.0585 17.6422 6.96244 17.9353C6.67426 18.9775 6.07657 19.7266 5.3081 20.2585C4.9879 20.4865 4.95588 20.7796 5.06262 20.9858C5.16935 21.203 5.44685 21.3224 5.75637 21.1595ZM10.3885 23.4393C11.2317 22.8097 12.203 21.5395 12.7046 19.998C12.7686 19.7591 12.7153 19.4443 12.4378 19.3575C12.1603 19.2597 11.8934 19.39 11.8081 19.6397C11.2317 21.1813 10.5273 22.0714 9.79083 22.636C9.56669 22.8097 9.50265 23.1136 9.65208 23.3416C9.8015 23.6021 10.1324 23.6347 10.3885 23.4393Z"
    fill="white" />
</svg>