<svg width="24" height="24" viewBox="0 0 24 24" fill="none" xmlns="http://www.w3.org/2000/svg">
  <path d="M11.0833 11.0833H1V1H11.0833V11.0833ZM2.83333 9.25H9.25V2.83333H2.83333V9.25Z" fill="white" />
  <path d="M23.0001 11.0833H12.9167V1H23.0001V11.0833ZM14.7501 9.25H21.1667V2.83333H14.7501V9.25Z" fill="white" />
  <path d="M11.0833 23H1V12.9167H11.0833V23ZM2.83333 21.1667H9.25V14.75H2.83333V21.1667Z" fill="white" />
  <path d="M22.9999 19.3334H21.1666V14.75H19.3333V17.5H13.8333V12.9167H15.6666V15.6667H17.4999V12.9167H22.9999V19.3334Z"
    fill="white" />
  <path d="M22.9999 23H13.8333V19.3333H15.6666V21.1666H22.9999V23Z" fill="white" />
  <path d="M7.41675 4.66669H4.66675V7.41669H7.41675V4.66669Z" fill="white" />
  <path d="M19.3333 4.66669H16.5833V7.41669H19.3333V4.66669Z" fill="white" />
  <path d="M7.41675 16.5833H4.66675V19.3333H7.41675V16.5833Z" fill="white" />
</svg>