<svg width="81" height="78" viewBox="0 0 81 78" fill="none" xmlns="http://www.w3.org/2000/svg">
  <path
    d="M14.5583 10.3829L39.2263 3.77321C48.215 1.36467 54.7269 5.29399 57.2302 14.6377L64.0939 40.2532C66.5979 49.5969 62.9234 56.2563 53.9346 58.6649L29.2667 65.2746C20.2779 67.6823 13.7894 63.7476 11.2861 54.4039L4.42241 28.7876C1.91834 19.4439 5.5696 12.7915 14.5583 10.3829Z"
    fill="url(#paint0_linear_2483_2109)" />
  <g filter="url(#filter0_f_2483_2109)">
    <path
      d="M20.9267 18.2882L37.6739 13.8012C43.7764 12.1662 48.1492 14.654 49.764 20.6812L54.1912 37.2039C55.8067 43.2311 53.2638 47.572 47.1605 49.207L30.4133 53.6932C24.3108 55.3289 19.9543 52.8365 18.3395 46.8093L13.9123 30.2866C12.2968 24.2594 14.8242 19.9231 20.9267 18.2874V18.2882Z"
      fill="#0D80FC" />
  </g>
  <mask id="mask0_2483_2109" style="mask-type:alpha" maskUnits="userSpaceOnUse" x="17" y="14" width="64" height="64">
    <path d="M17.7593 14.915H80.6719V77.8276H17.7593V14.915Z" fill="white" />
    <path
      d="M63.3843 15.6917H34.8414C24.4103 15.6917 18.5361 21.5658 18.5361 31.9977V60.5709C18.5361 70.9414 24.4095 76.8769 34.8414 76.8769H63.4154C73.8161 76.8769 79.7206 70.9414 79.7206 60.5709V31.9977C79.7206 21.5658 73.7858 15.6917 63.3843 15.6917V15.6917Z"
      fill="black" />
  </mask>
  <g mask="url(#mask0_2483_2109)">
    <path
      d="M63.3843 15.6917H34.8414C24.4103 15.6917 18.5361 21.5658 18.5361 31.9977V60.5709C18.5361 70.9414 24.4095 76.8769 34.8414 76.8769H63.4154C73.8161 76.8769 79.7206 70.9414 79.7206 60.5709V31.9977C79.7206 21.5658 73.7858 15.6917 63.3843 15.6917V15.6917Z"
      fill="#0D80FC" fill-opacity="0.35" />
    <path
      d="M63.3841 16.4684C63.5901 16.4684 63.7877 16.3865 63.9333 16.2409C64.079 16.0952 64.1608 15.8977 64.1608 15.6917C64.1608 15.4857 64.079 15.2881 63.9333 15.1425C63.7877 14.9968 63.5901 14.915 63.3841 14.915V16.4684ZM63.3841 14.915C63.1781 14.915 62.9806 14.9968 62.8349 15.1425C62.6893 15.2881 62.6074 15.4857 62.6074 15.6917C62.6074 15.8977 62.6893 16.0952 62.8349 16.2409C62.9806 16.3865 63.1781 16.4684 63.3841 16.4684V14.915ZM63.3841 14.915H34.8412V16.4684H63.3849V14.915H63.3841ZM34.8412 14.915C29.482 14.915 25.1845 16.4264 22.2276 19.3833C19.27 22.341 17.7593 26.6377 17.7593 31.9969H19.3127C19.3127 26.9251 20.7379 23.0695 23.3259 20.4816C25.9138 17.8944 29.7686 16.4684 34.8412 16.4684V14.915V14.915ZM17.7593 31.9977V60.5709H19.3127V31.9977H17.7593ZM17.7593 60.5709C17.7593 65.9006 19.2707 70.1973 22.2268 73.1612C25.183 76.1259 29.4804 77.6536 34.8412 77.6536V76.1002C29.7709 76.1002 25.9154 74.6602 23.3267 72.0645C20.7379 69.468 19.3127 65.6117 19.3127 60.5709H17.7593ZM34.8412 77.6536H63.4152V76.1002H34.8412V77.6536ZM63.4152 77.6536C68.7612 77.6536 73.0579 76.1251 76.0179 73.162C78.9771 70.1981 80.4971 65.9014 80.4971 60.5709H78.9437C78.9437 65.6117 77.5115 69.4672 74.9189 72.0637C72.3263 74.6602 68.4692 76.101 63.4152 76.101V77.6544V77.6536ZM80.4971 60.5709V31.9977H78.9437V60.5709H80.4971ZM80.4971 31.9977C80.4971 26.6361 78.9694 22.3387 76.0008 19.3826C73.0331 16.4264 68.7286 14.915 63.3841 14.915V16.4684C68.4412 16.4684 72.3053 17.8936 74.9049 20.4831C77.5037 23.0711 78.9437 26.9266 78.9437 31.9977H80.4971Z"
      fill="url(#paint1_linear_2483_2109)" />
  </g>
  <g filter="url(#filter1_d_2483_2109)">
    <mask id="mask1_2483_2109" style="mask-type:alpha" maskUnits="userSpaceOnUse" x="35" y="32" width="28" height="29">
      <path
        d="M60.3247 48.821H51.6366V57.4781C51.6375 57.8119 51.5724 58.1426 51.4451 58.4511C51.3178 58.7597 51.1308 59.04 50.8947 59.2761C50.6587 59.5121 50.3784 59.6991 50.0698 59.8264C49.7612 59.9538 49.4306 60.0188 49.0968 60.0179C48.7631 60.0186 48.4326 59.9534 48.1242 59.826C47.8158 59.6986 47.5357 59.5115 47.2998 59.2755C47.0639 59.0395 46.877 58.7592 46.7498 58.4508C46.6226 58.1423 46.5576 57.8118 46.5585 57.4781V48.821H37.9006C36.4933 48.7899 35.3608 47.6583 35.3608 46.2509C35.3608 45.5752 35.6366 44.9352 36.0956 44.4459C36.5849 43.9876 37.2272 43.7119 37.9006 43.7119H46.5585V35.0835C46.5577 34.7499 46.6228 34.4193 46.7501 34.1109C46.8774 33.8025 47.0644 33.5223 47.3003 33.2863C47.5363 33.0504 47.8165 32.8634 48.1249 32.7361C48.4333 32.6088 48.7639 32.5437 49.0975 32.5445C49.4313 32.5436 49.762 32.6086 50.0706 32.736C50.3791 32.8633 50.6595 33.0503 50.8955 33.2863C51.1315 33.5224 51.3186 33.8027 51.4459 34.1113C51.5732 34.4198 51.6383 34.7505 51.6373 35.0843V43.7111H60.3247C60.6585 43.7102 60.9892 43.7752 61.2978 43.9026C61.6063 44.0299 61.8867 44.2169 62.1227 44.4529C62.3587 44.689 62.5458 44.9693 62.6731 45.2779C62.8004 45.5864 62.8655 45.9171 62.8645 46.2509C62.8645 47.6567 61.7321 48.7892 60.3247 48.8202V48.821Z"
        fill="white" />
    </mask>
    <g mask="url(#mask1_2483_2109)">
      <path
        d="M60.3247 48.821H51.6366V57.4781C51.6375 57.8119 51.5724 58.1426 51.4451 58.4511C51.3178 58.7597 51.1308 59.04 50.8947 59.2761C50.6587 59.5121 50.3784 59.6991 50.0698 59.8264C49.7612 59.9538 49.4306 60.0188 49.0968 60.0179C48.7631 60.0186 48.4326 59.9534 48.1242 59.826C47.8158 59.6986 47.5357 59.5115 47.2998 59.2755C47.0639 59.0395 46.877 58.7592 46.7498 58.4508C46.6226 58.1423 46.5576 57.8118 46.5585 57.4781V48.821H37.9006C36.4933 48.7899 35.3608 47.6583 35.3608 46.2509C35.3608 45.5752 35.6366 44.9352 36.0956 44.4459C36.5849 43.9876 37.2272 43.7119 37.9006 43.7119H46.5585V35.0835C46.5577 34.7499 46.6228 34.4193 46.7501 34.1109C46.8774 33.8025 47.0644 33.5223 47.3003 33.2863C47.5363 33.0504 47.8165 32.8634 48.1249 32.7361C48.4333 32.6088 48.7639 32.5437 49.0975 32.5445C49.4313 32.5436 49.762 32.6086 50.0706 32.736C50.3791 32.8633 50.6595 33.0503 50.8955 33.2863C51.1315 33.5224 51.3186 33.8027 51.4459 34.1113C51.5732 34.4198 51.6383 34.7505 51.6373 35.0843V43.7111H60.3247C60.6585 43.7102 60.9892 43.7752 61.2978 43.9026C61.6063 44.0299 61.8867 44.2169 62.1227 44.4529C62.3587 44.689 62.5458 44.9693 62.6731 45.2779C62.8004 45.5864 62.8655 45.9171 62.8645 46.2509C62.8645 47.6567 61.7321 48.7892 60.3247 48.8202V48.821Z"
        fill="url(#paint2_linear_2483_2109)" />
      <path
        d="M51.6366 48.821V48.6657H51.4813V48.821H51.6366ZM46.5586 48.821H46.7139V48.6657H46.5586V48.821ZM37.9007 48.821L37.8976 48.9764H37.9007V48.821ZM36.0957 44.4459L35.9893 44.3325L35.9823 44.3403L36.0957 44.4459ZM46.5578 43.7119V43.8672H46.7131V43.7119H46.5578ZM51.6374 43.7119H51.4821V43.8672H51.6374V43.7119ZM60.3248 48.6657H51.6366V48.9764H60.3248V48.6657ZM51.4813 48.821V57.4781H51.792V48.821H51.4813ZM51.4813 57.4781C51.4822 57.7915 51.4212 58.102 51.3017 58.3917C51.1822 58.6814 51.0066 58.9446 50.785 59.1662C50.5634 59.3879 50.3001 59.5635 50.0104 59.683C49.7207 59.8025 49.4102 59.8635 49.0968 59.8626V60.1733C49.451 60.1742 49.8019 60.1051 50.1293 59.97C50.4567 59.8349 50.7542 59.6364 51.0046 59.3859C51.2551 59.1355 51.4536 58.838 51.5887 58.5106C51.7238 58.1832 51.7929 57.8323 51.792 57.4781H51.4813ZM49.0968 59.8626C48.7836 59.8633 48.4733 59.8021 48.1837 59.6825C47.8942 59.5629 47.6311 59.3873 47.4097 59.1657C47.1883 58.9441 47.0128 58.681 46.8934 58.3913C46.774 58.1017 46.713 57.7914 46.7139 57.4781H46.4032C46.4023 57.8322 46.4714 58.1831 46.6064 58.5104C46.7415 58.8378 46.9399 59.1352 47.1903 59.3857C47.4407 59.6361 47.7381 59.8346 48.0654 59.9698C48.3927 60.1049 48.7435 60.1741 49.0976 60.1733V59.8626H49.0968ZM46.7139 57.4781V48.821H46.4032V57.4781H46.7139ZM46.5586 48.6657H37.9007V48.9764H46.5586V48.6657V48.6657ZM37.9038 48.6657C36.5795 48.637 35.517 47.5721 35.517 46.2509H35.2063C35.2063 47.7445 36.4079 48.9437 37.8976 48.9764L37.9038 48.6657ZM35.517 46.2509C35.517 45.6179 35.7749 45.016 36.2091 44.5523L35.9823 44.3395C35.4992 44.8552 35.2056 45.5317 35.2056 46.2509H35.5162H35.517ZM36.2021 44.5593C36.665 44.1251 37.27 43.8672 37.9007 43.8672V43.5566C37.1846 43.5566 36.505 43.8494 35.99 44.3333L36.2021 44.5593ZM37.9007 43.8672H46.5586V43.5566H37.9007V43.8672ZM46.7139 43.7119V35.0836H46.4032V43.7127H46.7139V43.7119ZM46.7139 35.0843C46.7131 34.7711 46.7742 34.4607 46.8937 34.1712C47.0132 33.8816 47.1887 33.6185 47.4103 33.397C47.6318 33.1755 47.8949 32.9999 48.1844 32.8804C48.474 32.7609 48.7843 32.6998 49.0976 32.7006V32.39C48.7434 32.389 48.3925 32.4581 48.0651 32.5932C47.7377 32.7284 47.4402 32.9268 47.1898 33.1773C46.9393 33.4277 46.7409 33.7252 46.6057 34.0526C46.4706 34.38 46.4015 34.7309 46.4025 35.0851H46.7131L46.7139 35.0843ZM49.0976 32.7006C49.411 32.6997 49.7215 32.7608 50.0112 32.8803C50.3009 32.9998 50.5641 33.1754 50.7857 33.397C51.0073 33.6186 51.1829 33.8818 51.3024 34.1715C51.4219 34.4612 51.483 34.7717 51.4821 35.0851H51.7928C51.7937 34.7309 51.7246 34.38 51.5895 34.0526C51.4544 33.7252 51.2559 33.4277 51.0054 33.1773C50.755 32.9268 50.4575 32.7284 50.1301 32.5932C49.8027 32.4581 49.4518 32.389 49.0976 32.39V32.7006ZM51.4821 35.0851V43.7119H51.7928V35.0836H51.4821V35.0851ZM51.6374 43.8672H60.3248V43.5566H51.6366V43.8672H51.6374ZM60.3248 43.8672C60.6382 43.8663 60.9487 43.9274 61.2384 44.0469C61.5281 44.1664 61.7913 44.342 62.0129 44.5636C62.2345 44.7852 62.4101 45.0484 62.5296 45.3381C62.6491 45.6278 62.7102 45.9383 62.7093 46.2517H63.0199C63.0209 45.8975 62.9518 45.5466 62.8167 45.2192C62.6815 44.8918 62.4831 44.5944 62.2326 44.3439C61.9822 44.0934 61.6847 43.895 61.3573 43.7598C61.0299 43.6247 60.679 43.5556 60.3248 43.5566V43.8672ZM62.7093 46.2517C62.7093 47.5721 61.6467 48.6362 60.3217 48.6657L60.3287 48.9764C61.8184 48.9437 63.0192 47.7445 63.0192 46.2509H62.7085L62.7093 46.2517Z"
        fill="url(#paint3_linear_2483_2109)" fill-opacity="0.5" />
    </g>
  </g>
  <defs>
    <filter id="filter0_f_2483_2109" x="-2.56445" y="-2.68976" width="73.231" height="72.8738"
      filterUnits="userSpaceOnUse" color-interpolation-filters="sRGB">
      <feFlood flood-opacity="0" result="BackgroundImageFix" />
      <feBlend mode="normal" in="SourceGraphic" in2="BackgroundImageFix" result="shape" />
      <feGaussianBlur stdDeviation="8" result="effect1_foregroundBlur_2483_2109" />
    </filter>
    <filter id="filter1_d_2483_2109" x="30.3608" y="27.5445" width="47.5039" height="47.4734"
      filterUnits="userSpaceOnUse" color-interpolation-filters="sRGB">
      <feFlood flood-opacity="0" result="BackgroundImageFix" />
      <feColorMatrix in="SourceAlpha" type="matrix" values="0 0 0 0 0 0 0 0 0 0 0 0 0 0 0 0 0 0 127 0"
        result="hardAlpha" />
      <feOffset dx="5" dy="5" />
      <feGaussianBlur stdDeviation="5" />
      <feColorMatrix type="matrix" values="0 0 0 0 0.0509804 0 0 0 0 0.501961 0 0 0 0 0.988235 0 0 0 0.5 0" />
      <feBlend mode="normal" in2="BackgroundImageFix" result="effect1_dropShadow_2483_2109" />
      <feBlend mode="normal" in="SourceGraphic" in2="effect1_dropShadow_2483_2109" result="shape" />
    </filter>
    <linearGradient id="paint0_linear_2483_2109" x1="0.500084" y1="14.1499" x2="51.1385" y2="47.5029"
      gradientUnits="userSpaceOnUse">
      <stop stop-color="#4699F1" />
      <stop offset="1" stop-color="#0D80FC" />
    </linearGradient>
    <linearGradient id="paint1_linear_2483_2109" x1="28.2758" y1="22.8202" x2="67.3049" y2="71.1589"
      gradientUnits="userSpaceOnUse">
      <stop stop-color="white" stop-opacity="0.25" />
      <stop offset="1" stop-color="white" stop-opacity="0" />
    </linearGradient>
    <linearGradient id="paint2_linear_2483_2109" x1="60.9142" y1="37.5061" x2="30.2789" y2="38.5064"
      gradientUnits="userSpaceOnUse">
      <stop stop-color="white" />
      <stop offset="1" stop-color="white" stop-opacity="0.2" />
    </linearGradient>
    <linearGradient id="paint3_linear_2483_2109" x1="38.324" y1="41.7608" x2="61.6778" y2="41.8905"
      gradientUnits="userSpaceOnUse">
      <stop stop-color="white" />
      <stop offset="1" stop-color="white" stop-opacity="0" />
    </linearGradient>
  </defs>
</svg>